<svg id="OBJECTS" xmlns="http://www.w3.org/2000/svg" viewBox="0 0 318.73 335.59"><defs><style>.cls-1{fill:#3e76bd;}.cls-2{fill:#2e5d99;}.cls-3{fill:#6299de;}.cls-4{fill:#55b7d4;}.cls-5{fill:#329fbf;}.cls-6{fill:#91c9d9;}.cls-7{fill:#e6e7e8;}.cls-8{fill:#898989;}.cls-9{fill:#d1d3d4;}.cls-10{fill:#848484;}.cls-11{fill:#fff;}.cls-12{fill:#cecece;}.cls-13{fill:#e5e5e5;}.cls-14{isolation:isolate;}.cls-15{fill:#1a3954;}.cls-16{fill:#416d94;}.cls-17{fill:#b3dae5;}.cls-18{fill:#cbcbcb;}.cls-19{fill:#27557d;}.cls-20{fill:none;stroke:#fff;stroke-linecap:round;stroke-linejoin:round;stroke-width:2px;}</style></defs><title>IPA-Grou-Service-Email-Marketing</title><polygon class="cls-1" points="247.59 19.86 275.27 56.36 246.53 58.46 247.59 19.86"/><polygon class="cls-2" points="275.27 56.36 302.94 92.86 246.53 58.46 275.27 56.36"/><polygon class="cls-1" points="304 54.26 302.94 92.86 246.53 58.46 302.94 92.86 275.27 56.36 304 54.26"/><polygon class="cls-3" points="247.59 19.86 304 54.26 275.27 56.36 247.59 19.86"/><polygon class="cls-4" points="191.55 33.27 215.2 73.27 238.85 113.27 183.86 67.08 238.85 113.27 215.19 73.27 183.86 67.08 191.55 33.27"/><polygon class="cls-5" points="215.19 73.27 238.85 113.27 183.86 67.08 215.19 73.27"/><polygon class="cls-4" points="246.53 79.45 238.85 113.27 183.86 67.08 238.85 113.27 215.2 73.27 246.53 79.45"/><polygon class="cls-6" points="191.55 33.27 246.53 79.45 215.2 73.27 191.55 33.27"/><polygon class="cls-7" points="157.5 18.5 164.43 60.89 133.33 30.44 157.5 18.5"/><polygon class="cls-7" points="102.24 0 133.33 30.44 109.17 42.39 164.43 60.89 109.17 42.39 102.24 0"/><polygon class="cls-8" points="157.5 18.5 133.33 30.44 102.24 0 109.17 42.39 164.43 60.89 109.17 42.39 102.24 0 157.5 18.5"/><polygon class="cls-9" points="133.33 30.44 164.43 60.89 109.17 42.39 133.33 30.44"/><polygon class="cls-7" points="311.8 144.65 318.73 187.04 287.63 156.59 311.8 144.65"/><polygon class="cls-7" points="256.54 126.15 287.63 156.59 263.46 168.54 318.73 187.04 263.46 168.54 256.54 126.15"/><polygon class="cls-10" points="311.8 144.65 287.63 156.59 256.54 126.15 263.46 168.54 318.73 187.04 263.46 168.54 256.54 126.15 311.8 144.65"/><polygon class="cls-9" points="287.63 156.59 318.73 187.04 263.46 168.54 287.63 156.59"/><polygon class="cls-11" points="44.22 116.92 0.37 142.19 35.65 159.22 44.22 116.92"/><polygon class="cls-12" points="0.37 142.19 35.65 159.22 44.22 116.92 0.37 142.19"/><polygon class="cls-13" points="13.72 148.63 44.22 116.92 20.91 152.1 16.09 159.22 13.72 148.63"/><g class="cls-14"><path class="cls-15" d="M273.83,161.8a10,10,0,0,1,4.51,7.81L278,276.73c0,2.88-2,4-4.54,2.59L119.66,190.51a10,10,0,0,1-4.51-7.82l.3-107.12c0-2.87,2-4,4.54-2.59Z" transform="translate(-15.45 -9.74)"/><path class="cls-16" d="M279.47,158.52,125.63,69.71a3.18,3.18,0,0,0-3.22-.32l-5.64,3.28A3.2,3.2,0,0,1,120,73L273.83,161.8a10,10,0,0,1,4.51,7.81L278,276.73a3.15,3.15,0,0,1-1.32,2.91l5.64-3.28a3.13,3.13,0,0,0,1.32-2.9L284,166.34A10,10,0,0,0,279.47,158.52Z" transform="translate(-15.45 -9.74)"/></g><polygon class="cls-6" points="256.63 160.1 256.54 194.06 199.09 226.49 105.96 172.72 106 159.6 181.63 116.79 256.63 160.1"/><polygon class="cls-17" points="181.63 116.79 106 159.6 105.96 172.72 199.09 226.49 256.54 194.06 256.35 259.55 105.96 172.72 106.24 73.27 181.63 116.79"/><g class="cls-14"><path class="cls-11" d="M272.79,278.68c2.5,1.44,2.51,3.78,0,5.22l-92.61,53.83a10,10,0,0,1-9,0L17.35,248.91c-2.5-1.44-2.51-3.78,0-5.23l92.62-53.82a10,10,0,0,1,9,0Z" transform="translate(-15.45 -9.74)"/><path class="cls-7" d="M272.82,283.9l-92.61,53.83a10,10,0,0,1-9,0L17.35,248.91a3.17,3.17,0,0,1-1.88-2.63l0,6.52a3.16,3.16,0,0,0,1.88,2.63l153.83,88.82a10,10,0,0,0,9,0l92.62-53.83a3.17,3.17,0,0,0,1.85-2.59l0-6.52A3.16,3.16,0,0,1,272.82,283.9Z" transform="translate(-15.45 -9.74)"/></g><path class="cls-18" d="M158.54,285.75c3.46,2,3.48,5.24,0,7.24l-29,16.83L71.27,276.13l29-16.83a13.79,13.79,0,0,1,12.51,0Z" transform="translate(-15.45 -9.74)"/><g class="cls-14"><polygon class="cls-16" points="238.65 265.04 232.04 268.88 214.93 258.99 221.53 255.16 238.65 265.04"/><polygon class="cls-19" points="238.65 265.04 238.63 269.11 232.03 272.95 232.04 268.88 238.65 265.04"/><polygon class="cls-15" points="232.04 268.88 232.03 272.95 214.91 263.07 214.93 258.99 232.04 268.88"/></g><g class="cls-14"><polygon class="cls-16" points="215.19 251.08 208.59 254.92 191.47 245.03 198.08 241.2 215.19 251.08"/><polygon class="cls-19" points="215.19 251.08 215.18 255.16 208.58 258.99 208.59 254.92 215.19 251.08"/><polygon class="cls-15" points="208.59 254.92 208.58 258.99 191.46 249.11 191.47 245.03 208.59 254.92"/></g><g class="cls-14"><polygon class="cls-16" points="226.79 271.62 220.18 275.46 84.69 197.23 91.29 193.39 226.79 271.62"/><polygon class="cls-19" points="226.79 271.62 226.77 275.7 220.17 279.53 220.18 275.46 226.79 271.62"/><polygon class="cls-15" points="220.18 275.46 220.17 279.53 84.68 201.31 84.69 197.23 220.18 275.46"/></g><g class="cls-14"><polygon class="cls-16" points="213 280.19 206.4 284.03 70.9 205.8 77.51 201.96 213 280.19"/><polygon class="cls-19" points="213 280.19 212.99 284.27 206.39 288.1 206.4 284.03 213 280.19"/><polygon class="cls-15" points="206.4 284.03 206.39 288.1 70.89 209.88 70.9 205.8 206.4 284.03"/></g><g class="cls-14"><polygon class="cls-16" points="199.22 288.76 192.62 292.6 57.12 214.37 63.72 210.53 199.22 288.76"/><polygon class="cls-19" points="199.22 288.76 199.21 292.84 192.6 296.68 192.62 292.6 199.22 288.76"/><polygon class="cls-15" points="192.62 292.6 192.6 296.68 57.11 218.45 57.12 214.37 192.62 292.6"/></g><polygon class="cls-3" points="160.13 120.59 169.91 119.55 179.8 131.95 160.13 120.59"/><polygon class="cls-3" points="144.37 129.73 133.48 123.44 144.39 122.28 144.37 129.73"/><g class="cls-14"><polygon class="cls-1" points="133.48 123.44 144.35 137.29 170.04 170.03 133.33 174.3 206.61 216.61 133.33 174.3 133.48 123.44"/><polygon class="cls-2" points="170.04 170.03 206.61 216.61 133.33 174.3 170.04 170.03"/><path class="cls-11" d="M185.81,154.6a2,2,0,0,1,.91,1.78c0,2.2-2.22,5.17-3.42,4.48a1.77,1.77,0,0,1-.74-1.71C182.57,156.71,184.35,153.76,185.81,154.6Z" transform="translate(-15.45 -9.74)"/><path class="cls-11" d="M195.24,141.69l15.33,8.85,0,10.34,0,7.87,0,8.11-25,2.91L159.79,147l0-7.55,0-7.46,0-10.75,15.71,9.07ZM188,165.75c3.21,1.85,5.22-1,5.23-4.42,0-4.44-3.27-9.36-7.48-11.79-6.28-3.63-10.62-.57-10.63,5.28,0,4.14,2.84,8,6,9.85,2,1.14,3.72,0,3.73-.38a.56.56,0,0,0-.23-.52,1.16,1.16,0,0,0-.38-.09,4,4,0,0,1-2.4-.56c-2.8-1.62-4.6-4.18-4.59-7.16,0-4.57,3-7.68,8.49-4.51,3.24,1.86,5.77,5.44,5.76,8.78,0,2.73-1.13,5-2.67,4.06a1.13,1.13,0,0,1-.51-1c0-1.93,1.52-4.46,1.52-5.34a3.28,3.28,0,0,0-1.76-2.37,6.52,6.52,0,0,0-2.74-2.93c-2.78-1.6-5.79,1.07-5.8,5.24a5.56,5.56,0,0,0,2.5,4.45,3,3,0,0,0,3.56-.42,4.8,4.8,0,0,0,2.39,3.85" transform="translate(-15.45 -9.74)"/><path class="cls-16" d="M185.7,149.54c4.21,2.43,7.49,7.35,7.48,11.79,0,3.44-2,6.27-5.23,4.42a4.8,4.8,0,0,1-2.39-3.85,3,3,0,0,1-3.56.42,5.56,5.56,0,0,1-2.5-4.45c0-4.17,3-6.84,5.8-5.24a6.52,6.52,0,0,1,2.74,2.93,3.28,3.28,0,0,1,1.76,2.37c0,.88-1.52,3.41-1.52,5.34a1.13,1.13,0,0,0,.51,1c1.54.89,2.67-1.33,2.67-4.06,0-3.34-2.52-6.92-5.76-8.78-5.49-3.17-8.48-.06-8.49,4.51,0,3,1.79,5.54,4.59,7.16a4,4,0,0,0,2.4.56,1.16,1.16,0,0,1,.38.09.56.56,0,0,1,.23.52c0,.37-1.76,1.52-3.73.38-3.17-1.83-6-5.71-6-9.85C175.08,149,179.42,145.91,185.7,149.54Zm-2.4,11.32c1.2.69,3.42-2.28,3.42-4.48a2,2,0,0,0-.91-1.78c-1.46-.84-3.24,2.11-3.25,4.55a1.77,1.77,0,0,0,.74,1.71" transform="translate(-15.45 -9.74)"/><polygon class="cls-1" points="206.76 165.75 206.61 216.61 170.05 170.03 195.05 167.12 206.76 165.75"/><polygon class="cls-3" points="195.1 151.13 206.76 165.75 195.08 159.01 195.1 151.13"/><polygon class="cls-3" points="195.08 159.01 206.76 165.75 195.05 167.12 195.08 159.01"/></g><polygon class="cls-3" points="144.35 137.29 133.48 123.44 144.37 129.73 144.35 137.29"/><line class="cls-20" x1="113.3" y1="48.26" x2="113.3" y2="58.46"/><line class="cls-20" x1="118.8" y1="50.2" x2="118.8" y2="56.63"/><line class="cls-20" x1="154.05" y1="62.62" x2="154.05" y2="77.01"/><line class="cls-20" x1="159.62" y1="69.81" x2="159.62" y2="84.01"/><line class="cls-20" x1="294.05" y1="90.18" x2="294.05" y2="130.37"/><line class="cls-20" x1="286.8" y1="90.18" x2="286.8" y2="100.26"/><line class="cls-20" x1="286.8" y1="106.28" x2="286.8" y2="119.55"/><line class="cls-20" x1="186.3" y1="74.61" x2="186.3" y2="98.76"/><line class="cls-20" x1="191.55" y1="79.45" x2="191.55" y2="90.18"/><line class="cls-20" x1="277.05" y1="180.51" x2="277.05" y2="205.8"/><line class="cls-20" x1="283.3" y1="193.15" x2="283.3" y2="215.87"/><line class="cls-20" x1="310.77" y1="188.31" x2="310.77" y2="201.96"/><line class="cls-20" x1="256.63" y1="69.81" x2="256.63" y2="96.26"/><line class="cls-20" x1="224.8" y1="106.28" x2="224.8" y2="118.51"/></svg>