<svg xmlns="http://www.w3.org/2000/svg" xmlns:xlink="http://www.w3.org/1999/xlink" viewBox="0 0 464.04 378.95"><defs><style>.cls-1{fill:none;}.cls-2{fill:#e6faff;}.cls-3{fill:#d1e6ed;}.cls-4{fill:#7ca9bf;}.cls-5{fill:#95c5d1;}.cls-6{fill:#a6c6dd;}.cls-7{fill:#7da3db;}.cls-8{fill:#6a8fba;}.cls-9{fill:#9ccaef;}.cls-10{fill:#6691c4;}.cls-11{fill:#f6fbff;}.cls-12{fill:#507ca0;}.cls-13{fill:#5e8ab5;}.cls-14{fill:#294154;}.cls-15{fill:#395877;}.cls-16{fill:#35526d;}.cls-17{fill:#44668e;}.cls-18{fill:#3b5a7a;}.cls-19{fill:#de976d;}.cls-20{fill:#624638;}.cls-21{fill:#bfd8ef;}.cls-22{fill:#8fcdef;}.cls-23{fill:#71b5d3;}.cls-24{fill:#c2ecff;}.cls-25{fill:#f8ffff;}.cls-26{fill:#f3f3f3;}.cls-27{clip-path:url(#clip-path);}.cls-28{fill:#ac6f8e;}.cls-29{fill:#f0cad4;}.cls-30{fill:#b9a197;}.cls-31{fill:#c4c4c4;}.cls-32{fill:#e695ae;}.cls-33{fill:#98c0ef;}.cls-34{fill:#eaad59;}.cls-35{fill:#b687f2;}.cls-36{clip-path:url(#clip-path-2);}.cls-37{clip-path:url(#clip-path-3);}.cls-38{fill:#726e8b;}.cls-39{fill:#8c7866;}.cls-40{clip-path:url(#clip-path-4);}.cls-41{clip-path:url(#clip-path-5);}.cls-42{fill:#8671c6;}.cls-43{fill:#7163a8;}.cls-44{fill:#5c5293;}.cls-45{fill:#d4f2ff;opacity:0.6;}.cls-46{opacity:0.8;}.cls-47{fill:#fff;}.cls-48{fill:#7d7d7d;}.cls-49{fill:#999;}.cls-50{fill:#cc8244;}.cls-51{fill:#edb158;}.cls-52{clip-path:url(#clip-path-6);}.cls-53{clip-path:url(#clip-path-7);}.cls-54{clip-path:url(#clip-path-8);}</style><clipPath id="clip-path" transform="translate(-10.28 -7.43)"><ellipse class="cls-1" cx="204.02" cy="64.44" rx="9.85" ry="17.07" transform="translate(-4.74 111.32) rotate(-30.18)"/></clipPath><clipPath id="clip-path-2" transform="translate(-10.28 -7.43)"><ellipse class="cls-1" cx="318.97" cy="130.83" rx="9.85" ry="17.07" transform="translate(-22.53 178.12) rotate(-30.19)"/></clipPath><clipPath id="clip-path-3" transform="translate(-10.28 -7.43)"><ellipse class="cls-1" cx="221.6" cy="90.53" rx="9.85" ry="17.07" transform="translate(-15.47 123.7) rotate(-30.18)"/></clipPath><clipPath id="clip-path-4" transform="translate(-10.28 -7.43)"><ellipse class="cls-1" cx="277.02" cy="122.55" rx="9.85" ry="17.07" transform="translate(-24.05 155.9) rotate(-30.18)"/></clipPath><clipPath id="clip-path-5" transform="translate(-10.28 -7.43)"><ellipse class="cls-1" cx="235.39" cy="114.57" rx="9.85" ry="17.07" transform="translate(-25.69 133.88) rotate(-30.19)"/></clipPath><clipPath id="clip-path-6" transform="translate(-10.28 -7.43)"><polygon class="cls-1" points="246.08 315.01 230.1 305.79 246.08 296.56 262.06 305.79 246.08 315.01"/></clipPath><clipPath id="clip-path-7" transform="translate(-10.28 -7.43)"><polygon class="cls-1" points="246.08 304.19 230.1 294.97 246.08 285.75 262.06 294.97 246.08 304.19"/></clipPath><clipPath id="clip-path-8" transform="translate(-10.28 -7.43)"><polygon class="cls-1" points="246.08 293.38 230.1 284.15 246.08 274.93 262.06 284.15 246.08 293.38"/></clipPath></defs><title>IPA-Grou-Service-Inbound-Marketing</title><g id="OBJECTS"><polygon class="cls-2" points="255.16 378.95 464.04 258.18 208.88 110.55 0 231.32 255.16 378.95"/><polygon class="cls-3" points="255.16 357.12 464.04 236.35 208.88 88.72 0 209.49 255.16 357.12"/><polygon class="cls-4" points="255.16 357.12 255.16 361.27 464.04 240.49 464.04 236.35 255.16 357.12"/><polygon class="cls-5" points="255.16 361.27 0 213.64 0 209.49 255.16 357.12 255.16 361.27"/><polygon class="cls-6" points="101 176.1 244.12 258.73 339.53 203.65 196.41 121.01 101 176.1"/><polygon class="cls-7" points="101 159.62 244.12 242.25 339.53 187.17 196.41 104.54 101 159.62"/><polygon class="cls-8" points="244.12 243.81 244.12 242.25 339.53 187.17 339.53 188.72 244.12 243.81"/><path class="cls-9" d="M342.63,80.62,217.34,8.42a7.33,7.33,0,0,0-11,6.35v97.49l140.82,81.15.85,2.26,1.59-.85V92.69A13.93,13.93,0,0,0,342.63,80.62Z" transform="translate(-10.28 -7.43)"/><polygon class="cls-8" points="244.12 243.81 101 161.18 101 159.62 244.12 242.25 244.12 243.81"/><path class="cls-10" d="M348,195.67,204.76,113.11V15.62a7.33,7.33,0,0,1,11-6.35L341,81.47a13.93,13.93,0,0,1,7,12.07Z" transform="translate(-10.28 -7.43)"/><polygon class="cls-11" points="332.49 181.37 199.74 104.86 199.74 5.4 332.49 81.9 332.49 181.37"/><path class="cls-12" d="M212.78,131.77l-9-5.24c-.4-.23-.3-.66.22-1l3.94-2.27a1.91,1.91,0,0,1,1.68-.13l9,5.24c.41.23.3.66-.22,1l-3.93,2.27A1.93,1.93,0,0,1,212.78,131.77Z" transform="translate(-10.28 -7.43)"/><path class="cls-12" d="M224.14,138.33l-9-5.23c-.4-.23-.3-.67.23-1l3.93-2.27a1.91,1.91,0,0,1,1.68-.13l9,5.24c.4.23.3.66-.23,1l-3.93,2.27A1.88,1.88,0,0,1,224.14,138.33Z" transform="translate(-10.28 -7.43)"/><path class="cls-12" d="M235.49,144.9l-9-5.23c-.4-.23-.3-.67.22-1l3.94-2.27a1.91,1.91,0,0,1,1.68-.13l9,5.23c.41.24.3.67-.22,1l-3.94,2.26A1.85,1.85,0,0,1,235.49,144.9Z" transform="translate(-10.28 -7.43)"/><path class="cls-12" d="M246.85,151.47l-9-5.23c-.4-.23-.3-.67.23-1L242,143a1.91,1.91,0,0,1,1.68-.13l9.05,5.23c.4.24.3.67-.23,1l-3.93,2.27A1.88,1.88,0,0,1,246.85,151.47Z" transform="translate(-10.28 -7.43)"/><path class="cls-12" d="M258.2,158l-9-5.23c-.41-.24-.3-.67.22-1l3.94-2.27a1.88,1.88,0,0,1,1.68-.13l9,5.23c.4.23.3.67-.22,1l-3.94,2.27A1.91,1.91,0,0,1,258.2,158Z" transform="translate(-10.28 -7.43)"/><path class="cls-12" d="M269.56,164.61l-9.05-5.23c-.4-.24-.3-.67.23-1l3.93-2.26a1.85,1.85,0,0,1,1.68-.13l9,5.23c.4.23.3.67-.23,1l-3.93,2.27A1.91,1.91,0,0,1,269.56,164.61Z" transform="translate(-10.28 -7.43)"/><path class="cls-12" d="M280.91,171.18l-9.05-5.24c-.4-.23-.3-.66.23-1L276,162.7a1.88,1.88,0,0,1,1.68-.12l9.05,5.23c.4.23.3.67-.22,1l-3.94,2.27A1.91,1.91,0,0,1,280.91,171.18Z" transform="translate(-10.28 -7.43)"/><path class="cls-12" d="M292.27,177.75l-9-5.24c-.4-.23-.3-.66.23-1l3.93-2.27a1.91,1.91,0,0,1,1.68-.13l9.05,5.24c.4.23.3.66-.23,1L294,177.62A1.91,1.91,0,0,1,292.27,177.75Z" transform="translate(-10.28 -7.43)"/><path class="cls-12" d="M303.62,184.31l-9.05-5.23c-.4-.23-.3-.67.23-1l3.93-2.27a1.91,1.91,0,0,1,1.68-.13l9,5.24c.4.23.3.66-.23,1l-3.93,2.27A1.88,1.88,0,0,1,303.62,184.31Z" transform="translate(-10.28 -7.43)"/><path class="cls-12" d="M315,190.88l-9-5.23c-.4-.23-.3-.67.22-1l3.94-2.27a1.91,1.91,0,0,1,1.68-.13l9,5.23c.41.24.31.67-.22,1l-3.93,2.26A1.87,1.87,0,0,1,315,190.88Z" transform="translate(-10.28 -7.43)"/><path class="cls-12" d="M326.33,197.45l-9.05-5.23c-.4-.23-.3-.67.23-1l3.93-2.27a1.91,1.91,0,0,1,1.68-.13l9.05,5.23c.4.24.3.67-.23,1L328,197.32A1.88,1.88,0,0,1,326.33,197.45Z" transform="translate(-10.28 -7.43)"/><path class="cls-12" d="M202.57,137.46l-8.7-5c-.5-.29-.37-.83.28-1.21l6.64-3.83a2.39,2.39,0,0,1,2.08-.16l8.7,5c.5.29.37.83-.28,1.21l-6.63,3.83A2.41,2.41,0,0,1,202.57,137.46Z" transform="translate(-10.28 -7.43)"/><path class="cls-12" d="M213.92,144l-8.69-5c-.5-.28-.38-.82.28-1.2l6.63-3.83a2.38,2.38,0,0,1,2.09-.16l8.69,5c.5.29.38.83-.28,1.21L216,143.86A2.34,2.34,0,0,1,213.92,144Z" transform="translate(-10.28 -7.43)"/><path class="cls-12" d="M225.28,150.59l-8.7-5c-.5-.29-.37-.83.28-1.2l6.64-3.83a2.32,2.32,0,0,1,2.08-.16l8.7,5c.5.29.37.83-.28,1.21l-6.64,3.82A2.32,2.32,0,0,1,225.28,150.59Z" transform="translate(-10.28 -7.43)"/><path class="cls-12" d="M236.63,157.16l-8.69-5c-.5-.29-.38-.83.28-1.2l6.63-3.83a2.34,2.34,0,0,1,2.09-.16l8.69,5c.5.29.37.83-.28,1.21L238.72,157A2.34,2.34,0,0,1,236.63,157.16Z" transform="translate(-10.28 -7.43)"/><path class="cls-12" d="M248,163.73l-8.7-5c-.5-.29-.37-.83.28-1.21l6.63-3.82a2.34,2.34,0,0,1,2.09-.16l8.7,5c.49.29.37.83-.29,1.2l-6.63,3.83A2.32,2.32,0,0,1,248,163.73Z" transform="translate(-10.28 -7.43)"/><path class="cls-12" d="M259.34,170.3l-8.69-5c-.5-.29-.38-.83.28-1.21l6.63-3.82a2.32,2.32,0,0,1,2.08-.16l8.7,5c.5.29.37.83-.28,1.2l-6.63,3.83A2.38,2.38,0,0,1,259.34,170.3Z" transform="translate(-10.28 -7.43)"/><path class="cls-12" d="M270.7,176.87l-8.7-5c-.5-.29-.37-.83.28-1.21l6.63-3.82a2.34,2.34,0,0,1,2.09-.16l8.69,5c.5.28.38.82-.28,1.2l-6.63,3.83A2.36,2.36,0,0,1,270.7,176.87Z" transform="translate(-10.28 -7.43)"/><path class="cls-12" d="M282.05,183.44l-8.7-5c-.49-.29-.37-.83.29-1.21l6.63-3.82a2.36,2.36,0,0,1,2.08-.17l8.7,5c.5.28.37.82-.28,1.2l-6.63,3.83A2.41,2.41,0,0,1,282.05,183.44Z" transform="translate(-10.28 -7.43)"/><path class="cls-12" d="M293.4,190l-8.69-5c-.5-.28-.37-.82.28-1.2l6.63-3.83a2.38,2.38,0,0,1,2.09-.16l8.69,5c.5.29.38.83-.28,1.21l-6.63,3.82A2.34,2.34,0,0,1,293.4,190Z" transform="translate(-10.28 -7.43)"/><path class="cls-12" d="M304.76,196.57l-8.7-5c-.5-.29-.37-.83.28-1.2l6.64-3.83a2.35,2.35,0,0,1,2.08-.16l8.7,5c.5.29.37.83-.28,1.21l-6.63,3.82A2.34,2.34,0,0,1,304.76,196.57Z" transform="translate(-10.28 -7.43)"/><path class="cls-12" d="M316.11,203.14l-8.69-5c-.5-.29-.37-.83.28-1.2l6.63-3.83a2.34,2.34,0,0,1,2.09-.16l8.69,5c.5.29.38.83-.28,1.21L318.2,203A2.34,2.34,0,0,1,316.11,203.14Z" transform="translate(-10.28 -7.43)"/><path class="cls-12" d="M192.53,143.25l-8.7-5c-.5-.29-.37-.83.28-1.21l6.64-3.82a2.32,2.32,0,0,1,2.08-.16l8.7,5c.5.28.37.82-.28,1.2l-6.64,3.83A2.39,2.39,0,0,1,192.53,143.25Z" transform="translate(-10.28 -7.43)"/><path class="cls-12" d="M203.88,149.82l-8.69-5c-.5-.28-.38-.82.28-1.2l6.63-3.83a2.41,2.41,0,0,1,2.09-.16l8.69,5c.5.29.37.83-.28,1.21L206,149.65A2.38,2.38,0,0,1,203.88,149.82Z" transform="translate(-10.28 -7.43)"/><path class="cls-12" d="M215.24,156.38l-8.7-5c-.5-.28-.37-.82.28-1.2l6.63-3.83a2.38,2.38,0,0,1,2.09-.16l8.7,5c.5.29.37.83-.28,1.21l-6.64,3.82A2.32,2.32,0,0,1,215.24,156.38Z" transform="translate(-10.28 -7.43)"/><path class="cls-12" d="M226.59,163l-8.69-5c-.5-.29-.38-.83.28-1.2l6.63-3.83a2.34,2.34,0,0,1,2.09-.16l8.69,5c.5.29.37.83-.28,1.21l-6.63,3.82A2.34,2.34,0,0,1,226.59,163Z" transform="translate(-10.28 -7.43)"/><path class="cls-12" d="M238,169.52l-8.7-5c-.5-.29-.37-.83.28-1.2l6.63-3.83a2.34,2.34,0,0,1,2.09-.16l8.7,5c.49.29.37.83-.29,1.21L240,169.36A2.32,2.32,0,0,1,238,169.52Z" transform="translate(-10.28 -7.43)"/><path class="cls-12" d="M249.3,176.09l-8.7-5c-.49-.29-.37-.83.29-1.21l6.63-3.82a2.32,2.32,0,0,1,2.08-.16l8.7,5c.5.29.37.83-.28,1.2l-6.63,3.83A2.34,2.34,0,0,1,249.3,176.09Z" transform="translate(-10.28 -7.43)"/><path class="cls-12" d="M260.66,182.66l-8.7-5c-.5-.29-.37-.83.28-1.21l6.63-3.82a2.34,2.34,0,0,1,2.09-.16l8.69,5c.5.29.38.83-.28,1.2l-6.63,3.83A2.36,2.36,0,0,1,260.66,182.66Z" transform="translate(-10.28 -7.43)"/><path class="cls-12" d="M272,189.23l-8.7-5c-.49-.29-.37-.83.28-1.21l6.64-3.82a2.32,2.32,0,0,1,2.08-.16l8.7,5c.5.28.37.82-.28,1.2l-6.63,3.83A2.38,2.38,0,0,1,272,189.23Z" transform="translate(-10.28 -7.43)"/><path class="cls-12" d="M283.36,195.8l-8.69-5c-.5-.28-.37-.82.28-1.2l6.63-3.82a2.38,2.38,0,0,1,2.09-.17l8.69,5c.5.29.38.83-.28,1.21l-6.63,3.82A2.38,2.38,0,0,1,283.36,195.8Z" transform="translate(-10.28 -7.43)"/><path class="cls-12" d="M294.72,202.36l-8.7-5c-.5-.28-.37-.82.28-1.2l6.64-3.83a2.35,2.35,0,0,1,2.08-.16l8.7,5c.5.29.37.83-.28,1.21l-6.64,3.82A2.32,2.32,0,0,1,294.72,202.36Z" transform="translate(-10.28 -7.43)"/><path class="cls-12" d="M306.07,208.93l-8.69-5c-.5-.29-.38-.83.28-1.2l6.63-3.83a2.38,2.38,0,0,1,2.09-.16l8.69,5c.5.29.38.83-.28,1.21l-6.63,3.82A2.34,2.34,0,0,1,306.07,208.93Z" transform="translate(-10.28 -7.43)"/><path class="cls-12" d="M182.49,149l-8.7-5c-.5-.29-.37-.83.28-1.21l6.64-3.82a2.32,2.32,0,0,1,2.08-.16l8.7,5c.5.29.37.83-.28,1.2l-6.64,3.83A2.35,2.35,0,0,1,182.49,149Z" transform="translate(-10.28 -7.43)"/><path class="cls-12" d="M193.84,155.61l-8.69-5c-.5-.29-.38-.83.28-1.21l6.63-3.82a2.34,2.34,0,0,1,2.09-.16l8.69,5c.5.28.37.82-.28,1.2l-6.63,3.83A2.41,2.41,0,0,1,193.84,155.61Z" transform="translate(-10.28 -7.43)"/><path class="cls-12" d="M205.2,162.17l-8.7-5c-.5-.28-.37-.82.28-1.2l6.63-3.83a2.41,2.41,0,0,1,2.09-.16l8.7,5c.49.29.37.83-.28,1.21L207.28,162A2.32,2.32,0,0,1,205.2,162.17Z" transform="translate(-10.28 -7.43)"/><path class="cls-12" d="M216.55,168.74l-8.69-5c-.5-.29-.38-.82.28-1.2l6.63-3.83a2.38,2.38,0,0,1,2.09-.16l8.69,5c.5.29.37.83-.28,1.21l-6.63,3.82A2.34,2.34,0,0,1,216.55,168.74Z" transform="translate(-10.28 -7.43)"/><path class="cls-12" d="M227.91,175.31l-8.7-5c-.5-.29-.37-.83.28-1.2l6.63-3.83a2.34,2.34,0,0,1,2.09-.16l8.7,5c.49.29.37.83-.29,1.21L230,175.15A2.32,2.32,0,0,1,227.91,175.31Z" transform="translate(-10.28 -7.43)"/><path class="cls-12" d="M239.26,181.88l-8.7-5c-.49-.29-.37-.83.29-1.2l6.63-3.83a2.32,2.32,0,0,1,2.08-.16l8.7,5c.5.29.37.83-.28,1.21l-6.63,3.82A2.34,2.34,0,0,1,239.26,181.88Z" transform="translate(-10.28 -7.43)"/><path class="cls-12" d="M250.61,188.45l-8.69-5c-.5-.29-.37-.83.28-1.21l6.63-3.82a2.34,2.34,0,0,1,2.09-.16l8.69,5c.5.29.38.83-.28,1.2l-6.63,3.83A2.34,2.34,0,0,1,250.61,188.45Z" transform="translate(-10.28 -7.43)"/><path class="cls-12" d="M262,195l-8.7-5c-.5-.29-.37-.83.28-1.21l6.64-3.82a2.32,2.32,0,0,1,2.08-.16l8.7,5c.5.29.37.83-.28,1.2l-6.63,3.83A2.38,2.38,0,0,1,262,195Z" transform="translate(-10.28 -7.43)"/><path class="cls-12" d="M273.32,201.59l-8.69-5c-.5-.29-.37-.83.28-1.21l6.63-3.82a2.34,2.34,0,0,1,2.09-.16l8.69,5c.5.28.38.82-.28,1.2l-6.63,3.83A2.38,2.38,0,0,1,273.32,201.59Z" transform="translate(-10.28 -7.43)"/><path class="cls-12" d="M284.68,208.16l-8.7-5c-.5-.28-.37-.82.28-1.2l6.64-3.83a2.39,2.39,0,0,1,2.08-.16l8.7,5c.5.29.37.83-.28,1.21L286.76,208A2.36,2.36,0,0,1,284.68,208.16Z" transform="translate(-10.28 -7.43)"/><path class="cls-12" d="M296,214.72l-8.69-5c-.5-.29-.38-.82.28-1.2l6.63-3.83a2.38,2.38,0,0,1,2.09-.16l8.69,5c.5.29.37.83-.28,1.21l-6.63,3.82A2.34,2.34,0,0,1,296,214.72Z" transform="translate(-10.28 -7.43)"/><path class="cls-12" d="M172.45,154.83l-8.7-5c-.5-.29-.37-.83.28-1.21l6.63-3.82a2.34,2.34,0,0,1,2.09-.16l8.7,5c.5.29.37.83-.28,1.2l-6.64,3.83A2.32,2.32,0,0,1,172.45,154.83Z" transform="translate(-10.28 -7.43)"/><path class="cls-12" d="M183.8,161.4l-8.69-5c-.5-.29-.38-.83.28-1.21l6.63-3.82a2.34,2.34,0,0,1,2.09-.16l8.69,5c.5.29.37.82-.28,1.2l-6.63,3.83A2.38,2.38,0,0,1,183.8,161.4Z" transform="translate(-10.28 -7.43)"/><path class="cls-12" d="M195.16,168l-8.7-5c-.5-.29-.37-.83.28-1.21l6.63-3.82a2.34,2.34,0,0,1,2.09-.16l8.7,5c.49.28.37.82-.29,1.2l-6.63,3.83A2.39,2.39,0,0,1,195.16,168Z" transform="translate(-10.28 -7.43)"/><path class="cls-12" d="M206.51,174.53l-8.69-5c-.5-.28-.38-.82.28-1.2l6.63-3.83a2.39,2.39,0,0,1,2.08-.16l8.7,5c.5.29.37.83-.28,1.21l-6.63,3.82A2.34,2.34,0,0,1,206.51,174.53Z" transform="translate(-10.28 -7.43)"/><path class="cls-12" d="M217.87,181.1l-8.7-5c-.5-.29-.37-.83.28-1.2l6.63-3.83a2.38,2.38,0,0,1,2.09-.16l8.69,5c.5.29.38.83-.28,1.21L220,180.94A2.32,2.32,0,0,1,217.87,181.1Z" transform="translate(-10.28 -7.43)"/><path class="cls-12" d="M229.22,187.67l-8.7-5c-.49-.29-.37-.83.29-1.2l6.63-3.83a2.32,2.32,0,0,1,2.08-.16l8.7,5c.5.29.37.83-.28,1.21l-6.63,3.82A2.34,2.34,0,0,1,229.22,187.67Z" transform="translate(-10.28 -7.43)"/><path class="cls-12" d="M240.57,194.24l-8.69-5c-.5-.29-.37-.83.28-1.2l6.63-3.83a2.34,2.34,0,0,1,2.09-.16l8.69,5c.5.29.38.83-.28,1.2l-6.63,3.83A2.34,2.34,0,0,1,240.57,194.24Z" transform="translate(-10.28 -7.43)"/><path class="cls-12" d="M251.93,200.81l-8.7-5c-.5-.29-.37-.83.28-1.21l6.64-3.82a2.32,2.32,0,0,1,2.08-.16l8.7,5c.5.29.37.83-.28,1.2L254,200.65A2.34,2.34,0,0,1,251.93,200.81Z" transform="translate(-10.28 -7.43)"/><path class="cls-12" d="M263.28,207.38l-8.69-5c-.5-.29-.38-.83.28-1.21l6.63-3.82a2.34,2.34,0,0,1,2.09-.16l8.69,5c.5.29.38.82-.28,1.2l-6.63,3.83A2.38,2.38,0,0,1,263.28,207.38Z" transform="translate(-10.28 -7.43)"/><path class="cls-12" d="M274.64,214l-8.7-5c-.5-.29-.37-.83.28-1.21l6.63-3.82a2.34,2.34,0,0,1,2.09-.16l8.7,5c.5.28.37.82-.28,1.2l-6.64,3.83A2.35,2.35,0,0,1,274.64,214Z" transform="translate(-10.28 -7.43)"/><path class="cls-12" d="M286,220.52l-8.69-5c-.5-.28-.38-.82.28-1.2l6.63-3.83a2.41,2.41,0,0,1,2.09-.16l8.69,5c.5.29.37.83-.28,1.21l-6.63,3.82A2.38,2.38,0,0,1,286,220.52Z" transform="translate(-10.28 -7.43)"/><path class="cls-12" d="M162.41,160.62l-8.7-5c-.5-.29-.37-.83.28-1.21l6.63-3.82a2.34,2.34,0,0,1,2.09-.16l8.7,5c.49.29.37.83-.28,1.2l-6.64,3.83A2.32,2.32,0,0,1,162.41,160.62Z" transform="translate(-10.28 -7.43)"/><path class="cls-12" d="M173.76,167.19l-8.69-5c-.5-.29-.38-.83.28-1.21l6.63-3.82a2.34,2.34,0,0,1,2.09-.16l8.69,5c.5.29.37.83-.28,1.2L175.85,167A2.34,2.34,0,0,1,173.76,167.19Z" transform="translate(-10.28 -7.43)"/><path class="cls-12" d="M185.12,173.76l-8.7-5c-.5-.29-.37-.83.28-1.21l6.63-3.82a2.34,2.34,0,0,1,2.09-.16l8.7,5c.49.28.37.82-.29,1.2l-6.63,3.83A2.36,2.36,0,0,1,185.12,173.76Z" transform="translate(-10.28 -7.43)"/><path class="cls-12" d="M253.09,213.08l-65.17-37.7c-.58-.33-.43-1,.33-1.4l6.24-3.6a2.76,2.76,0,0,1,2.43-.19l65.17,37.7c.58.34.44,1-.33,1.41l-6.23,3.6A2.77,2.77,0,0,1,253.09,213.08Z" transform="translate(-10.28 -7.43)"/><path class="cls-12" d="M264.6,219.74l-8.7-5c-.5-.29-.37-.83.28-1.21l6.63-3.82a2.34,2.34,0,0,1,2.09-.16l8.7,5c.5.29.37.82-.28,1.2l-6.64,3.83A2.35,2.35,0,0,1,264.6,219.74Z" transform="translate(-10.28 -7.43)"/><path class="cls-12" d="M276,226.31l-8.69-5c-.5-.29-.38-.83.28-1.21l6.63-3.82a2.34,2.34,0,0,1,2.09-.16l8.69,5c.5.28.37.82-.28,1.2L278,226.15A2.41,2.41,0,0,1,276,226.31Z" transform="translate(-10.28 -7.43)"/><path class="cls-13" d="M212.78,131.48l-9-5.24c-.4-.23-.3-.66.22-1L207.9,123a1.91,1.91,0,0,1,1.68-.13l9,5.24c.41.23.3.66-.22,1l-3.93,2.27A1.93,1.93,0,0,1,212.78,131.48Z" transform="translate(-10.28 -7.43)"/><path class="cls-13" d="M224.14,138l-9-5.23c-.4-.23-.3-.67.23-1l3.93-2.27a1.91,1.91,0,0,1,1.68-.13l9,5.24c.4.23.3.66-.23,1l-3.93,2.27A1.88,1.88,0,0,1,224.14,138Z" transform="translate(-10.28 -7.43)"/><path class="cls-13" d="M235.49,144.61l-9-5.23c-.4-.23-.3-.67.22-1l3.94-2.27a1.91,1.91,0,0,1,1.68-.13l9,5.23c.41.24.3.67-.22,1l-3.94,2.26A1.85,1.85,0,0,1,235.49,144.61Z" transform="translate(-10.28 -7.43)"/><path class="cls-13" d="M246.85,151.18l-9-5.23c-.4-.23-.3-.67.23-1l3.93-2.27a1.91,1.91,0,0,1,1.68-.13l9.05,5.23c.4.24.3.67-.23,1l-3.93,2.27A1.88,1.88,0,0,1,246.85,151.18Z" transform="translate(-10.28 -7.43)"/><path class="cls-13" d="M258.2,157.75l-9-5.23c-.41-.24-.3-.67.22-1l3.94-2.27a1.88,1.88,0,0,1,1.68-.13l9,5.23c.4.23.3.67-.22,1l-3.94,2.27A1.91,1.91,0,0,1,258.2,157.75Z" transform="translate(-10.28 -7.43)"/><path class="cls-13" d="M269.56,164.32l-9.05-5.23c-.4-.24-.3-.67.23-1l3.93-2.26a1.85,1.85,0,0,1,1.68-.13l9,5.23c.4.23.3.67-.23,1l-3.93,2.27A1.91,1.91,0,0,1,269.56,164.32Z" transform="translate(-10.28 -7.43)"/><path class="cls-13" d="M280.91,170.89l-9.05-5.24c-.4-.23-.3-.66.23-1l3.93-2.27a1.88,1.88,0,0,1,1.68-.12l9.05,5.23c.4.23.3.67-.22,1l-3.94,2.27A1.91,1.91,0,0,1,280.91,170.89Z" transform="translate(-10.28 -7.43)"/><path class="cls-13" d="M292.27,177.46l-9-5.24c-.4-.23-.3-.66.23-1l3.93-2.27a1.91,1.91,0,0,1,1.68-.13l9.05,5.24c.4.23.3.66-.23,1L294,177.33A1.91,1.91,0,0,1,292.27,177.46Z" transform="translate(-10.28 -7.43)"/><path class="cls-13" d="M303.62,184l-9.05-5.23c-.4-.23-.3-.67.23-1l3.93-2.27a1.91,1.91,0,0,1,1.68-.13l9,5.24c.4.23.3.66-.23,1l-3.93,2.27A1.88,1.88,0,0,1,303.62,184Z" transform="translate(-10.28 -7.43)"/><path class="cls-13" d="M315,190.59l-9-5.23c-.4-.23-.3-.67.22-1l3.94-2.27a1.91,1.91,0,0,1,1.68-.13l9,5.23c.41.24.31.67-.22,1l-3.93,2.26A1.87,1.87,0,0,1,315,190.59Z" transform="translate(-10.28 -7.43)"/><path class="cls-13" d="M326.33,197.16l-9.05-5.23c-.4-.23-.3-.67.23-1l3.93-2.27a1.91,1.91,0,0,1,1.68-.13l9.05,5.23c.4.24.3.67-.23,1L328,197A1.88,1.88,0,0,1,326.33,197.16Z" transform="translate(-10.28 -7.43)"/><path class="cls-13" d="M202.57,137.17l-8.7-5c-.5-.29-.37-.83.28-1.21l6.64-3.83a2.39,2.39,0,0,1,2.08-.16l8.7,5c.5.29.37.83-.28,1.21L204.66,137A2.38,2.38,0,0,1,202.57,137.17Z" transform="translate(-10.28 -7.43)"/><path class="cls-13" d="M213.92,143.73l-8.69-5c-.5-.28-.38-.82.28-1.2l6.63-3.83a2.38,2.38,0,0,1,2.09-.16l8.69,5c.5.29.38.83-.28,1.21L216,143.57A2.34,2.34,0,0,1,213.92,143.73Z" transform="translate(-10.28 -7.43)"/><path class="cls-13" d="M225.28,150.3l-8.7-5c-.5-.29-.37-.83.28-1.2l6.64-3.83a2.32,2.32,0,0,1,2.08-.16l8.7,5c.5.29.37.83-.28,1.21l-6.64,3.82A2.32,2.32,0,0,1,225.28,150.3Z" transform="translate(-10.28 -7.43)"/><path class="cls-13" d="M236.63,156.87l-8.69-5c-.5-.29-.38-.83.28-1.2l6.63-3.83a2.34,2.34,0,0,1,2.09-.16l8.69,5c.5.29.37.83-.28,1.21l-6.63,3.82A2.34,2.34,0,0,1,236.63,156.87Z" transform="translate(-10.28 -7.43)"/><path class="cls-13" d="M248,163.44l-8.7-5c-.5-.29-.37-.83.28-1.21l6.63-3.82a2.34,2.34,0,0,1,2.09-.16l8.7,5c.49.29.37.83-.29,1.2l-6.63,3.83A2.32,2.32,0,0,1,248,163.44Z" transform="translate(-10.28 -7.43)"/><path class="cls-13" d="M259.34,170l-8.69-5c-.5-.29-.38-.83.28-1.21l6.63-3.82a2.32,2.32,0,0,1,2.08-.16l8.7,5c.5.29.37.83-.28,1.2l-6.63,3.83A2.38,2.38,0,0,1,259.34,170Z" transform="translate(-10.28 -7.43)"/><path class="cls-13" d="M270.7,176.58l-8.7-5c-.5-.29-.37-.83.28-1.21l6.63-3.82a2.34,2.34,0,0,1,2.09-.16l8.69,5c.5.28.38.82-.28,1.2l-6.63,3.83A2.36,2.36,0,0,1,270.7,176.58Z" transform="translate(-10.28 -7.43)"/><path class="cls-13" d="M282.05,183.15l-8.7-5c-.49-.28-.37-.82.29-1.2l6.63-3.82a2.36,2.36,0,0,1,2.08-.17l8.7,5c.5.28.37.82-.28,1.2L284.14,183A2.41,2.41,0,0,1,282.05,183.15Z" transform="translate(-10.28 -7.43)"/><path class="cls-13" d="M293.4,189.71l-8.69-5c-.5-.28-.37-.82.28-1.2l6.63-3.83a2.38,2.38,0,0,1,2.09-.16l8.69,5c.5.29.38.83-.28,1.21l-6.63,3.82A2.34,2.34,0,0,1,293.4,189.71Z" transform="translate(-10.28 -7.43)"/><path class="cls-13" d="M304.76,196.28l-8.7-5c-.5-.29-.37-.83.28-1.2l6.64-3.83a2.35,2.35,0,0,1,2.08-.16l8.7,5c.5.29.37.83-.28,1.21l-6.63,3.82A2.34,2.34,0,0,1,304.76,196.28Z" transform="translate(-10.28 -7.43)"/><path class="cls-13" d="M316.11,202.85l-8.69-5c-.5-.29-.37-.83.28-1.2l6.63-3.83a2.34,2.34,0,0,1,2.09-.16l8.69,5c.5.29.38.83-.28,1.21l-6.63,3.82A2.34,2.34,0,0,1,316.11,202.85Z" transform="translate(-10.28 -7.43)"/><path class="cls-13" d="M192.53,143l-8.7-5c-.5-.29-.37-.83.28-1.21l6.64-3.82a2.32,2.32,0,0,1,2.08-.16l8.7,5c.5.28.37.82-.28,1.2l-6.64,3.83A2.39,2.39,0,0,1,192.53,143Z" transform="translate(-10.28 -7.43)"/><path class="cls-13" d="M203.88,149.53l-8.69-5c-.5-.28-.38-.82.28-1.2l6.63-3.83a2.41,2.41,0,0,1,2.09-.16l8.69,5c.5.29.37.83-.28,1.21L206,149.36A2.38,2.38,0,0,1,203.88,149.53Z" transform="translate(-10.28 -7.43)"/><path class="cls-13" d="M215.24,156.09l-8.7-5c-.5-.29-.37-.82.28-1.2l6.63-3.83a2.38,2.38,0,0,1,2.09-.16l8.7,5c.5.29.37.83-.28,1.21l-6.64,3.82A2.32,2.32,0,0,1,215.24,156.09Z" transform="translate(-10.28 -7.43)"/><path class="cls-13" d="M226.59,162.66l-8.69-5c-.5-.29-.38-.83.28-1.2l6.63-3.83a2.34,2.34,0,0,1,2.09-.16l8.69,5c.5.29.37.83-.28,1.21l-6.63,3.82A2.34,2.34,0,0,1,226.59,162.66Z" transform="translate(-10.28 -7.43)"/><path class="cls-13" d="M238,169.23l-8.7-5c-.5-.29-.37-.83.28-1.2l6.63-3.83a2.34,2.34,0,0,1,2.09-.16l8.7,5c.49.29.37.83-.29,1.21L240,169.07A2.32,2.32,0,0,1,238,169.23Z" transform="translate(-10.28 -7.43)"/><path class="cls-13" d="M249.3,175.8l-8.7-5c-.49-.29-.37-.83.29-1.21l6.63-3.82a2.32,2.32,0,0,1,2.08-.16l8.7,5c.5.29.37.83-.28,1.2l-6.63,3.83A2.34,2.34,0,0,1,249.3,175.8Z" transform="translate(-10.28 -7.43)"/><path class="cls-13" d="M260.66,182.37l-8.7-5c-.5-.29-.37-.83.28-1.21l6.63-3.82a2.34,2.34,0,0,1,2.09-.16l8.69,5c.5.29.38.83-.28,1.2l-6.63,3.83A2.36,2.36,0,0,1,260.66,182.37Z" transform="translate(-10.28 -7.43)"/><path class="cls-13" d="M272,188.94l-8.7-5c-.49-.29-.37-.83.28-1.21l6.64-3.82a2.32,2.32,0,0,1,2.08-.16l8.7,5c.5.28.37.82-.28,1.2l-6.63,3.83A2.38,2.38,0,0,1,272,188.94Z" transform="translate(-10.28 -7.43)"/><path class="cls-13" d="M283.36,195.51l-8.69-5c-.5-.28-.37-.82.28-1.2l6.63-3.83a2.41,2.41,0,0,1,2.09-.16l8.69,5c.5.29.38.83-.28,1.21l-6.63,3.82A2.38,2.38,0,0,1,283.36,195.51Z" transform="translate(-10.28 -7.43)"/><path class="cls-13" d="M294.72,202.07l-8.7-5c-.5-.29-.37-.82.28-1.2l6.64-3.83a2.35,2.35,0,0,1,2.08-.16l8.7,5c.5.29.37.83-.28,1.21l-6.64,3.82A2.32,2.32,0,0,1,294.72,202.07Z" transform="translate(-10.28 -7.43)"/><path class="cls-13" d="M306.07,208.64l-8.69-5c-.5-.29-.38-.83.28-1.2l6.63-3.83a2.34,2.34,0,0,1,2.09-.16l8.69,5c.5.29.38.83-.28,1.21l-6.63,3.82A2.34,2.34,0,0,1,306.07,208.64Z" transform="translate(-10.28 -7.43)"/><path class="cls-13" d="M182.49,148.75l-8.7-5c-.5-.29-.37-.83.28-1.21l6.64-3.82a2.32,2.32,0,0,1,2.08-.16l8.7,5c.5.29.37.83-.28,1.2l-6.64,3.83A2.35,2.35,0,0,1,182.49,148.75Z" transform="translate(-10.28 -7.43)"/><path class="cls-13" d="M193.84,155.32l-8.69-5c-.5-.29-.38-.83.28-1.21l6.63-3.82a2.34,2.34,0,0,1,2.09-.16l8.69,5c.5.28.37.82-.28,1.2l-6.63,3.83A2.41,2.41,0,0,1,193.84,155.32Z" transform="translate(-10.28 -7.43)"/><path class="cls-13" d="M205.2,161.88l-8.7-5c-.5-.28-.37-.82.28-1.2l6.63-3.83a2.41,2.41,0,0,1,2.09-.16l8.7,5c.49.29.37.83-.28,1.21l-6.64,3.82A2.32,2.32,0,0,1,205.2,161.88Z" transform="translate(-10.28 -7.43)"/><path class="cls-13" d="M216.55,168.45l-8.69-5c-.5-.29-.38-.82.28-1.2l6.63-3.83a2.38,2.38,0,0,1,2.09-.16l8.69,5c.5.29.37.83-.28,1.21l-6.63,3.82A2.34,2.34,0,0,1,216.55,168.45Z" transform="translate(-10.28 -7.43)"/><path class="cls-13" d="M227.91,175l-8.7-5c-.5-.29-.37-.83.28-1.2l6.63-3.83a2.34,2.34,0,0,1,2.09-.16l8.7,5c.49.29.37.83-.29,1.21L230,174.86A2.32,2.32,0,0,1,227.91,175Z" transform="translate(-10.28 -7.43)"/><path class="cls-13" d="M239.26,181.59l-8.7-5c-.49-.29-.37-.83.29-1.2l6.63-3.83a2.32,2.32,0,0,1,2.08-.16l8.7,5c.5.29.37.83-.28,1.21l-6.63,3.82A2.34,2.34,0,0,1,239.26,181.59Z" transform="translate(-10.28 -7.43)"/><path class="cls-13" d="M250.61,188.16l-8.69-5c-.5-.29-.37-.83.28-1.21l6.63-3.82a2.34,2.34,0,0,1,2.09-.16l8.69,5c.5.29.38.83-.28,1.2L252.7,188A2.34,2.34,0,0,1,250.61,188.16Z" transform="translate(-10.28 -7.43)"/><path class="cls-13" d="M262,194.73l-8.7-5c-.5-.29-.37-.83.28-1.21l6.64-3.82a2.32,2.32,0,0,1,2.08-.16l8.7,5c.5.29.37.83-.28,1.2l-6.63,3.83A2.38,2.38,0,0,1,262,194.73Z" transform="translate(-10.28 -7.43)"/><path class="cls-13" d="M273.32,201.3l-8.69-5c-.5-.29-.37-.83.28-1.21l6.63-3.82a2.34,2.34,0,0,1,2.09-.16l8.69,5c.5.28.38.82-.28,1.2l-6.63,3.83A2.38,2.38,0,0,1,273.32,201.3Z" transform="translate(-10.28 -7.43)"/><path class="cls-13" d="M284.68,207.87l-8.7-5c-.5-.28-.37-.82.28-1.2l6.64-3.83a2.39,2.39,0,0,1,2.08-.16l8.7,5c.5.29.37.83-.28,1.21l-6.64,3.82A2.36,2.36,0,0,1,284.68,207.87Z" transform="translate(-10.28 -7.43)"/><path class="cls-13" d="M296,214.43l-8.69-5c-.5-.29-.38-.82.28-1.2l6.63-3.83a2.38,2.38,0,0,1,2.09-.16l8.69,5c.5.29.37.83-.28,1.21l-6.63,3.82A2.34,2.34,0,0,1,296,214.43Z" transform="translate(-10.28 -7.43)"/><path class="cls-13" d="M172.45,154.54l-8.7-5c-.5-.29-.37-.83.28-1.21l6.63-3.82a2.34,2.34,0,0,1,2.09-.16l8.7,5c.5.29.37.83-.28,1.2l-6.64,3.83A2.32,2.32,0,0,1,172.45,154.54Z" transform="translate(-10.28 -7.43)"/><path class="cls-13" d="M183.8,161.11l-8.69-5c-.5-.29-.38-.83.28-1.21l6.63-3.82a2.34,2.34,0,0,1,2.09-.16l8.69,5c.5.29.37.82-.28,1.2L185.89,161A2.38,2.38,0,0,1,183.8,161.11Z" transform="translate(-10.28 -7.43)"/><path class="cls-13" d="M195.16,167.68l-8.7-5c-.5-.29-.37-.83.28-1.21l6.63-3.82a2.38,2.38,0,0,1,2.09-.17l8.7,5c.49.28.37.82-.29,1.2l-6.63,3.83A2.39,2.39,0,0,1,195.16,167.68Z" transform="translate(-10.28 -7.43)"/><path class="cls-13" d="M206.51,174.24l-8.69-5c-.5-.28-.38-.82.28-1.2l6.63-3.83a2.39,2.39,0,0,1,2.08-.16l8.7,5c.5.29.37.83-.28,1.21l-6.63,3.82A2.34,2.34,0,0,1,206.51,174.24Z" transform="translate(-10.28 -7.43)"/><path class="cls-13" d="M217.87,180.81l-8.7-5c-.5-.29-.37-.83.28-1.2l6.63-3.83a2.38,2.38,0,0,1,2.09-.16l8.69,5c.5.29.38.83-.28,1.21L220,180.65A2.32,2.32,0,0,1,217.87,180.81Z" transform="translate(-10.28 -7.43)"/><path class="cls-13" d="M229.22,187.38l-8.7-5c-.49-.29-.37-.83.29-1.2l6.63-3.83a2.32,2.32,0,0,1,2.08-.16l8.7,5c.5.29.37.83-.28,1.21l-6.63,3.82A2.34,2.34,0,0,1,229.22,187.38Z" transform="translate(-10.28 -7.43)"/><path class="cls-13" d="M240.57,194l-8.69-5c-.5-.29-.37-.83.28-1.2l6.63-3.83a2.34,2.34,0,0,1,2.09-.16l8.69,5c.5.29.38.83-.28,1.2l-6.63,3.83A2.34,2.34,0,0,1,240.57,194Z" transform="translate(-10.28 -7.43)"/><path class="cls-13" d="M251.93,200.52l-8.7-5c-.5-.29-.37-.83.28-1.21l6.64-3.82a2.32,2.32,0,0,1,2.08-.16l8.7,5c.5.29.37.83-.28,1.2L254,200.36A2.34,2.34,0,0,1,251.93,200.52Z" transform="translate(-10.28 -7.43)"/><path class="cls-13" d="M263.28,207.09l-8.69-5c-.5-.29-.38-.83.28-1.21L261.5,197a2.34,2.34,0,0,1,2.09-.16l8.69,5c.5.29.38.82-.28,1.2l-6.63,3.83A2.38,2.38,0,0,1,263.28,207.09Z" transform="translate(-10.28 -7.43)"/><path class="cls-13" d="M274.64,213.66l-8.7-5c-.5-.29-.37-.83.28-1.21l6.63-3.82a2.34,2.34,0,0,1,2.09-.16l8.7,5c.5.28.37.82-.28,1.2l-6.64,3.83A2.39,2.39,0,0,1,274.64,213.66Z" transform="translate(-10.28 -7.43)"/><path class="cls-13" d="M286,220.23l-8.69-5c-.5-.28-.38-.82.28-1.2l6.63-3.83a2.41,2.41,0,0,1,2.09-.16l8.69,5c.5.29.37.83-.28,1.21l-6.63,3.82A2.38,2.38,0,0,1,286,220.23Z" transform="translate(-10.28 -7.43)"/><path class="cls-13" d="M162.41,160.33l-8.7-5c-.5-.29-.37-.83.28-1.21l6.63-3.82a2.34,2.34,0,0,1,2.09-.16l8.7,5c.49.29.37.83-.28,1.2l-6.64,3.83A2.32,2.32,0,0,1,162.41,160.33Z" transform="translate(-10.28 -7.43)"/><path class="cls-13" d="M173.76,166.9l-8.69-5c-.5-.29-.38-.83.28-1.21l6.63-3.82a2.34,2.34,0,0,1,2.09-.16l8.69,5c.5.29.37.83-.28,1.2l-6.63,3.83A2.34,2.34,0,0,1,173.76,166.9Z" transform="translate(-10.28 -7.43)"/><path class="cls-13" d="M185.12,173.47l-8.7-5c-.5-.29-.37-.83.28-1.21l6.63-3.82a2.34,2.34,0,0,1,2.09-.16l8.7,5c.49.28.37.82-.29,1.2l-6.63,3.83A2.36,2.36,0,0,1,185.12,173.47Z" transform="translate(-10.28 -7.43)"/><path class="cls-13" d="M253.09,212.79l-65.17-37.7c-.58-.33-.43-1,.33-1.4l6.24-3.6a2.72,2.72,0,0,1,2.43-.19l65.17,37.7c.58.34.44,1-.33,1.41l-6.23,3.6A2.77,2.77,0,0,1,253.09,212.79Z" transform="translate(-10.28 -7.43)"/><path class="cls-13" d="M264.6,219.45l-8.7-5c-.5-.29-.37-.83.28-1.21l6.63-3.82a2.34,2.34,0,0,1,2.09-.16l8.7,5c.5.29.37.82-.28,1.2l-6.64,3.83A2.35,2.35,0,0,1,264.6,219.45Z" transform="translate(-10.28 -7.43)"/><path class="cls-13" d="M276,226l-8.69-5c-.5-.29-.38-.83.28-1.21l6.63-3.82a2.34,2.34,0,0,1,2.09-.16l8.69,5c.5.28.37.82-.28,1.2L278,225.86A2.41,2.41,0,0,1,276,226Z" transform="translate(-10.28 -7.43)"/><ellipse class="cls-6" cx="127.77" cy="255.25" rx="29.66" ry="17.13"/><path class="cls-14" d="M130.32,265.78s-1.44,4.83,2.31,5.87,4.4-1.06,5.73-1.74,9.7-5,11.26-7-3.17-5-10.5-.32Z" transform="translate(-10.28 -7.43)"/><path class="cls-14" d="M115.09,257.22s-1.77,4.44,1.68,5.74,4.71-2.22,5.73-2.87a46.1,46.1,0,0,0,6.77-5c1.65-1.73-.83-5.51-8.15-1.74Z" transform="translate(-10.28 -7.43)"/><path class="cls-15" d="M118.37,186.73s-1,30.19-.73,36c-3,7.07-3.36,28.33-2.54,35.1,0,1.06,8.18,1.24,8.18-2.55s3.27-24.57,4.16-27.55,3.87-12.8,3.87-12.8V186.73l-9.62-1.43Z" transform="translate(-10.28 -7.43)"/><path class="cls-16" d="M152.83,174.87s-5.91,2.57-10.3-3.86,3.75-5.31,3.75-5.31l5.63,3.34Z" transform="translate(-10.28 -7.43)"/><path class="cls-17" d="M129.82,265.28c.09,1.23,9.7,2.9,9.7-1.44s.47-24,1.76-32.21S146,209,144.74,199.45s-1.44-13.28-1.63-15.66H129s1.57,40.71,1.57,44.46S129.36,258.92,129.82,265.28Z" transform="translate(-10.28 -7.43)"/><path class="cls-17" d="M130.9,138.09a8.71,8.71,0,0,0-8.11-1.2c-4.09,1.39-7.12,6.15-7.12,13.88s4.19,10.11,4.19,21.49-4.13,14.15-3.47,22.72,26.16,12,29.7,7.21c2.67-4.47-2.85-24.68-2.1-30.89s4-20,2.5-23.78C145.45,144.93,137.4,139.28,130.9,138.09Z" transform="translate(-10.28 -7.43)"/><path class="cls-18" d="M145.64,168.23c3.26,6.75,5.88,7.08,7.19,6.64,1.94-.65,2.86-3.14,1.67-8.48s-5.13-22-10.8-19.76C137.86,149,142.37,161.49,145.64,168.23Z" transform="translate(-10.28 -7.43)"/><path class="cls-19" d="M129.06,133.26v5c0,1.59,4.46,3.6,8.37,1.78v-4.18s4.43.62,5.39,0,1.83-14.52-.82-16.14c-4.33-3.35-15.16-1.94-15.16,4.78C126.84,126.57,129.06,129.16,129.06,133.26Z" transform="translate(-10.28 -7.43)"/><path class="cls-20" d="M126.09,124.33c1.29,1.5,9,.08,11.92-1.61s9.14-6.55,6.49-11.31-3.91.43-8.27,1.39S119.62,116.79,126.09,124.33Z" transform="translate(-10.28 -7.43)"/><path class="cls-20" d="M125,122.72c-.66,3.22,2.85,11.88,4.3,11.88,3.13,0,5.87-5,8.37-5.89s4.77-6.31,2.67-7.55S125,122.72,125,122.72Z" transform="translate(-10.28 -7.43)"/><path class="cls-18" d="M139.38,141.63c.14.75-3.64,4.14-9.7,1.46s-2.58-4.64-2.58-4.64l4.91,2.62,3.46.12Z" transform="translate(-10.28 -7.43)"/><path class="cls-21" d="M129.06,137.65s1.37,3.47,8.37,1.79a3.08,3.08,0,0,1,1.95,2.19c-1.81,2.48-11.41,1.59-12.54-2.86A2.53,2.53,0,0,1,129.06,137.65Z" transform="translate(-10.28 -7.43)"/><path class="cls-19" d="M138.47,130.09c-.77-.47-2.22-2.57-.76-3.33a1.7,1.7,0,0,1,2.17,1.23" transform="translate(-10.28 -7.43)"/><polygon class="cls-22" points="214.99 116 214.99 44.69 173.36 20.65 173.36 91.97 214.99 116"/><polygon class="cls-23" points="214.99 116 215.99 115.42 215.99 44.11 214.99 44.69 214.99 116"/><polygon class="cls-24" points="215.99 44.11 174.36 20.07 173.36 20.65 214.99 44.69 215.99 44.11"/><polygon class="cls-25" points="175.2 89.65 212.28 111.06 212.28 46.81 175.2 25.39 175.2 89.65"/><ellipse class="cls-26" cx="204.02" cy="64.44" rx="9.85" ry="17.07" transform="translate(-15.02 103.89) rotate(-30.18)"/><g class="cls-27"><path class="cls-28" d="M197,74.69l14.08,8.13V78.49a7.6,7.6,0,0,0-3.44-5.94l-7.21-4.16c-1.89-1.09-3.43-.21-3.43,2Z" transform="translate(-10.28 -7.43)"/><path class="cls-29" d="M204,73.53h0c1.37.79,2.49.15,2.49-1.43V69.24l-5-2.88v2.87A5.49,5.49,0,0,0,204,73.53Z" transform="translate(-10.28 -7.43)"/><path class="cls-30" d="M204,53.52c1.18.67,5.92,4.11,5.92,12.12v8.28a13.7,13.7,0,0,0-6.19-5" transform="translate(-10.28 -7.43)"/><path class="cls-30" d="M204,53.52c-1.17-.68-5.92-2.72-5.92,5.28v8.28s2-1,6.19,2.11" transform="translate(-10.28 -7.43)"/><path class="cls-29" d="M201.58,68.37l1.13,1.39a3.4,3.4,0,0,0,2.62,1.52l1.13-.1c1.68-.15,2.72-1.62,2.72-3.85V62.88A11.36,11.36,0,0,0,204,54h0c-2.85-1.65-5.16-.33-5.16,3v4.45A11.91,11.91,0,0,0,201.58,68.37Z" transform="translate(-10.28 -7.43)"/><path class="cls-29" d="M209.18,67.79h0c.43.25.78,0,.78-.45V65.27a1.74,1.74,0,0,0-.78-1.36h0c-.44-.25-.79,0-.79.45v2.07A1.74,1.74,0,0,0,209.18,67.79Z" transform="translate(-10.28 -7.43)"/><path class="cls-29" d="M198.86,61.83h0c.43.25.78.05.78-.45V59.31a1.74,1.74,0,0,0-.78-1.36h0c-.43-.25-.78-.05-.78.45v2.07A1.74,1.74,0,0,0,198.86,61.83Z" transform="translate(-10.28 -7.43)"/><path class="cls-30" d="M200.44,55.42a24.72,24.72,0,0,0,9,10.8V63c0-1.13-.8-6.47-5.21-9s-5.77-.16-5.52,4.78C198.69,58.78,200.4,58.84,200.44,55.42Z" transform="translate(-10.28 -7.43)"/></g><polygon class="cls-31" points="178.96 78.66 208.52 95.73 208.52 93.9 178.96 76.84 178.96 78.66"/><polygon class="cls-31" points="185.94 69.91 201.55 78.92 201.55 77.79 185.94 68.78 185.94 69.91"/><polygon class="cls-31" points="178.96 81.37 208.52 98.43 208.52 96.61 178.96 79.54 178.96 81.37"/><polygon class="cls-31" points="178.96 84.08 208.52 101.14 208.52 99.32 178.96 82.25 178.96 84.08"/><polygon class="cls-31" points="178.96 86.78 208.52 103.85 208.52 102.02 178.96 84.96 178.96 86.78"/><polygon class="cls-31" points="178.96 89.49 208.52 106.55 208.52 104.73 178.96 87.66 178.96 89.49"/><path class="cls-32" d="M210.75,91.43a3.44,3.44,0,0,0,1.56,2.69c.86.5,1.56.1,1.56-.89a3.46,3.46,0,0,0-1.56-2.7C211.45,90,210.75,90.43,210.75,91.43Z" transform="translate(-10.28 -7.43)"/><path class="cls-33" d="M205.22,88.23a3.44,3.44,0,0,0,1.56,2.7c.86.5,1.56.1,1.56-.89a3.46,3.46,0,0,0-1.56-2.7C205.92,86.84,205.22,87.24,205.22,88.23Z" transform="translate(-10.28 -7.43)"/><path class="cls-34" d="M199.7,85a3.42,3.42,0,0,0,1.56,2.7c.86.5,1.56.1,1.56-.89a3.44,3.44,0,0,0-1.56-2.7C200.39,83.65,199.7,84.05,199.7,85Z" transform="translate(-10.28 -7.43)"/><path class="cls-35" d="M194.17,81.85a3.44,3.44,0,0,0,1.56,2.7c.86.5,1.56.1,1.56-.89a3.44,3.44,0,0,0-1.56-2.7C194.87,80.46,194.17,80.86,194.17,81.85Z" transform="translate(-10.28 -7.43)"/><polygon class="cls-22" points="329.94 182.39 329.94 111.07 288.31 87.04 288.31 158.36 329.94 182.39"/><polygon class="cls-23" points="329.94 182.39 330.94 181.81 330.94 110.5 329.94 111.07 329.94 182.39"/><polygon class="cls-24" points="330.94 110.5 289.31 86.46 288.31 87.04 329.94 111.07 330.94 110.5"/><polygon class="cls-25" points="290.15 156.04 327.23 177.45 327.23 113.19 290.15 91.78 290.15 156.04"/><ellipse class="cls-26" cx="318.97" cy="130.83" rx="9.85" ry="17.07" transform="translate(-32.81 170.68) rotate(-30.19)"/><g class="cls-36"><path class="cls-28" d="M311.93,141.08,326,149.21v-4.33a7.6,7.6,0,0,0-3.43-5.94l-7.22-4.16c-1.89-1.1-3.43-.21-3.43,2Z" transform="translate(-10.28 -7.43)"/><path class="cls-29" d="M319,139.92h0c1.37.79,2.49.15,2.49-1.43v-2.86l-5-2.88v2.87A5.52,5.52,0,0,0,319,139.92Z" transform="translate(-10.28 -7.43)"/><path class="cls-30" d="M319,119.91c1.18.67,5.92,4.11,5.92,12.12v8.28a13.75,13.75,0,0,0-6.19-5.05" transform="translate(-10.28 -7.43)"/><path class="cls-30" d="M319,119.91c-1.17-.68-5.91-2.73-5.91,5.28v8.28s1.95-1,6.19,2.11" transform="translate(-10.28 -7.43)"/><path class="cls-29" d="M316.53,134.75l1.13,1.4a3.4,3.4,0,0,0,2.62,1.52l1.13-.1c1.68-.15,2.72-1.62,2.72-3.85v-4.45a11.36,11.36,0,0,0-5.16-8.91h0c-2.85-1.65-5.16-.33-5.16,3v4.45A11.86,11.86,0,0,0,316.53,134.75Z" transform="translate(-10.28 -7.43)"/><path class="cls-29" d="M324.13,134.17h0c.43.25.78.05.78-.45v-2.07a1.74,1.74,0,0,0-.78-1.35h0c-.43-.25-.79-.05-.79.45v2.07A1.73,1.73,0,0,0,324.13,134.17Z" transform="translate(-10.28 -7.43)"/><path class="cls-29" d="M313.81,128.22h0c.43.25.79.05.79-.45V125.7a1.75,1.75,0,0,0-.79-1.36h0c-.43-.25-.78,0-.78.45v2.07A1.74,1.74,0,0,0,313.81,128.22Z" transform="translate(-10.28 -7.43)"/><path class="cls-30" d="M315.39,121.81a24.72,24.72,0,0,0,9,10.8V129.4c0-1.13-.8-6.47-5.21-9s-5.77-.16-5.52,4.78C313.64,125.17,315.35,125.23,315.39,121.81Z" transform="translate(-10.28 -7.43)"/></g><polygon class="cls-31" points="293.91 145.05 323.47 162.12 323.47 160.29 293.91 143.23 293.91 145.05"/><polygon class="cls-31" points="300.89 136.3 316.5 145.31 316.5 144.18 300.89 135.17 300.89 136.3"/><polygon class="cls-31" points="293.91 147.76 323.47 164.82 323.47 163 293.91 145.93 293.91 147.76"/><polygon class="cls-31" points="293.91 150.46 323.47 167.53 323.47 165.71 293.91 148.64 293.91 150.46"/><polygon class="cls-31" points="293.91 153.17 323.47 170.24 323.47 168.41 293.91 151.35 293.91 153.17"/><polygon class="cls-31" points="293.91 155.88 323.47 172.94 323.47 171.12 293.91 154.05 293.91 155.88"/><path class="cls-32" d="M325.7,157.81a3.44,3.44,0,0,0,1.56,2.7c.86.5,1.56.1,1.56-.89a3.44,3.44,0,0,0-1.56-2.7C326.4,156.42,325.7,156.82,325.7,157.81Z" transform="translate(-10.28 -7.43)"/><path class="cls-33" d="M320.17,154.62a3.44,3.44,0,0,0,1.56,2.7c.86.5,1.56.1,1.56-.89a3.44,3.44,0,0,0-1.56-2.7C320.87,153.23,320.17,153.63,320.17,154.62Z" transform="translate(-10.28 -7.43)"/><path class="cls-34" d="M314.65,151.43a3.44,3.44,0,0,0,1.56,2.7c.86.5,1.56.1,1.56-.89a3.44,3.44,0,0,0-1.56-2.7C315.35,150,314.65,150.44,314.65,151.43Z" transform="translate(-10.28 -7.43)"/><path class="cls-35" d="M309.12,148.24a3.46,3.46,0,0,0,1.56,2.7c.86.5,1.56.1,1.56-.89a3.44,3.44,0,0,0-1.56-2.7C309.82,146.85,309.12,147.25,309.12,148.24Z" transform="translate(-10.28 -7.43)"/><polygon class="cls-22" points="232.89 142.35 232.89 71.03 191.26 47 191.26 118.32 232.89 142.35"/><polygon class="cls-23" points="232.89 142.35 233.89 141.77 233.89 70.46 232.89 71.03 232.89 142.35"/><polygon class="cls-24" points="233.89 70.46 192.26 46.42 191.26 47 232.89 71.03 233.89 70.46"/><polygon class="cls-25" points="192.78 115.74 229.87 137.15 229.87 72.89 192.78 51.48 192.78 115.74"/><ellipse class="cls-26" cx="221.6" cy="90.53" rx="9.85" ry="17.07" transform="translate(-25.75 116.27) rotate(-30.18)"/><g class="cls-37"><path class="cls-38" d="M214.56,100.78l14.08,8.13v-4.33a7.57,7.57,0,0,0-3.43-5.94L218,94.48c-1.9-1.1-3.44-.22-3.44,2Z" transform="translate(-10.28 -7.43)"/><path class="cls-29" d="M221.6,99.62h0c1.38.79,2.49.15,2.49-1.43V95.33l-5-2.88v2.87A5.51,5.51,0,0,0,221.6,99.62Z" transform="translate(-10.28 -7.43)"/><path class="cls-29" d="M219.17,94.45l1.12,1.4a3.4,3.4,0,0,0,2.63,1.52l1.12-.1c1.69-.15,2.72-1.62,2.72-3.85V89a11.4,11.4,0,0,0-5.16-8.92h0c-2.84-1.64-5.15-.32-5.15,3v4.45A11.79,11.79,0,0,0,219.17,94.45Z" transform="translate(-10.28 -7.43)"/><path class="cls-29" d="M226.76,93.87h0c.44.25.79,0,.79-.45V91.35a1.72,1.72,0,0,0-.79-1.35h0c-.43-.25-.78,0-.78.45v2.07A1.72,1.72,0,0,0,226.76,93.87Z" transform="translate(-10.28 -7.43)"/><path class="cls-29" d="M216.45,87.92h0c.43.25.78,0,.78-.45V85.4a1.74,1.74,0,0,0-.78-1.36h0c-.44-.25-.79-.05-.79.45v2.07A1.72,1.72,0,0,0,216.45,87.92Z" transform="translate(-10.28 -7.43)"/><path class="cls-39" d="M227.31,90.57s.45-3.63-.26-5a12.51,12.51,0,0,0-5.24-6c-3.92-2.26-4.78-1.16-5.58.2,0,0-.67,3,.22,4.6l.26,1.42s1.59-1.23,1.15-4.17c0,0,2.8,4.48,7.53,6a5.74,5.74,0,0,0,1.38,3.53Z" transform="translate(-10.28 -7.43)"/></g><polygon class="cls-31" points="196.55 104.75 226.1 121.81 226.1 119.99 196.55 102.92 196.55 104.75"/><polygon class="cls-31" points="203.52 96 219.13 105.01 219.13 103.88 203.52 94.87 203.52 96"/><polygon class="cls-31" points="196.55 107.46 226.1 124.52 226.1 122.7 196.55 105.63 196.55 107.46"/><polygon class="cls-31" points="196.55 110.16 226.1 127.23 226.1 125.4 196.55 108.34 196.55 110.16"/><polygon class="cls-31" points="196.55 112.87 226.1 129.94 226.1 128.11 196.55 111.05 196.55 112.87"/><polygon class="cls-31" points="196.55 115.58 226.1 132.64 226.1 130.82 196.55 113.75 196.55 115.58"/><path class="cls-32" d="M228.33,117.51a3.46,3.46,0,0,0,1.56,2.7c.86.5,1.56.1,1.56-.89a3.44,3.44,0,0,0-1.56-2.7C229,116.12,228.33,116.52,228.33,117.51Z" transform="translate(-10.28 -7.43)"/><path class="cls-33" d="M222.81,114.32a3.46,3.46,0,0,0,1.56,2.7c.86.5,1.56.1,1.56-.9a3.44,3.44,0,0,0-1.56-2.69C223.51,112.93,222.81,113.33,222.81,114.32Z" transform="translate(-10.28 -7.43)"/><path class="cls-34" d="M217.28,111.13a3.46,3.46,0,0,0,1.56,2.7c.86.5,1.56.1,1.56-.9a3.44,3.44,0,0,0-1.56-2.69C218,109.74,217.28,110.14,217.28,111.13Z" transform="translate(-10.28 -7.43)"/><path class="cls-35" d="M211.76,107.94a3.43,3.43,0,0,0,1.56,2.7c.86.5,1.56.1,1.56-.9a3.44,3.44,0,0,0-1.56-2.69C212.45,106.55,211.76,107,211.76,107.94Z" transform="translate(-10.28 -7.43)"/><polygon class="cls-22" points="288.31 174.37 288.31 103.05 246.68 79.02 246.68 150.34 288.31 174.37"/><polygon class="cls-23" points="288.31 174.37 289.31 173.79 289.31 102.47 288.31 103.05 288.31 174.37"/><polygon class="cls-24" points="289.31 102.47 247.68 78.44 246.68 79.02 288.31 103.05 289.31 102.47"/><polygon class="cls-25" points="248.2 147.75 285.29 169.17 285.29 104.91 248.2 83.5 248.2 147.75"/><ellipse class="cls-26" cx="277.02" cy="122.55" rx="9.85" ry="17.07" transform="translate(-34.33 148.47) rotate(-30.18)"/><g class="cls-40"><path class="cls-38" d="M270,132.8l14.07,8.13v-4.34a7.57,7.57,0,0,0-3.43-5.93l-7.21-4.16c-1.9-1.1-3.43-.22-3.43,2Z" transform="translate(-10.28 -7.43)"/><path class="cls-29" d="M277,131.63h0c1.38.8,2.49.16,2.49-1.42v-2.86l-5-2.88v2.86A5.47,5.47,0,0,0,277,131.63Z" transform="translate(-10.28 -7.43)"/><path class="cls-29" d="M274.59,126.47l1.12,1.4a3.38,3.38,0,0,0,2.63,1.51l1.12-.09c1.69-.15,2.72-1.62,2.72-3.86V121a11.4,11.4,0,0,0-5.16-8.92h0c-2.84-1.64-5.15-.32-5.15,3v4.45A11.81,11.81,0,0,0,274.59,126.47Z" transform="translate(-10.28 -7.43)"/><path class="cls-29" d="M282.18,125.89h0c.44.25.79,0,.79-.45v-2.07a1.71,1.71,0,0,0-.79-1.35h0c-.43-.25-.78,0-.78.45v2.07A1.74,1.74,0,0,0,282.18,125.89Z" transform="translate(-10.28 -7.43)"/><path class="cls-29" d="M271.87,119.93h0c.43.25.78,0,.78-.45v-2.07a1.74,1.74,0,0,0-.78-1.35h0c-.44-.25-.79,0-.79.45v2.07A1.71,1.71,0,0,0,271.87,119.93Z" transform="translate(-10.28 -7.43)"/><path class="cls-39" d="M282.73,122.59s.45-3.63-.26-5a12.51,12.51,0,0,0-5.24-6c-3.92-2.26-4.78-1.16-5.58.2,0,0-.67,3,.22,4.6l.26,1.42s1.59-1.24,1.15-4.17c0,0,2.8,4.48,7.53,6a5.74,5.74,0,0,0,1.38,3.53Z" transform="translate(-10.28 -7.43)"/></g><polygon class="cls-31" points="251.97 136.77 281.52 153.83 281.52 152.01 251.97 134.94 251.97 136.77"/><polygon class="cls-31" points="258.94 128.01 274.55 137.03 274.55 135.9 258.94 126.88 258.94 128.01"/><polygon class="cls-31" points="251.97 139.47 281.52 156.54 281.52 154.72 251.97 137.65 251.97 139.47"/><polygon class="cls-31" points="251.97 142.18 281.52 159.25 281.52 157.42 251.97 140.36 251.97 142.18"/><polygon class="cls-31" points="251.97 144.89 281.52 161.95 281.52 160.13 251.97 143.06 251.97 144.89"/><polygon class="cls-31" points="251.97 147.59 281.52 164.66 281.52 162.84 251.97 145.77 251.97 147.59"/><path class="cls-32" d="M283.75,149.53a3.46,3.46,0,0,0,1.56,2.7c.86.49,1.56.09,1.56-.9a3.44,3.44,0,0,0-1.56-2.69C284.45,148.14,283.75,148.54,283.75,149.53Z" transform="translate(-10.28 -7.43)"/><path class="cls-33" d="M278.23,146.34a3.46,3.46,0,0,0,1.56,2.7c.86.49,1.56.09,1.56-.9a3.43,3.43,0,0,0-1.56-2.69C278.93,145,278.23,145.35,278.23,146.34Z" transform="translate(-10.28 -7.43)"/><path class="cls-34" d="M272.7,143.15a3.46,3.46,0,0,0,1.56,2.7c.86.49,1.56.09,1.56-.9a3.43,3.43,0,0,0-1.56-2.69C273.4,141.76,272.7,142.16,272.7,143.15Z" transform="translate(-10.28 -7.43)"/><path class="cls-35" d="M267.18,140a3.43,3.43,0,0,0,1.56,2.7c.86.49,1.56.09,1.56-.9a3.43,3.43,0,0,0-1.56-2.69C267.87,138.57,267.18,139,267.18,140Z" transform="translate(-10.28 -7.43)"/><polygon class="cls-22" points="246.68 166.39 246.68 95.07 205.04 71.03 205.04 142.35 246.68 166.39"/><polygon class="cls-23" points="246.68 166.39 247.67 165.81 247.67 94.49 246.68 95.07 246.68 166.39"/><polygon class="cls-24" points="247.67 94.49 206.04 70.46 205.04 71.03 246.68 95.07 247.67 94.49"/><polygon class="cls-25" points="206.56 139.77 243.65 161.18 243.65 96.93 206.56 75.52 206.56 139.77"/><ellipse class="cls-26" cx="235.39" cy="114.57" rx="9.85" ry="17.07" transform="translate(-35.96 126.45) rotate(-30.19)"/><g class="cls-41"><path class="cls-38" d="M228.35,124.81l14.08,8.13v-4.33a7.56,7.56,0,0,0-3.44-5.93l-7.21-4.17c-1.9-1.09-3.43-.21-3.43,2Z" transform="translate(-10.28 -7.43)"/><path class="cls-29" d="M235.39,123.65h0c1.37.8,2.48.16,2.48-1.42v-2.87l-5-2.87v2.86A5.47,5.47,0,0,0,235.39,123.65Z" transform="translate(-10.28 -7.43)"/><path class="cls-29" d="M233,118.49l1.12,1.39a3.43,3.43,0,0,0,2.63,1.52l1.12-.1c1.69-.14,2.72-1.61,2.72-3.85V113a11.4,11.4,0,0,0-5.15-8.91h0c-2.85-1.65-5.16-.32-5.16,3v4.44A11.82,11.82,0,0,0,233,118.49Z" transform="translate(-10.28 -7.43)"/><path class="cls-29" d="M240.54,117.91h0c.44.25.79,0,.79-.45v-2.07a1.72,1.72,0,0,0-.79-1.36h0c-.43-.25-.78,0-.78.45v2.07A1.74,1.74,0,0,0,240.54,117.91Z" transform="translate(-10.28 -7.43)"/><path class="cls-29" d="M230.23,112h0c.43.25.78,0,.78-.45v-2.07a1.72,1.72,0,0,0-.78-1.35h0c-.44-.25-.79,0-.79.44v2.08A1.72,1.72,0,0,0,230.23,112Z" transform="translate(-10.28 -7.43)"/><path class="cls-39" d="M241.09,114.6s.46-3.63-.26-5a12.46,12.46,0,0,0-5.24-6c-3.92-2.27-4.77-1.17-5.58.2,0,0-.67,3,.22,4.6l.26,1.41s1.59-1.23,1.16-4.16c0,0,2.79,4.48,7.52,6a5.76,5.76,0,0,0,1.38,3.53Z" transform="translate(-10.28 -7.43)"/></g><polygon class="cls-31" points="210.33 128.78 239.88 145.85 239.88 144.03 210.33 126.96 210.33 128.78"/><polygon class="cls-31" points="217.3 120.03 232.91 129.04 232.91 127.92 217.3 118.9 217.3 120.03"/><polygon class="cls-31" points="210.33 131.49 239.88 148.56 239.88 146.73 210.33 129.67 210.33 131.49"/><polygon class="cls-31" points="210.33 134.2 239.88 151.26 239.88 149.44 210.33 132.37 210.33 134.2"/><polygon class="cls-31" points="210.33 136.91 239.88 153.97 239.88 152.15 210.33 135.08 210.33 136.91"/><polygon class="cls-31" points="210.33 139.61 239.88 156.68 239.88 154.85 210.33 137.79 210.33 139.61"/><path class="cls-32" d="M242.11,141.55a3.43,3.43,0,0,0,1.56,2.69c.87.5,1.56.1,1.56-.89a3.43,3.43,0,0,0-1.56-2.7C242.81,140.16,242.11,140.56,242.11,141.55Z" transform="translate(-10.28 -7.43)"/><path class="cls-33" d="M236.59,138.36a3.43,3.43,0,0,0,1.56,2.69c.86.5,1.56.1,1.56-.89a3.46,3.46,0,0,0-1.56-2.7C237.29,137,236.59,137.37,236.59,138.36Z" transform="translate(-10.28 -7.43)"/><path class="cls-34" d="M231.06,135.17a3.43,3.43,0,0,0,1.56,2.69c.86.5,1.56.1,1.56-.89a3.46,3.46,0,0,0-1.56-2.7C231.76,133.78,231.06,134.18,231.06,135.17Z" transform="translate(-10.28 -7.43)"/><path class="cls-35" d="M225.54,132a3.43,3.43,0,0,0,1.56,2.69c.86.5,1.56.1,1.56-.89a3.46,3.46,0,0,0-1.56-2.7C226.24,130.59,225.54,131,225.54,132Z" transform="translate(-10.28 -7.43)"/><path class="cls-42" d="M234.11,129.22c-13.5-22.76-36.23-34.21-50.77-25.58L170.7,110.9l4.85,8.06a18.34,18.34,0,0,1,2.75-3.41c12.29-4,29.2,5.53,39.59,23s10.65,36.91,1.27,45.79a18.55,18.55,0,0,1-3.8.76l4.73,7.85,12.15-7C246.78,177.41,247.62,152,234.11,129.22Z" transform="translate(-10.28 -7.43)"/><path class="cls-43" d="M222,136.18c-13.5-22.75-36.23-34.21-50.77-25.58s-15.38,34.07-1.88,56.83,36.24,34.2,50.78,25.57S235.47,158.94,222,136.18Zm-2.8,48.21c-12.3,4-29.21-5.53-39.6-23s-10.64-36.92-1.26-45.8c12.29-4,29.2,5.53,39.59,23S228.54,175.51,219.16,184.39Z" transform="translate(-10.28 -7.43)"/><path class="cls-44" d="M179.56,161.35c-10.4-17.52-10.64-36.92-1.26-45.8,5.36-1.74,11.6-.9,17.79,2-7.59-3.62-15.26-4.1-21.28-.52-12.39,7.35-13.17,28.9-1.75,48.13s30.7,28.88,43.09,21.53a17.48,17.48,0,0,0,3-2.34C206.86,188.37,190,178.86,179.56,161.35Z" transform="translate(-10.28 -7.43)"/><path class="cls-45" d="M217.89,138.6c-10.39-17.52-27.3-27-39.59-23-9.38,8.88-9.14,28.28,1.26,45.8s27.3,27,39.6,23C228.54,175.51,228.29,156.11,217.89,138.6Z" transform="translate(-10.28 -7.43)"/><g class="cls-46"><path class="cls-47" d="M210.31,180.89c-10.18,0-21.72-7.84-29.21-20.46a52,52,0,0,1-3.74-7.65,2.68,2.68,0,1,1,5-1.95,46.76,46.76,0,0,0,3.36,6.86c7.51,12.66,19.76,20.07,28.51,17.24a2.68,2.68,0,1,1,1.65,5.1A18,18,0,0,1,210.31,180.89Z" transform="translate(-10.28 -7.43)"/></g><g class="cls-46"><path class="cls-47" d="M177,141.49a2.68,2.68,0,0,1-2.68-2.57c-.33-7.75,1.89-14.29,6.24-18.41a2.68,2.68,0,0,1,3.69,3.9c-3.21,3-4.83,8.11-4.57,14.28a2.7,2.7,0,0,1-2.57,2.8Z" transform="translate(-10.28 -7.43)"/></g><path class="cls-22" d="M237.08,166.76c1.45-2.45,3.91-3.69,5.48-2.76l28,16.26-5.33,8.86-27.92-16.23C235.71,172,235.62,169.22,237.08,166.76Z" transform="translate(-10.28 -7.43)"/><path class="cls-48" d="M270.68,186.36c-1.46,2.46-3.91,3.69-5.48,2.76s-1.66-3.68-.2-6.13,3.91-3.69,5.47-2.76S272.13,183.91,270.68,186.36Z" transform="translate(-10.28 -7.43)"/><path class="cls-42" d="M262.23,181.65c2.57-4.35,6.91-6.54,9.69-4.89l49.5,28.78L312,221.21l-49.41-28.72C259.81,190.85,259.65,186,262.23,181.65Z" transform="translate(-10.28 -7.43)"/><path class="cls-48" d="M321.69,216.33c-2.58,4.34-6.92,6.53-9.7,4.88s-2.94-6.5-.36-10.85,6.92-6.53,9.7-4.88S324.26,212,321.69,216.33Z" transform="translate(-10.28 -7.43)"/><path class="cls-49" d="M320.13,215.41c-1.68,2.83-4.51,4.26-6.33,3.19s-1.91-4.25-.23-7.09,4.52-4.26,6.33-3.18S321.81,212.57,320.13,215.41Z" transform="translate(-10.28 -7.43)"/><path class="cls-6" d="M230.72,306.49l83.66-48.3a5.37,5.37,0,0,1,5.4,0l53.86,31.09a4.29,4.29,0,0,1,0,7.42l-32.94,19a15.77,15.77,0,0,1-15.75,0h0l-45.09,26a4.25,4.25,0,0,1-4.28,0l-44.86-25.9A5.41,5.41,0,0,1,230.72,306.49Z" transform="translate(-10.28 -7.43)"/><path class="cls-50" d="M230.72,299.41l83.66-48.3a5.37,5.37,0,0,1,5.4,0l53.86,31.09a4.29,4.29,0,0,1,0,7.42l-32.94,19a15.72,15.72,0,0,1-15.75,0h0l-45.09,26a4.3,4.3,0,0,1-4.28,0l-44.86-25.9A5.41,5.41,0,0,1,230.72,299.41Z" transform="translate(-10.28 -7.43)"/><path class="cls-51" d="M230.72,297.76l83.66-48.3a5.37,5.37,0,0,1,5.4,0l53.86,31.09a4.29,4.29,0,0,1,0,7.42L340.7,307A15.77,15.77,0,0,1,325,307h0l-45.09,26a4.3,4.3,0,0,1-4.28,0l-44.86-25.9A5.41,5.41,0,0,1,230.72,297.76Z" transform="translate(-10.28 -7.43)"/><polygon class="cls-47" points="235.8 307.58 219.82 298.36 235.8 289.13 251.78 298.36 235.8 307.58"/><g class="cls-52"><path class="cls-38" d="M250.25,298.08l10,6-2.71,1.51a5.44,5.44,0,0,1-4.91-.07l-5.12-3.05c-1.35-.81-1.33-2.08,0-2.84Z" transform="translate(-10.28 -7.43)"/><path class="cls-29" d="M252,302.88h0c1,.59,1,1.51,0,2.06l-1.79,1-3.54-2.11,1.79-1A4,4,0,0,1,252,302.88Z" transform="translate(-10.28 -7.43)"/><path class="cls-29" d="M247.9,303.17l1.27.21a2.45,2.45,0,0,1,1.86,1.11l.34.74c.49,1.1-.06,2.26-1.46,3l-2.78,1.55a8.12,8.12,0,0,1-7.37-.11h0c-2-1.2-2-3.11,0-4.26l2.78-1.55A8.44,8.44,0,0,1,247.9,303.17Z" transform="translate(-10.28 -7.43)"/><path class="cls-29" d="M250.2,308.12h0a.34.34,0,0,1,0,.64l-1.29.73a1.28,1.28,0,0,1-1.13,0h0a.35.35,0,0,1,0-.65l1.3-.72A1.23,1.23,0,0,1,250.2,308.12Z" transform="translate(-10.28 -7.43)"/><path class="cls-29" d="M242.87,303.75h0a.35.35,0,0,1,0,.65l-1.29.72a1.22,1.22,0,0,1-1.13,0h0a.34.34,0,0,1,0-.64l1.29-.73A1.28,1.28,0,0,1,242.87,303.75Z" transform="translate(-10.28 -7.43)"/><path class="cls-39" d="M248.32,309.61s-2.11,1.56-3.25,1.61a8.91,8.91,0,0,1-5.59-1.17c-2.79-1.66-2.4-2.58-1.83-3.56A5.87,5.87,0,0,1,240.6,305l1-.33a3.14,3.14,0,0,1-2.2,2.18,11.12,11.12,0,0,1,6.37,2.6,4.1,4.1,0,0,1,2.69-.37Z" transform="translate(-10.28 -7.43)"/></g><path class="cls-50" d="M230.72,288.59l83.66-48.3a5.37,5.37,0,0,1,5.4,0l53.86,31.09a4.29,4.29,0,0,1,0,7.42l-32.94,19a15.77,15.77,0,0,1-15.75,0h0l-45.09,26a4.25,4.25,0,0,1-4.28,0L230.72,298A5.41,5.41,0,0,1,230.72,288.59Z" transform="translate(-10.28 -7.43)"/><path class="cls-51" d="M230.72,286.94l83.66-48.3a5.42,5.42,0,0,1,5.4,0l53.86,31.09a4.29,4.29,0,0,1,0,7.42l-32.94,19a15.77,15.77,0,0,1-15.75,0h0l-45.09,26a4.25,4.25,0,0,1-4.28,0l-44.86-25.9A5.41,5.41,0,0,1,230.72,286.94Z" transform="translate(-10.28 -7.43)"/><polygon class="cls-47" points="235.8 296.76 219.82 287.54 235.8 278.31 251.78 287.54 235.8 296.76"/><g class="cls-53"><path class="cls-38" d="M250.25,287.26l10,6-2.71,1.51a5.41,5.41,0,0,1-4.91-.07l-5.12-3.05c-1.35-.8-1.33-2.07,0-2.84Z" transform="translate(-10.28 -7.43)"/><path class="cls-29" d="M252,292.07h0a1.08,1.08,0,0,1,0,2.05l-1.79,1-3.54-2.1,1.79-1A3.92,3.92,0,0,1,252,292.07Z" transform="translate(-10.28 -7.43)"/><path class="cls-29" d="M247.9,292.35l1.27.21a2.45,2.45,0,0,1,1.86,1.11l.34.74c.49,1.1-.06,2.27-1.46,3L247.13,299a8.15,8.15,0,0,1-7.37-.1h0c-2-1.21-2-3.12,0-4.26l2.78-1.56A8.51,8.51,0,0,1,247.9,292.35Z" transform="translate(-10.28 -7.43)"/><path class="cls-29" d="M250.2,297.3h0a.35.35,0,0,1,0,.65l-1.29.72a1.25,1.25,0,0,1-1.13,0h0a.34.34,0,0,1,0-.64l1.3-.73A1.26,1.26,0,0,1,250.2,297.3Z" transform="translate(-10.28 -7.43)"/><path class="cls-29" d="M242.87,292.93h0c.3.19.3.48,0,.65l-1.29.72a1.25,1.25,0,0,1-1.13,0h0c-.3-.19-.3-.48,0-.65l1.29-.72A1.25,1.25,0,0,1,242.87,292.93Z" transform="translate(-10.28 -7.43)"/><path class="cls-39" d="M248.32,298.8s-2.11,1.55-3.25,1.6a8.91,8.91,0,0,1-5.59-1.17c-2.79-1.66-2.4-2.58-1.83-3.56a6,6,0,0,1,2.95-1.47l1-.33a3.12,3.12,0,0,1-2.2,2.18,11.17,11.17,0,0,1,6.37,2.61,4.1,4.1,0,0,1,2.69-.37Z" transform="translate(-10.28 -7.43)"/></g><path class="cls-50" d="M230.72,277.77l83.66-48.3a5.42,5.42,0,0,1,5.4,0l53.86,31.1a4.28,4.28,0,0,1,0,7.41L340.7,287A15.77,15.77,0,0,1,325,287h0l-45.09,26a4.25,4.25,0,0,1-4.28,0l-44.86-25.89A5.41,5.41,0,0,1,230.72,277.77Z" transform="translate(-10.28 -7.43)"/><path class="cls-51" d="M230.72,276.12l83.66-48.3a5.42,5.42,0,0,1,5.4,0l53.86,31.1a4.28,4.28,0,0,1,0,7.41l-32.94,19a15.77,15.77,0,0,1-15.75,0h0l-45.09,26a4.3,4.3,0,0,1-4.28,0l-44.86-25.9A5.41,5.41,0,0,1,230.72,276.12Z" transform="translate(-10.28 -7.43)"/><polygon class="cls-47" points="235.8 285.95 219.82 276.72 235.8 267.5 251.78 276.72 235.8 285.95"/><g class="cls-54"><path class="cls-38" d="M250.25,276.44l10,6-2.71,1.52a5.41,5.41,0,0,1-4.91-.08l-5.12-3c-1.35-.8-1.33-2.07,0-2.83Z" transform="translate(-10.28 -7.43)"/><path class="cls-29" d="M252,281.25h0a1.08,1.08,0,0,1,0,2.05l-1.79,1-3.54-2.1,1.79-1A3.92,3.92,0,0,1,252,281.25Z" transform="translate(-10.28 -7.43)"/><path class="cls-29" d="M247.9,281.53l1.27.22a2.4,2.4,0,0,1,1.86,1.11l.34.73c.49,1.11-.06,2.27-1.46,3.05l-2.78,1.56a8.18,8.18,0,0,1-7.37-.11h0c-2-1.21-2-3.11,0-4.26l2.78-1.56A8.51,8.51,0,0,1,247.9,281.53Z" transform="translate(-10.28 -7.43)"/><path class="cls-29" d="M250.2,286.48h0a.35.35,0,0,1,0,.65l-1.29.72a1.25,1.25,0,0,1-1.13,0h0c-.3-.19-.3-.48,0-.65l1.3-.73A1.26,1.26,0,0,1,250.2,286.48Z" transform="translate(-10.28 -7.43)"/><path class="cls-29" d="M242.87,282.11h0c.3.19.3.48,0,.65l-1.29.73a1.28,1.28,0,0,1-1.13,0h0a.35.35,0,0,1,0-.65l1.29-.72A1.25,1.25,0,0,1,242.87,282.11Z" transform="translate(-10.28 -7.43)"/><path class="cls-39" d="M248.32,288s-2.11,1.55-3.25,1.6a8.91,8.91,0,0,1-5.59-1.17c-2.79-1.66-2.4-2.58-1.83-3.56a6,6,0,0,1,2.95-1.47l1-.33a3.12,3.12,0,0,1-2.2,2.18,11.17,11.17,0,0,1,6.37,2.61,4.1,4.1,0,0,1,2.69-.37Z" transform="translate(-10.28 -7.43)"/></g><path class="cls-42" d="M134.69,96.5a3.87,3.87,0,0,0,3.87-3.7l.92-22.07a4.79,4.79,0,1,0-9.58,0l.93,22.07a3.86,3.86,0,0,0,3.86,3.7Z" transform="translate(-10.28 -7.43)"/><path class="cls-42" d="M138.41,102.38a3.72,3.72,0,1,1-3.72-3.72A3.72,3.72,0,0,1,138.41,102.38Z" transform="translate(-10.28 -7.43)"/></g></svg>