<svg xmlns="http://www.w3.org/2000/svg" xmlns:xlink="http://www.w3.org/1999/xlink" viewBox="0 0 429.83 302.21"><defs><style>.cls-1{isolation:isolate;}.cls-2{mix-blend-mode:overlay;}.cls-3{fill:url(#linear-gradient);}.cls-4{fill:url(#linear-gradient-2);}.cls-5{fill:url(#linear-gradient-3);}.cls-6{fill:url(#linear-gradient-4);}.cls-7{fill:url(#linear-gradient-5);}.cls-8{fill:url(#linear-gradient-6);}.cls-9{fill:url(#linear-gradient-7);}.cls-10{fill:url(#linear-gradient-8);}.cls-11{fill:url(#linear-gradient-9);}.cls-12{fill:url(#linear-gradient-10);}.cls-13{fill:url(#linear-gradient-11);}.cls-14{fill:url(#linear-gradient-12);}.cls-15{fill:url(#linear-gradient-13);}.cls-16{fill:url(#linear-gradient-14);}.cls-17{fill:url(#linear-gradient-15);}.cls-18{fill:url(#linear-gradient-16);}.cls-19{fill:#353b40;}.cls-20{fill:#35aaf9;}.cls-21{fill:#596166;}.cls-22{fill:#cedae0;}.cls-23{fill:#fff;}.cls-24{fill:#8aa5b2;}.cls-25{fill:#8eb2ba;}.cls-26{fill:#dfeaed;}.cls-27{fill:#5b7172;}.cls-28{fill:#384444;}.cls-29{fill:#61c7ff;}</style><linearGradient id="linear-gradient" x1="57.35" y1="189.06" x2="73.69" y2="218.54" gradientUnits="userSpaceOnUse"><stop offset="0" stop-opacity="0"/><stop offset="0.87" stop-opacity="0.47"/><stop offset="1" stop-opacity="0.7"/></linearGradient><linearGradient id="linear-gradient-2" x1="153.98" y1="256.78" x2="177.44" y2="299.11" xlink:href="#linear-gradient"/><linearGradient id="linear-gradient-3" x1="281.33" y1="12.95" x2="302.07" y2="50.38" xlink:href="#linear-gradient"/><linearGradient id="linear-gradient-4" x1="128.06" y1="221.08" x2="139.71" y2="242.1" xlink:href="#linear-gradient"/><linearGradient id="linear-gradient-5" x1="289.91" y1="199.22" x2="332.92" y2="276.81" xlink:href="#linear-gradient"/><linearGradient id="linear-gradient-6" x1="130.26" y1="151.46" x2="140.12" y2="169.24" xlink:href="#linear-gradient"/><linearGradient id="linear-gradient-7" x1="341.4" y1="83.13" x2="347.55" y2="94.22" xlink:href="#linear-gradient"/><linearGradient id="linear-gradient-8" x1="363.28" y1="93.55" x2="373.13" y2="111.33" xlink:href="#linear-gradient"/><linearGradient id="linear-gradient-9" x1="162.49" y1="27.33" x2="259.17" y2="201.75" xlink:href="#linear-gradient"/><linearGradient id="linear-gradient-10" x1="105.4" y1="168.94" x2="125.06" y2="204.4" xlink:href="#linear-gradient"/><linearGradient id="linear-gradient-11" x1="176.43" y1="193.04" x2="196.09" y2="228.5" xlink:href="#linear-gradient"/><linearGradient id="linear-gradient-12" x1="34.31" y1="195.22" x2="71.05" y2="261.49" xlink:href="#linear-gradient"/><linearGradient id="linear-gradient-13" x1="382.66" y1="160.7" x2="419.4" y2="226.97" xlink:href="#linear-gradient"/><linearGradient id="linear-gradient-14" x1="89.28" y1="151.51" x2="92.46" y2="157.25" xlink:href="#linear-gradient"/><linearGradient id="linear-gradient-15" x1="347.3" y1="116.54" x2="366.82" y2="151.76" xlink:href="#linear-gradient"/><linearGradient id="linear-gradient-16" x1="51.26" y1="109.25" x2="67.6" y2="138.74" xlink:href="#linear-gradient"/></defs><title>IPA-Grou-Service-Corporate-Identity</title><g class="cls-1"><g id="OBJECTS"><g class="cls-2"><polygon class="cls-3" points="58.66 188.48 32.12 203.78 65.51 223.08 92.03 207.74 98.89 203.78 65.53 184.52 58.66 188.48"/><path class="cls-4" d="M218.94,269.83,179.5,247.06a8,8,0,0,0-8,0l-59,34.09a1.48,1.48,0,0,0-.74,1.16h0v2.41h0a1.49,1.49,0,0,0,.76,1.34l39.45,22.77a8,8,0,0,0,8,0l59-34.09a1.48,1.48,0,0,0,.75-1.27h0V271.1h0A1.49,1.49,0,0,0,218.94,269.83Z" transform="translate(-8.13 -7.69)"/><path class="cls-5" d="M258.74,30.28l36.55,21.11a4.9,4.9,0,0,0,4.94,0l24.44-14.1a.92.92,0,0,0,.47-.82h0V33.78h0a.94.94,0,0,0-.46-.74L288.1,11.93a5,5,0,0,0-4.94,0L258.74,26a1,1,0,0,0-.47.77h0v2.69h0A.92.92,0,0,0,258.74,30.28Z" transform="translate(-8.13 -7.69)"/><path class="cls-6" d="M131.11,246.87l28.3-16.35a.69.69,0,0,0,.36-.61h0s0,0,0,0v-2s0,0,0,0v0h0a.69.69,0,0,0-.36-.6L140.5,216.31a3.85,3.85,0,0,0-3.83,0l-28.31,16.35a.71.71,0,0,0-.35.57h0v2.08h0a.71.71,0,0,0,.36.64l18.92,10.92A3.85,3.85,0,0,0,131.11,246.87Z" transform="translate(-8.13 -7.69)"/><path class="cls-7" d="M411.7,225.77l-12.41-7.16.48-.28a1,1,0,0,0,0-1.71l-.82-.47.82-.47a1,1,0,0,0,0-1.71l-15.85-9.16a2.38,2.38,0,0,1-1.17-2.17,5.6,5.6,0,0,0-2.83-5.1h0a17.16,17.16,0,0,0-11.11-2.11,2.44,2.44,0,0,1-1.59-.28l-15.94-9.22a2.67,2.67,0,0,0-2.69,0l-3,1.7-14.23-8.22a5.75,5.75,0,0,0-5.76,0L211.12,245.55a1.59,1.59,0,0,0-.45,2.35,1.57,1.57,0,0,0,.45,2.34l80.29,46.38a5.77,5.77,0,0,0,5.77,0L411.7,230.47a6.36,6.36,0,0,0,0-4.7Z" transform="translate(-8.13 -7.69)"/><path class="cls-8" d="M132.27,150.87a.93.93,0,0,0-.94,0L127.64,153l-4.15,2.41v4.3a.89.89,0,0,0,.43.75l11.68,6.74a.72.72,0,0,0,.75,0l2.52-1.45,1.69.95,2.07,1.17,2.09-1.22,3.12-1.82v-2.36h0l-3.54-2V157.8Z" transform="translate(-8.13 -7.69)"/><path class="cls-9" d="M337.57,96.51l2.07-1.17,1.68-1,2.52,1.46a.79.79,0,0,0,.76,0l11.67-6.75a.85.85,0,0,0,.43-.75v-4.3l-4.16-2.4-3.69-2.13a.93.93,0,0,0-.94,0l-12,6.93v2.66l-3.53,2h0v2.37l3.13,1.82Z" transform="translate(-8.13 -7.69)"/><path class="cls-10" d="M356.49,101.78a.88.88,0,0,0,.44.76l11.67,6.74a.74.74,0,0,0,.76,0l2.52-1.45,1.68,1,2.07,1.17,2.09-1.22,3.12-1.82v-2.37h0l-3.54-2V99.89l-12-6.94a1,1,0,0,0-.93,0l-3.7,2.13-4.15,2.41Z" transform="translate(-8.13 -7.69)"/><path class="cls-11" d="M71.37,93.15l.15.1,67.93,39.21a4,4,0,0,0,4.09,0l76.25-44V104.7a2.51,2.51,0,0,0,1.25,2.16l4.38,2.53h0l-4.68-2.71a1.89,1.89,0,0,0-1.87,0l-64.44,37.19a2.75,2.75,0,0,0-1,1L248.82,200a4.28,4.28,0,0,0,1.58.53,4.28,4.28,0,0,1-1.58-.53l-95.43-55.1a2.75,2.75,0,0,0-.37,1.41v1.9a2.83,2.83,0,0,0,1.4,2.42l94.39,54.5a4.24,4.24,0,0,0,4.27,0l63.2-36.49a2.82,2.82,0,0,0,1.4-2.43v-1.9a2.84,2.84,0,0,0-1.4-2.43l-5.39-3.11h0l4.77,2.75a4.07,4.07,0,0,0,4.07,0,4.85,4.85,0,0,0,2.42-4.2V85.81a4.87,4.87,0,0,0-2.44-4.22L226.67,27.87a4.85,4.85,0,0,0-4.87,0,4,4,0,0,0-1.49,1.5,4.09,4.09,0,0,0-.52,2V57.24L176.17,32.06,165.3,25.78,70.13,80.7V90.83A2.79,2.79,0,0,0,71.37,93.15Z" transform="translate(-8.13 -7.69)"/><path class="cls-12" d="M125.42,204.2l15.32-8.84,3.81-2.2a3,3,0,0,0,0-3.83l-35-20.18a4.51,4.51,0,0,0-4.52,0l-3.93,2.26L91.43,177l-5.52,3.2a3,3,0,0,0,0,3.83l21.84,12.61,13.14,7.58A4.53,4.53,0,0,0,125.42,204.2Z" transform="translate(-8.13 -7.69)"/><path class="cls-13" d="M215.57,213.43l-35-20.18a4.55,4.55,0,0,0-4.53,0l-3.93,2.27-9.66,5.56-5.53,3.21a3,3,0,0,0,0,3.83l21.84,12.6,13.14,7.59a4.53,4.53,0,0,0,4.53,0l15.32-8.85,3.81-2.19a1.6,1.6,0,0,0,.69-1.92A1.57,1.57,0,0,0,215.57,213.43Z" transform="translate(-8.13 -7.69)"/><path class="cls-14" d="M88.25,245.58v0l-3.34-1.92L24.35,208.71l-6.46-1.5-3.68-.85,2.88,2.91,5,5,60.73,35.07,3.77,2.17.77.45v0a.77.77,0,0,0,.33.1c1.06,0,1.92-1.15,1.92-3a5,5,0,0,0-1-3.23A2.32,2.32,0,0,0,88.25,245.58Z" transform="translate(-8.13 -7.69)"/><path class="cls-15" d="M436.9,211.32a1.42,1.42,0,0,0-.3-.25v0l-3.34-1.93-60.56-34.92-6.46-1.49-3.69-.85,2.89,2.9,5,5,60.74,35.06,3.76,2.18.77.44v0a.62.62,0,0,0,.33.11c1.06,0,1.92-1.16,1.92-3A4.94,4.94,0,0,0,436.9,211.32Z" transform="translate(-8.13 -7.69)"/><path class="cls-16" d="M67.66,166.85c0,1.84.86,3,1.92,3a.68.68,0,0,0,.33-.11v0l.77-.44,3.77-2.18,31.89-18.24,5-5,2.88-2.9-3.68.85-6.46,1.5L72.35,161.4,69,163.33v0a2.21,2.21,0,0,0-.3.25A5,5,0,0,0,67.66,166.85Z" transform="translate(-8.13 -7.69)"/><polygon class="cls-17" points="351.71 114.25 325.24 129.5 325.24 136.99 325.25 136.99 358.63 156.29 392.02 136.99 392.02 136.99 351.71 114.25"/><polygon class="cls-18" points="85.94 127.94 92.8 123.97 59.44 104.71 52.57 108.67 26.03 123.97 59.42 143.28 85.94 127.94"/></g><polygon class="cls-19" points="92.81 200.19 59.45 180.93 52.58 184.89 85.95 204.16 92.81 200.19"/><polygon class="cls-20" points="52.58 184.89 26.04 200.19 59.42 219.5 85.95 204.16 52.58 184.89"/><polygon class="cls-19" points="75.24 204.7 51.29 190.88 49.07 192.16 73 205.99 75.24 204.7"/><polygon class="cls-19" points="62.48 203.31 46.01 193.9 43.79 195.18 60.24 204.6 62.48 203.31"/><polygon class="cls-19" points="205.48 259.83 205.48 262.2 200.96 262.2 200.96 259.97 205.48 259.83"/><polygon class="cls-19" points="97.51 271.04 101.98 271.04 101.98 274.04 97.51 273.45 97.51 271.04"/><path class="cls-19" d="M106.39,279.86l59-34.09a8,8,0,0,1,8,0l39.43,22.77a1.51,1.51,0,0,1,0,2.62l-59,34.08a8,8,0,0,1-8,0l-39.46-22.76A1.51,1.51,0,0,1,106.39,279.86Z" transform="translate(-8.13 -7.69)"/><path class="cls-21" d="M106.39,277.57l59-34.09a8,8,0,0,1,8,0l39.43,22.77a1.51,1.51,0,0,1,0,2.62l-59,34.08a8,8,0,0,1-8,0l-39.46-22.76A1.51,1.51,0,0,1,106.39,277.57Z" transform="translate(-8.13 -7.69)"/><path class="cls-22" d="M115,277.48l51.2-29.56a7,7,0,0,1,6.92,0l34.19,19.75a1.28,1.28,0,0,1,.48.47,1.31,1.31,0,0,0-.48-1.8L173.12,246.6a6.9,6.9,0,0,0-6.92,0L115,276.15a1.31,1.31,0,0,0-.47,1.8A1.41,1.41,0,0,1,115,277.48Z" transform="translate(-8.13 -7.69)"/><path class="cls-23" d="M115,278.43l34.21,19.74a6.94,6.94,0,0,0,6.93,0l51.17-29.55a1.35,1.35,0,0,0,.48-.47,1.28,1.28,0,0,0-.48-.47l-34.19-19.75a7,7,0,0,0-6.92,0L115,277.48a1.41,1.41,0,0,0-.47.47A1.43,1.43,0,0,0,115,278.43Z" transform="translate(-8.13 -7.69)"/><path class="cls-19" d="M131.54,289.37l-1.72-1a1.46,1.46,0,0,0-1.43,0l-1.88,1.09a.5.5,0,0,0,0,.87l1.79,1a1.41,1.41,0,0,0,1.38,0l1.84-1A.5.5,0,0,0,131.54,289.37Z" transform="translate(-8.13 -7.69)"/><path class="cls-24" d="M169.45,252.27l.35-.16a1.4,1.4,0,0,1,1.29.06L196.71,267a.3.3,0,0,1,0,.54l-.42.17a1.4,1.4,0,0,1-1.23-.09L169.43,252.8A.3.3,0,0,1,169.45,252.27Z" transform="translate(-8.13 -7.69)"/><path class="cls-24" d="M194.65,271.2a.23.23,0,0,1-.14,0l-30.6-17.66a.3.3,0,0,1,.3-.52l30.59,17.67a.3.3,0,0,1,.11.41A.29.29,0,0,1,194.65,271.2Z" transform="translate(-8.13 -7.69)"/><path class="cls-24" d="M192,272.71a.23.23,0,0,1-.14,0L161.28,255a.29.29,0,0,1-.1-.41.28.28,0,0,1,.4-.1l30.59,17.67a.29.29,0,0,1,.11.4A.28.28,0,0,1,192,272.71Z" transform="translate(-8.13 -7.69)"/><path class="cls-24" d="M189.39,274.21a.23.23,0,0,1-.14,0l-30.6-17.67a.28.28,0,0,1-.1-.4.29.29,0,0,1,.4-.11l30.59,17.67a.29.29,0,0,1,.11.4A.28.28,0,0,1,189.39,274.21Z" transform="translate(-8.13 -7.69)"/><path class="cls-24" d="M186.76,275.72a.33.33,0,0,1-.14,0L156,258a.3.3,0,0,1,.3-.52l30.59,17.67a.31.31,0,0,1,.11.41A.3.3,0,0,1,186.76,275.72Z" transform="translate(-8.13 -7.69)"/><path class="cls-24" d="M184.13,277.22a.23.23,0,0,1-.14,0l-30.6-17.67a.28.28,0,0,1-.1-.4.29.29,0,0,1,.4-.11l30.59,17.67a.29.29,0,0,1,.11.4A.28.28,0,0,1,184.13,277.22Z" transform="translate(-8.13 -7.69)"/><path class="cls-24" d="M181.5,278.72a.23.23,0,0,1-.14,0L150.76,261a.3.3,0,0,1,.3-.52l30.59,17.67a.3.3,0,0,1,.11.41A.29.29,0,0,1,181.5,278.72Z" transform="translate(-8.13 -7.69)"/><path class="cls-24" d="M178.87,280.23a.23.23,0,0,1-.14,0l-30.6-17.67a.29.29,0,0,1-.1-.41.28.28,0,0,1,.4-.1L179,279.68a.29.29,0,0,1,.11.4A.3.3,0,0,1,178.87,280.23Z" transform="translate(-8.13 -7.69)"/><path class="cls-24" d="M176.24,281.73a.23.23,0,0,1-.14,0L145.5,264a.28.28,0,0,1-.1-.4.29.29,0,0,1,.4-.11l30.59,17.67a.29.29,0,0,1,.11.4A.28.28,0,0,1,176.24,281.73Z" transform="translate(-8.13 -7.69)"/><path class="cls-24" d="M173.61,283.24a.33.33,0,0,1-.14,0l-30.6-17.67a.3.3,0,0,1,.3-.52l30.59,17.67a.31.31,0,0,1,.11.41A.3.3,0,0,1,173.61,283.24Z" transform="translate(-8.13 -7.69)"/><path class="cls-24" d="M171,284.74a.23.23,0,0,1-.14,0L140.24,267a.28.28,0,0,1-.1-.4.29.29,0,0,1,.4-.11l30.59,17.67a.29.29,0,0,1,.11.4A.28.28,0,0,1,171,284.74Z" transform="translate(-8.13 -7.69)"/><path class="cls-24" d="M168.35,286.24a.23.23,0,0,1-.14,0l-30.6-17.67a.28.28,0,0,1-.1-.4.29.29,0,0,1,.4-.11l30.59,17.67a.3.3,0,0,1,.11.41A.29.29,0,0,1,168.35,286.24Z" transform="translate(-8.13 -7.69)"/><path class="cls-24" d="M165.72,287.75a.33.33,0,0,1-.14,0L135,270a.29.29,0,0,1-.1-.41.28.28,0,0,1,.4-.1l30.59,17.66a.31.31,0,0,1,.11.41A.3.3,0,0,1,165.72,287.75Z" transform="translate(-8.13 -7.69)"/><path class="cls-24" d="M163.09,289.25a.23.23,0,0,1-.14,0l-30.6-17.67a.28.28,0,0,1-.1-.4.29.29,0,0,1,.4-.11l30.59,17.67a.29.29,0,0,1,.11.4A.28.28,0,0,1,163.09,289.25Z" transform="translate(-8.13 -7.69)"/><path class="cls-24" d="M160.46,290.76a.33.33,0,0,1-.14,0l-30.6-17.67a.3.3,0,0,1,.3-.52l30.59,17.67a.31.31,0,0,1,.11.41A.3.3,0,0,1,160.46,290.76Z" transform="translate(-8.13 -7.69)"/><path class="cls-24" d="M157.83,292.26a.23.23,0,0,1-.14,0l-30.6-17.67a.28.28,0,0,1-.1-.4.29.29,0,0,1,.4-.11L158,291.71a.29.29,0,0,1,.11.4A.28.28,0,0,1,157.83,292.26Z" transform="translate(-8.13 -7.69)"/><path class="cls-24" d="M155.2,293.76a.23.23,0,0,1-.14,0l-30.6-17.67a.28.28,0,0,1-.1-.4.29.29,0,0,1,.4-.11l30.59,17.67a.3.3,0,0,1,.11.41A.29.29,0,0,1,155.2,293.76Z" transform="translate(-8.13 -7.69)"/><path class="cls-24" d="M152.57,295.27a.33.33,0,0,1-.14,0l-30.6-17.67a.29.29,0,0,1-.1-.41.28.28,0,0,1,.4-.1l30.59,17.66a.31.31,0,0,1,.11.41A.3.3,0,0,1,152.57,295.27Z" transform="translate(-8.13 -7.69)"/><rect class="cls-19" x="244.06" y="15.53" width="5.72" height="2.69"/><rect class="cls-19" x="305.21" y="22.51" width="5.72" height="2.69"/><path class="cls-19" d="M318.59,32.09,282,11a4.9,4.9,0,0,0-4.94,0l-24.43,14.1a.94.94,0,0,0,0,1.62l36.56,21.11a5,5,0,0,0,4.94,0l24.44-14.1A.94.94,0,0,0,318.59,32.09Z" transform="translate(-8.13 -7.69)"/><path class="cls-20" d="M318.59,29.46,282,8.35a5,5,0,0,0-4.94,0l-24.43,14.1a.94.94,0,0,0,0,1.62l36.56,21.11a4.9,4.9,0,0,0,4.94,0l24.44-14.1A.94.94,0,0,0,318.59,29.46Z" transform="translate(-8.13 -7.69)"/><path class="cls-19" d="M281.55,10.28a4.32,4.32,0,0,0-4.29,0L256.08,22.51a.81.81,0,0,0,0,1.4l6.26,3.62,24.53-14.17Z" transform="translate(-8.13 -7.69)"/><path class="cls-21" d="M313.25,28.59l-6.46-3.74L282.25,39l5.53,3.19a4.32,4.32,0,0,0,4.29,0L313.25,30a.76.76,0,0,0,.3-.29A.8.8,0,0,0,313.25,28.59Z" transform="translate(-8.13 -7.69)"/><polygon class="cls-21" points="278.75 5.67 254.21 19.84 260.15 23.27 284.69 9.1 278.75 5.67"/><polygon class="cls-19" points="284.69 9.1 260.15 23.27 274.13 31.34 298.66 17.17 284.69 9.1"/><path class="cls-19" d="M303.26,36.81l.9-.52a.75.75,0,0,1,.74,0l1,.57a.26.26,0,0,1,0,.45l-.94.51a.74.74,0,0,1-.72,0l-1-.55A.25.25,0,0,1,303.26,36.81Z" transform="translate(-8.13 -7.69)"/><rect class="cls-19" x="149.26" y="224.24" width="4.43" height="2.08" transform="translate(294.83 442.88) rotate(180)"/><rect class="cls-19" x="101.91" y="229.64" width="4.43" height="2.08" transform="translate(200.13 453.68) rotate(180)"/><path class="cls-19" d="M102.28,231.11l28.31-16.35a3.85,3.85,0,0,1,3.83,0l18.91,10.92a.73.73,0,0,1,0,1.26L125,243.28a3.8,3.8,0,0,1-3.83,0l-18.92-10.91A.72.72,0,0,1,102.28,231.11Z" transform="translate(-8.13 -7.69)"/><path class="cls-24" d="M102.28,229.08l28.31-16.35a3.8,3.8,0,0,1,3.83,0l18.91,10.92a.72.72,0,0,1,0,1.25L125,241.25a3.85,3.85,0,0,1-3.83,0l-18.92-10.92A.72.72,0,0,1,102.28,229.08Z" transform="translate(-8.13 -7.69)"/><path class="cls-19" d="M130.69,215.6a2.94,2.94,0,0,1,2.95,0L148.22,224a.57.57,0,0,1,.2.77.55.55,0,0,1-.2.2l-4.31,2.49L127,217.71Z" transform="translate(-8.13 -7.69)"/><path class="cls-21" d="M108.86,228.2l4.45-2.57,16.89,9.76-3.8,2.19a2.94,2.94,0,0,1-3,0l-14.59-8.41a.57.57,0,0,1-.2-.21A.55.55,0,0,1,108.86,228.2Z" transform="translate(-8.13 -7.69)"/><polygon class="cls-21" points="118.89 210.02 135.78 219.78 131.69 222.14 114.81 212.38 118.89 210.02"/><polygon class="cls-19" points="114.81 212.38 131.69 222.14 122.07 227.7 105.18 217.94 114.81 212.38"/><path class="cls-19" d="M115.89,234.28l-1.3-.75a1.08,1.08,0,0,0-1.07,0l-1.42.82a.37.37,0,0,0,0,.65l1.35.73a1.09,1.09,0,0,0,1.05,0l1.38-.79A.38.38,0,0,0,115.89,234.28Z" transform="translate(-8.13 -7.69)"/><path class="cls-19" d="M142.59,218.47h0a1.48,1.48,0,0,0-1.47,0l0,0a.16.16,0,0,0,0,.27h0a1.46,1.46,0,0,0,1.42,0l.05,0A.15.15,0,0,0,142.59,218.47Z" transform="translate(-8.13 -7.69)"/><path class="cls-25" d="M393.68,213l-15.84-9.16a2.41,2.41,0,0,1-1.18-2.17,5.62,5.62,0,0,0-2.82-5.11h0a17.24,17.24,0,0,0-11.11-2.1,2.48,2.48,0,0,1-1.6-.29L345.19,185a2.69,2.69,0,0,0-2.69,0l-5.74,3.31a1,1,0,0,0,0,1.71l48.54,28a2.69,2.69,0,0,0,2.69,0l5.69-3.29A1,1,0,0,0,393.68,213Z" transform="translate(-8.13 -7.69)"/><path class="cls-19" d="M205,246.66a1.59,1.59,0,0,1,0-2.75l114.52-66.14a5.75,5.75,0,0,1,5.76,0c13.23,7.64,68.15,39.34,80.29,46.36a1.58,1.58,0,0,1,0,2.75L291.1,293a5.77,5.77,0,0,1-5.77,0Z" transform="translate(-8.13 -7.69)"/><path class="cls-21" d="M205,244.72a1.59,1.59,0,0,1,0-2.75l114.52-66.14a5.75,5.75,0,0,1,5.76,0l80.29,46.36a1.59,1.59,0,0,1,0,2.76L291.1,291.1a5.77,5.77,0,0,1-5.77,0Z" transform="translate(-8.13 -7.69)"/><path class="cls-23" d="M215.5,242.16a1.46,1.46,0,0,1,0-2.54l105.58-61a5.3,5.3,0,0,1,5.31,0l74,42.74a1.47,1.47,0,0,1,0,2.55l-105.58,61a5.3,5.3,0,0,1-5.31,0Z" transform="translate(-8.13 -7.69)"/><path class="cls-19" d="M336.76,185.65a1,1,0,0,0,0,1.71l48.54,28a2.69,2.69,0,0,0,2.69,0l1-.59-51.37-29.66Z" transform="translate(-8.13 -7.69)"/><path class="cls-20" d="M393.68,210.39l-15.84-9.16a2.4,2.4,0,0,1-1.18-2.17,5.59,5.59,0,0,0-2.82-5.1h0a17.19,17.19,0,0,0-11.11-2.11,2.48,2.48,0,0,1-1.6-.29l-15.94-9.22a2.69,2.69,0,0,0-2.69,0l-4.86,2.8L389,214.8l4.67-2.7A1,1,0,0,0,393.68,210.39Z" transform="translate(-8.13 -7.69)"/><polygon class="cls-19" points="334.85 176.65 333.26 177.56 380.09 204.59 381.66 203.68 334.85 176.65"/><path class="cls-26" d="M388.33,224.7a.62.62,0,0,1-.32-.09l-67.36-38.9a.65.65,0,0,1,.66-1.13l67.35,38.9a.65.65,0,0,1-.33,1.22Z" transform="translate(-8.13 -7.69)"/><path class="cls-26" d="M382.54,228a.62.62,0,0,1-.32-.09L314.86,189a.65.65,0,0,1,.66-1.13l67.35,38.9a.65.65,0,0,1-.33,1.22Z" transform="translate(-8.13 -7.69)"/><path class="cls-26" d="M376.75,231.32a.62.62,0,0,1-.32-.09l-67.36-38.9a.65.65,0,0,1,.66-1.13l67.35,38.9a.65.65,0,0,1-.33,1.22Z" transform="translate(-8.13 -7.69)"/><path class="cls-26" d="M371,234.63a.62.62,0,0,1-.32-.09l-67.36-38.9a.64.64,0,0,1-.23-.89.65.65,0,0,1,.89-.24l67.35,38.9a.65.65,0,0,1-.33,1.22Z" transform="translate(-8.13 -7.69)"/><path class="cls-26" d="M365.17,237.94a.62.62,0,0,1-.32-.09L297.49,199a.65.65,0,0,1-.24-.89.67.67,0,0,1,.9-.24l67.35,38.9a.65.65,0,0,1-.33,1.22Z" transform="translate(-8.13 -7.69)"/><path class="cls-26" d="M359.38,241.25a.62.62,0,0,1-.32-.09l-67.36-38.9a.65.65,0,0,1-.24-.89.67.67,0,0,1,.9-.24L359.71,240a.65.65,0,0,1-.33,1.22Z" transform="translate(-8.13 -7.69)"/><path class="cls-26" d="M353.59,244.56a.62.62,0,0,1-.32-.09l-67.36-38.9a.65.65,0,0,1-.24-.89.66.66,0,0,1,.9-.24l67.35,38.9a.67.67,0,0,1,.24.9A.65.65,0,0,1,353.59,244.56Z" transform="translate(-8.13 -7.69)"/><path class="cls-26" d="M347.8,247.87a.72.72,0,0,1-.32-.08l-67.36-38.9a.65.65,0,1,1,.66-1.13l67.35,38.9a.65.65,0,0,1-.33,1.21Z" transform="translate(-8.13 -7.69)"/><path class="cls-26" d="M342,251.18a.61.61,0,0,1-.32-.08l-67.36-38.9a.65.65,0,1,1,.66-1.13L342.34,250a.65.65,0,0,1,.24.89A.65.65,0,0,1,342,251.18Z" transform="translate(-8.13 -7.69)"/><path class="cls-26" d="M336.22,254.49a.67.67,0,0,1-.33-.08l-67.35-38.9a.65.65,0,1,1,.66-1.13l67.35,38.9a.65.65,0,0,1-.33,1.21Z" transform="translate(-8.13 -7.69)"/><path class="cls-26" d="M330.43,257.81a.68.68,0,0,1-.33-.09l-67.35-38.9a.65.65,0,0,1-.24-.89.65.65,0,0,1,.89-.24l67.36,38.9a.65.65,0,0,1,.24.89A.67.67,0,0,1,330.43,257.81Z" transform="translate(-8.13 -7.69)"/><path class="cls-26" d="M324.64,261.12a.68.68,0,0,1-.33-.09L257,222.13a.65.65,0,0,1,.65-1.13L325,259.9a.65.65,0,0,1,.24.89A.67.67,0,0,1,324.64,261.12Z" transform="translate(-8.13 -7.69)"/><path class="cls-26" d="M318.85,264.43a.68.68,0,0,1-.33-.09l-67.35-38.9a.65.65,0,1,1,.65-1.13l67.36,38.9a.65.65,0,0,1,.24.89A.67.67,0,0,1,318.85,264.43Z" transform="translate(-8.13 -7.69)"/><path class="cls-26" d="M313.06,267.74a.68.68,0,0,1-.33-.09l-67.35-38.9a.65.65,0,1,1,.65-1.13l67.36,38.9a.65.65,0,0,1,.24.89A.67.67,0,0,1,313.06,267.74Z" transform="translate(-8.13 -7.69)"/><path class="cls-26" d="M307.27,271.05a.68.68,0,0,1-.33-.09l-67.35-38.9a.65.65,0,0,1,.65-1.13l67.36,38.9a.66.66,0,0,1-.33,1.22Z" transform="translate(-8.13 -7.69)"/><path class="cls-26" d="M301.48,274.36a.68.68,0,0,1-.33-.09l-67.35-38.9a.65.65,0,0,1,.65-1.13l67.36,38.9a.64.64,0,0,1,.23.89A.65.65,0,0,1,301.48,274.36Z" transform="translate(-8.13 -7.69)"/><path class="cls-26" d="M295.69,277.67a.68.68,0,0,1-.33-.09L228,238.68a.65.65,0,0,1-.24-.89.66.66,0,0,1,.89-.24L296,276.45a.66.66,0,0,1,.23.9A.64.64,0,0,1,295.69,277.67Z" transform="translate(-8.13 -7.69)"/><path class="cls-19" d="M117.4,156.11v-4.3l20.81,2.41v4.3a.85.85,0,0,1-.43.75l-7.51,4.34a.74.74,0,0,1-.76,0l-11.67-6.74A.88.88,0,0,1,117.4,156.11Z" transform="translate(-8.13 -7.69)"/><path class="cls-21" d="M121.56,149.41l3.69-2.13a1,1,0,0,1,.94,0l12,6.94-7.86,4.53a.93.93,0,0,1-.94,0l-12-6.94Z" transform="translate(-8.13 -7.69)"/><polygon class="cls-22" points="133.62 151.18 128.84 148.48 123.63 151.49 123.63 151.49 128.43 154.2 133.62 151.18"/><polygon class="cls-27" points="131.68 150.63 130.8 150.13 129.84 150.68 129.84 150.68 130.72 151.19 131.68 150.63"/><polygon class="cls-27" points="128.62 152.34 127.74 151.85 126.77 152.4 126.77 152.4 127.66 152.9 128.62 152.34"/><polygon class="cls-24" points="128.43 154.2 123.63 151.49 123.63 153.89 126.34 155.42 128.41 156.59 128.41 154.21 128.43 154.2"/><polygon class="cls-24" points="133.62 151.18 128.43 154.2 128.41 154.21 128.41 156.59 130.5 155.37 133.62 153.55 133.62 151.19 133.62 151.18"/><polygon class="cls-27" points="131.46 152.69 132.93 153.59 132.93 151.85 131.46 152.69"/><polygon class="cls-28" points="129.1 154.06 129.1 155.82 132.93 153.59 131.46 152.69 129.1 154.06"/><path class="cls-19" d="M350.62,84.77v-4.3l-20.8,2.4v4.31a.87.87,0,0,0,.44.75l7.51,4.34a.77.77,0,0,0,.75,0l11.68-6.75A.87.87,0,0,0,350.62,84.77Z" transform="translate(-8.13 -7.69)"/><path class="cls-21" d="M346.46,78.06l-3.69-2.12a.93.93,0,0,0-.94,0l-12,6.93,7.86,4.53a.93.93,0,0,0,.94,0l12-6.93Z" transform="translate(-8.13 -7.69)"/><polygon class="cls-22" points="318.15 79.84 322.92 77.14 328.14 80.14 328.14 80.15 323.34 82.86 318.15 79.84"/><polygon class="cls-27" points="320.08 79.28 320.96 78.78 321.93 79.34 321.93 79.34 321.04 79.84 320.08 79.28"/><polygon class="cls-27" points="323.14 81 324.03 80.5 324.99 81.06 324.99 81.06 324.1 81.56 323.14 81"/><polygon class="cls-24" points="323.34 82.86 328.14 80.15 328.14 82.54 325.43 84.07 323.36 85.24 323.36 82.87 323.34 82.86"/><polygon class="cls-24" points="318.15 79.84 323.34 82.86 323.36 82.87 323.36 85.24 321.27 84.03 318.14 82.21 318.14 79.84 318.15 79.84"/><polygon class="cls-27" points="320.3 81.35 318.83 82.24 318.83 80.5 320.3 81.35"/><polygon class="cls-28" points="322.67 82.71 322.67 84.48 318.83 82.24 320.3 81.35 322.67 82.71"/><path class="cls-19" d="M350.41,98.2V93.9l20.8,2.4v4.31a.86.86,0,0,1-.44.75l-7.51,4.34a.79.79,0,0,1-.76,0L350.84,99A.85.85,0,0,1,350.41,98.2Z" transform="translate(-8.13 -7.69)"/><path class="cls-21" d="M354.57,91.5l3.69-2.13a.93.93,0,0,1,.94,0l12,6.93-7.86,4.54a1,1,0,0,1-.94,0l-12-6.93Z" transform="translate(-8.13 -7.69)"/><polygon class="cls-22" points="366.63 93.27 361.85 90.57 356.64 93.58 356.64 93.58 361.44 96.29 366.63 93.27"/><polygon class="cls-27" points="364.7 92.71 363.81 92.22 362.85 92.77 362.85 92.77 363.74 93.27 364.7 92.71"/><polygon class="cls-27" points="361.63 94.43 360.75 93.93 359.79 94.49 359.79 94.49 360.67 94.99 361.63 94.43"/><polygon class="cls-24" points="361.44 96.29 356.64 93.58 356.64 95.97 359.35 97.51 361.42 98.68 361.42 96.3 361.44 96.29"/><polygon class="cls-24" points="366.63 93.27 361.44 96.29 361.42 96.3 361.42 98.68 363.51 97.46 366.63 95.64 366.63 93.27 366.63 93.27"/><polygon class="cls-27" points="364.47 94.78 365.95 95.68 365.95 93.93 364.47 94.78"/><polygon class="cls-28" points="362.11 96.14 362.11 97.91 365.95 95.68 364.47 94.78 362.11 96.14"/><path class="cls-19" d="M65.08,87.42a2.07,2.07,0,0,1-1-1.79v1.62a2.8,2.8,0,0,0,1.24,2.31l1.81-1Z" transform="translate(-8.13 -7.69)"/><path class="cls-20" d="M229.53,73.69,137.1,127.05a3.4,3.4,0,0,1-3.38,0L67.09,88.58l-1.81,1,.16.11,67.92,39.21a4.11,4.11,0,0,0,4.1,0l91.71-52.94a2.78,2.78,0,0,0,1.4-2.42V71.9A2.07,2.07,0,0,1,229.53,73.69Z" transform="translate(-8.13 -7.69)"/><path class="cls-19" d="M64,77.12v8.51a2.07,2.07,0,0,0,1,1.79l2,1.16V76.87Z" transform="translate(-8.13 -7.69)"/><polygon class="cls-23" points="58.97 69.18 58.97 70.81 62.26 68.91 58.97 69.18"/><path class="cls-23" d="M138.4,119.74a6,6,0,0,1-6,0L74.92,86.54,67.09,82v6.56l66.63,38.47a3.4,3.4,0,0,0,3.38,0l92.43-53.36a2.07,2.07,0,0,0,1-1.79V66.65Z" transform="translate(-8.13 -7.69)"/><path class="cls-26" d="M132.43,119.74a6,6,0,0,0,6,0l92.17-53.09V63.39L70.39,76.6l-3.3,1.9V82l7.83,4.52Z" transform="translate(-8.13 -7.69)"/><polygon class="cls-19" points="151.09 14.51 55.92 69.43 66.79 75.71 161.96 20.79 151.09 14.51"/><path class="cls-20" d="M170.09,28.47,74.92,83.4l57.51,33.2a6,6,0,0,0,6,0l92.17-53.21Z" transform="translate(-8.13 -7.69)"/><path class="cls-23" d="M162,42.06,144.51,52.18a.85.85,0,0,0,0,1.48l31.63,18.26a2,2,0,0,0,2,0L195.67,61.8a.85.85,0,0,0,0-1.48L164,42.06A2,2,0,0,0,162,42.06Z" transform="translate(-8.13 -7.69)"/><path class="cls-26" d="M162.89,45.12l-12.42,7.17a.6.6,0,0,0,0,1.05l25.4,15a1.42,1.42,0,0,0,1.41,0l12.43-7.17a.61.61,0,0,0,0-1l-25.4-15A1.44,1.44,0,0,0,162.89,45.12Z" transform="translate(-8.13 -7.69)"/><path class="cls-23" d="M163.93,46.8,153.3,52.93a.52.52,0,0,0,0,.9L175,66.68a1.19,1.19,0,0,0,1.21,0l10.63-6.13a.52.52,0,0,0,0-.9L165.14,46.8A1.19,1.19,0,0,0,163.93,46.8Z" transform="translate(-8.13 -7.69)"/><path class="cls-24" d="M138.47,186.81l-35-20.18a4.53,4.53,0,0,0-4.53,0L95,168.89l-9.66,5.57-5.52,3.2a1.6,1.6,0,0,0,0,2.77L101.67,193l13.14,7.59a4.53,4.53,0,0,0,4.53,0l15.32-8.84,3.81-2.2A1.6,1.6,0,0,0,138.47,186.81Z" transform="translate(-8.13 -7.69)"/><path class="cls-23" d="M107.32,174.93a11.9,11.9,0,0,1,1.28,5.31c0,4.44-2.6,8.52-6.93,11.73l13.14,7.59a4.53,4.53,0,0,0,4.53,0l15.32-8.85Z" transform="translate(-8.13 -7.69)"/><path class="cls-22" d="M108.6,180.24a11.9,11.9,0,0,0-1.28-5.31L95,167.83l-9.66,5.57-5.52,3.2a1.6,1.6,0,0,0,0,2.77L101.67,192C106,188.76,108.6,184.68,108.6,180.24Z" transform="translate(-8.13 -7.69)"/><path class="cls-19" d="M138.47,188.52a1.6,1.6,0,0,0,0-2.77l-35-20.18a4.53,4.53,0,0,0-4.53,0L95,167.83l39.65,22.88Z" transform="translate(-8.13 -7.69)"/><path class="cls-24" d="M115.45,192h-.21a1,1,0,0,1,0,.17c0,1.06-1.37,1.92-3.11,2,.14,1,1.57,1.82,3.31,1.82s3.33-.89,3.33-2S117.29,192,115.45,192Z" transform="translate(-8.13 -7.69)"/><path class="cls-20" d="M115.24,192c-.15-1-1.57-1.82-3.31-1.82s-3.33.89-3.33,2,1.49,2,3.33,2h.21a.91.91,0,0,1,0-.17C112.13,192.93,113.5,192.07,115.24,192Z" transform="translate(-8.13 -7.69)"/><path class="cls-23" d="M115.25,192.17a1,1,0,0,0,0-.17c-1.74.07-3.11.93-3.11,2a.91.91,0,0,0,0,.17C113.88,194.09,115.25,193.23,115.25,192.17Z" transform="translate(-8.13 -7.69)"/><path class="cls-19" d="M92.19,172.94h0a2.24,2.24,0,0,1,2.24,0l31,17.88a.77.77,0,0,1,0,1.34l0,0a2.24,2.24,0,0,1-2.24,0l-30.94-17.9A.78.78,0,0,1,92.19,172.94Z" transform="translate(-8.13 -7.69)"/><path class="cls-19" d="M209.49,210.9l-35-20.17a4.53,4.53,0,0,0-4.52,0L166,193l-9.67,5.56-5.52,3.21a1.6,1.6,0,0,0,0,2.76l21.84,12.61,13.15,7.58a4.53,4.53,0,0,0,4.53,0l15.32-8.84,3.8-2.2A1.6,1.6,0,0,0,209.49,210.9Z" transform="translate(-8.13 -7.69)"/><path class="cls-19" d="M178.34,199a12,12,0,0,1,1.29,5.31c0,4.45-2.6,8.53-6.94,11.74l13.15,7.58a4.53,4.53,0,0,0,4.53,0l15.32-8.84Z" transform="translate(-8.13 -7.69)"/><path class="cls-26" d="M209.49,212.61a1.6,1.6,0,0,0,0-2.77l-35-20.18a4.51,4.51,0,0,0-4.52,0L166,191.92l39.65,22.89Z" transform="translate(-8.13 -7.69)"/><path class="cls-24" d="M186.48,216.09h-.22a.88.88,0,0,1,0,.17c0,1-1.38,1.91-3.11,2,.14,1,1.57,1.82,3.31,1.82s3.32-.89,3.32-2S188.31,216.09,186.48,216.09Z" transform="translate(-8.13 -7.69)"/><path class="cls-20" d="M186.26,216.1c-.14-1-1.57-1.82-3.31-1.82s-3.32.89-3.32,2,1.49,2,3.32,2h.22a1,1,0,0,1,0-.17C183.15,217,184.53,216.16,186.26,216.1Z" transform="translate(-8.13 -7.69)"/><path class="cls-23" d="M186.28,216.27a.88.88,0,0,0,0-.17c-1.73.06-3.11.92-3.11,2a1,1,0,0,0,0,.17C184.9,218.18,186.28,217.32,186.28,216.27Z" transform="translate(-8.13 -7.69)"/><path class="cls-20" d="M163.22,197a2.22,2.22,0,0,1,2.23,0l14.14,8.16c0-.28,0-.57,0-.86a12,12,0,0,0-1.29-5.31l-12.3-7.1-9.67,5.57-5.52,3.21a1.6,1.6,0,0,0,0,2.76l21.84,12.61a16.81,16.81,0,0,0,6.46-8.48l-15.93-9.22A.77.77,0,0,1,163.22,197Z" transform="translate(-8.13 -7.69)"/><path class="cls-23" d="M196.43,214.91l-16.84-9.72a11.41,11.41,0,0,1-.44,2.4l15,8.68a2.22,2.22,0,0,0,2.23,0l0,0A.78.78,0,0,0,196.43,214.91Z" transform="translate(-8.13 -7.69)"/><path class="cls-23" d="M165.45,197a2.22,2.22,0,0,0-2.23,0,.77.77,0,0,0,0,1.34l15.93,9.22a11.41,11.41,0,0,0,.44-2.4Z" transform="translate(-8.13 -7.69)"/><path class="cls-19" d="M8.13,202.78l2.88,2.9a2.63,2.63,0,0,1,.8-2.05Z" transform="translate(-8.13 -7.69)"/><path class="cls-23" d="M11.81,203.63a2.63,2.63,0,0,0-.8,2.05l5,5c0-5.1,2.28-5.58,2.28-5.58Z" transform="translate(-8.13 -7.69)"/><path class="cls-20" d="M78.83,240,18.27,205.13A2.52,2.52,0,0,0,16,207.3l60.8,34.91A2.81,2.81,0,0,1,78.83,240Z" transform="translate(-8.13 -7.69)"/><path class="cls-19" d="M76.81,242.21,16,207.3a8.42,8.42,0,0,0,0,3.41l60.74,35.06A8.41,8.41,0,0,1,76.81,242.21Z" transform="translate(-8.13 -7.69)"/><path class="cls-22" d="M80,247c-.24-2.52.42-3.77,1.13-4.39a1.51,1.51,0,0,1,1.35-.32,2.21,2.21,0,0,0-.3-.25v0L78.83,240c-.84.2-2.78,1.16-2.1,5.73L80.5,248A1.46,1.46,0,0,1,80,247Z" transform="translate(-8.13 -7.69)"/><path class="cls-23" d="M81.27,248.37a.68.68,0,0,0,.33.11c1.06,0,1.92-1.15,1.92-3a5,5,0,0,0-1-3.24,1.51,1.51,0,0,0-1.35.32c-.71.62-1.37,1.87-1.13,4.39a1.46,1.46,0,0,0,.51,1l.77.44Z" transform="translate(-8.13 -7.69)"/><path class="cls-19" d="M356.48,168.26l2.88,2.91a2.63,2.63,0,0,1,.8-2Z" transform="translate(-8.13 -7.69)"/><path class="cls-23" d="M360.16,169.12a2.63,2.63,0,0,0-.8,2l5,5c0-5.09,2.27-5.58,2.27-5.58Z" transform="translate(-8.13 -7.69)"/><path class="cls-19" d="M427.18,205.53l-60.56-34.92a2.52,2.52,0,0,0-2.25,2.18l60.8,34.91A2.8,2.8,0,0,1,427.18,205.53Z" transform="translate(-8.13 -7.69)"/><path class="cls-20" d="M425.17,207.7l-60.8-34.91a8.2,8.2,0,0,0,0,3.4l60.73,35.07A8.53,8.53,0,0,1,425.17,207.7Z" transform="translate(-8.13 -7.69)"/><path class="cls-22" d="M428.34,212.45c-.23-2.53.43-3.78,1.13-4.4a1.51,1.51,0,0,1,1.35-.31,2.32,2.32,0,0,0-.3-.26v0l-3.34-1.92c-.84.19-2.78,1.15-2.1,5.73l3.77,2.17A1.45,1.45,0,0,1,428.34,212.45Z" transform="translate(-8.13 -7.69)"/><path class="cls-23" d="M429.62,213.86a.77.77,0,0,0,.33.1c1.06,0,1.92-1.15,1.92-3a5,5,0,0,0-1.05-3.23,1.51,1.51,0,0,0-1.35.31c-.7.62-1.36,1.87-1.13,4.4a1.45,1.45,0,0,0,.51,1l.77.45Z" transform="translate(-8.13 -7.69)"/><path class="cls-19" d="M108.13,137.37l-2.88,2.91a2.65,2.65,0,0,0-.81-2.05Z" transform="translate(-8.13 -7.69)"/><path class="cls-26" d="M104.44,138.23a2.65,2.65,0,0,1,.81,2.05l-5,5c0-5.09-2.28-5.58-2.28-5.58Z" transform="translate(-8.13 -7.69)"/><path class="cls-20" d="M66.26,157.82,98,139.72a2.54,2.54,0,0,1,2.26,2.18L68.28,160A2.81,2.81,0,0,0,66.26,157.82Z" transform="translate(-8.13 -7.69)"/><path class="cls-19" d="M68.28,160l32-18.09a8.37,8.37,0,0,1,0,3.4L68.37,163.55A8.54,8.54,0,0,0,68.28,160Z" transform="translate(-8.13 -7.69)"/><path class="cls-22" d="M65.11,164.74c.23-2.53-.43-3.77-1.13-4.39a1.48,1.48,0,0,0-1.35-.32,1.18,1.18,0,0,1,.3-.25v0l3.34-1.92c.85.2,2.79,1.15,2.11,5.73l-3.77,2.18A1.59,1.59,0,0,0,65.11,164.74Z" transform="translate(-8.13 -7.69)"/><path class="cls-23" d="M63.82,166.15a.62.62,0,0,1-.32.11c-1.07,0-1.93-1.16-1.93-3A4.94,4.94,0,0,1,62.63,160a1.48,1.48,0,0,1,1.35.32c.7.62,1.36,1.86,1.13,4.39a1.59,1.59,0,0,1-.51,1l-.77.44Z" transform="translate(-8.13 -7.69)"/><polygon class="cls-29" points="332.15 125.92 319.16 125.92 319.16 133.41 319.16 133.41 352.55 152.71 352.55 114.16 332.15 125.92"/><polygon class="cls-29" points="372.97 125.92 352.57 114.15 352.55 114.16 352.55 152.71 385.93 133.41 385.93 125.92 372.97 125.92"/><polygon class="cls-19" points="385.93 125.92 352.57 106.66 345.7 110.62 379.07 129.89 385.93 125.92"/><polygon class="cls-20" points="345.7 110.62 319.16 125.92 352.55 145.23 379.07 129.89 345.7 110.62"/><polygon class="cls-19" points="368.36 130.43 344.42 116.6 342.2 117.88 366.13 131.72 368.36 130.43"/><polygon class="cls-19" points="363.08 133.45 339.13 119.63 336.91 120.91 360.84 134.74 363.08 133.45"/><polygon class="cls-19" points="86.72 120.39 53.36 101.13 46.49 105.09 79.86 124.35 86.72 120.39"/><polygon class="cls-20" points="46.49 105.09 19.95 120.39 53.33 139.69 79.86 124.35 46.49 105.09"/><polygon class="cls-19" points="52.88 115.47 45.2 111.07 42.98 112.35 50.64 116.76 52.88 115.47"/><polygon class="cls-19" points="69.4 124.92 55.1 116.76 52.88 118.04 67.17 126.21 69.4 124.92"/><polygon class="cls-19" points="56.38 123.5 39.92 114.09 37.7 115.37 54.15 124.8 56.38 123.5"/><path class="cls-22" d="M309.89,80.85l-95.66-55a4.05,4.05,0,0,0-.52,2v73.34a2.5,2.5,0,0,0,1.25,2.16l94.64,54.66a4,4,0,0,0,2,.54V83.79A3.39,3.39,0,0,0,309.89,80.85Z" transform="translate(-8.13 -7.69)"/><path class="cls-24" d="M313.65,78,220.59,24.29a4.87,4.87,0,0,0-4.87,0,4,4,0,0,0-1.49,1.51l95.66,55.05a3.39,3.39,0,0,1,1.7,2.94v74.68a4.05,4.05,0,0,0,2.08-.55,4.87,4.87,0,0,0,2.41-4.2V82.22A4.86,4.86,0,0,0,313.65,78Z" transform="translate(-8.13 -7.69)"/><path class="cls-24" d="M247,196.42a4.28,4.28,0,0,1-4.24,0l-95.43-55.1a2.73,2.73,0,0,0-.38,1.41v1.9a2.81,2.81,0,0,0,1.4,2.42l94.39,54.5a4.26,4.26,0,0,0,4.26,0l63.2-36.49a2.81,2.81,0,0,0,1.4-2.43v-1.9a2.83,2.83,0,0,0-.37-1.41Z" transform="translate(-8.13 -7.69)"/><path class="cls-22" d="M247,196.42l64.24-37.1a2.73,2.73,0,0,0-1-1l-95.55-55.2a1.82,1.82,0,0,0-1.86,0l-64.44,37.19a2.75,2.75,0,0,0-1,1l95.43,55.1A4.28,4.28,0,0,0,247,196.42Z" transform="translate(-8.13 -7.69)"/><path class="cls-19" d="M219.69,34.06a1,1,0,0,0-1.55.89V49.21l13.88-8Z" transform="translate(-8.13 -7.69)"/><polygon class="cls-21" points="223.89 33.51 210.01 41.52 210.01 59.06 239.06 42.29 223.89 33.51"/><polygon class="cls-19" points="299.05 138.18 299 105.81 271.04 121.96 299.05 138.18"/><path class="cls-20" d="M279.16,129.64l-4.82,2.79,31.29,18.06a1,1,0,0,0,1.56-.9v-3.72Z" transform="translate(-8.13 -7.69)"/><path class="cls-19" d="M306.92,85a1.75,1.75,0,0,0-.74-.87L247.19,50,218.14,66.75V94.31l36.28,21Z" transform="translate(-8.13 -7.69)"/><path class="cls-20" d="M218.14,94.31V99a1.79,1.79,0,0,0,.89,1.55l30.52,17.62,4.87-2.81Z" transform="translate(-8.13 -7.69)"/><path class="cls-21" d="M279.16,129.64l28-16.14-.05-27.82a1.73,1.73,0,0,0-.15-.68l-52.5,30.32Z" transform="translate(-8.13 -7.69)"/><polygon class="cls-29" points="246.29 107.63 241.42 110.44 266.21 124.74 271.04 121.96 246.29 107.63"/><path class="cls-24" d="M218.55,107.32l2.09-1.23a2.34,2.34,0,0,1,2.36,0l12.45,7.19a.78.78,0,0,1,0,1.35l-2.1,1.2a2.35,2.35,0,0,1-2.34,0l-12.44-7.16A.77.77,0,0,1,218.55,107.32Z" transform="translate(-8.13 -7.69)"/><path class="cls-24" d="M288,147.8l2.09-1.22a2.34,2.34,0,0,1,2.36,0l12.45,7.19a.78.78,0,0,1,0,1.36l-2.1,1.19a2.38,2.38,0,0,1-2.34,0L288,149.15A.78.78,0,0,1,288,147.8Z" transform="translate(-8.13 -7.69)"/><path class="cls-23" d="M218.55,106.26l2.09-1.22a2.34,2.34,0,0,1,2.36,0l12.45,7.2a.78.78,0,0,1,0,1.35l-2.1,1.19a2.38,2.38,0,0,1-2.34,0l-12.44-7.16A.78.78,0,0,1,218.55,106.26Z" transform="translate(-8.13 -7.69)"/><path class="cls-23" d="M288,146.74l2.09-1.22a2.34,2.34,0,0,1,2.36,0l12.45,7.2a.78.78,0,0,1,0,1.35l-2.1,1.2a2.38,2.38,0,0,1-2.34,0L288,148.09A.78.78,0,0,1,288,146.74Z" transform="translate(-8.13 -7.69)"/><path class="cls-24" d="M201.07,148.13,230.24,165l.19-.11a.71.71,0,0,0,0-1.24l-29.36-16.94a1.52,1.52,0,0,0-1.49,0l-15.82,9.16a.71.71,0,0,0,0,1.23l.19.12,15.63-9.05A1.52,1.52,0,0,1,201.07,148.13Z" transform="translate(-8.13 -7.69)"/><path class="cls-23" d="M230.24,165l-29.17-16.83a1.52,1.52,0,0,0-1.49,0L190,153.69,219.73,171Z" transform="translate(-8.13 -7.69)"/><path class="cls-24" d="M190,153.69l-6,3.49,29,16.89a1.49,1.49,0,0,0,1.5,0l5.28-3.05Z" transform="translate(-8.13 -7.69)"/><path class="cls-24" d="M184,124.87l24.23-14.2a1.8,1.8,0,0,1,1.81,0l86.7,50.12a1,1,0,0,1,0,1.74L272.35,176.4a1.81,1.81,0,0,1-1.79,0L184,126.61A1,1,0,0,1,184,124.87Z" transform="translate(-8.13 -7.69)"/><rect class="cls-24" x="175.4" y="116.45" width="10.5" height="1.56"/><rect class="cls-24" x="280.56" y="152.37" width="8.58" height="1.68"/><path class="cls-23" d="M184,123.26l24.23-14.2a1.78,1.78,0,0,1,1.81,0l86.7,50.12a1,1,0,0,1,0,1.74l-24.41,13.87a1.81,1.81,0,0,1-1.79,0L184,125A1,1,0,0,1,184,123.26Z" transform="translate(-8.13 -7.69)"/><polygon class="cls-20" points="207.68 47 230.12 59.99 230.12 40.84 207.68 27.84 207.68 47"/><polygon class="cls-19" points="207.68 27.84 230.12 40.84 230.12 34.67 207.68 21.68 207.68 27.84"/><polygon class="cls-19" points="209.49 34.35 216.38 38.34 216.38 36.45 209.49 32.46 209.49 34.35"/><polygon class="cls-19" points="217.64 39.02 224.53 43.01 224.53 41.12 217.64 37.13 217.64 39.02"/><polygon class="cls-19" points="209.49 38.3 228 48.94 228 47.05 209.49 36.4 209.49 38.3"/></g></g></svg>