<svg xmlns="http://www.w3.org/2000/svg" xmlns:xlink="http://www.w3.org/1999/xlink" viewBox="0 0 240.5 200.24"><defs><style>.cls-1{mask:url(#mask);filter:url(#luminosity-noclip-24);}.cls-10,.cls-12,.cls-14,.cls-16,.cls-18,.cls-2,.cls-20,.cls-22,.cls-24,.cls-26,.cls-28,.cls-30,.cls-32,.cls-34,.cls-36,.cls-38,.cls-4,.cls-40,.cls-42,.cls-44,.cls-46,.cls-48,.cls-56,.cls-6,.cls-65,.cls-8{mix-blend-mode:multiply;}.cls-2{fill:url(#linear-gradient);}.cls-3{mask:url(#mask-2);filter:url(#luminosity-noclip-29);}.cls-4{fill:url(#linear-gradient-2);}.cls-5{mask:url(#mask-3);filter:url(#luminosity-noclip-30);}.cls-6{fill:url(#linear-gradient-3);}.cls-7{mask:url(#mask-4);filter:url(#luminosity-noclip-31);}.cls-8{fill:url(#linear-gradient-4);}.cls-9{mask:url(#mask-5);filter:url(#luminosity-noclip-32);}.cls-10{fill:url(#linear-gradient-5);}.cls-11{mask:url(#mask-6);filter:url(#luminosity-noclip-33);}.cls-12{fill:url(#linear-gradient-6);}.cls-13{mask:url(#mask-7);filter:url(#luminosity-noclip-25);}.cls-14{fill:url(#linear-gradient-7);}.cls-15{mask:url(#mask-8);filter:url(#luminosity-noclip-34);}.cls-16{fill:url(#linear-gradient-8);}.cls-17{mask:url(#mask-9);filter:url(#luminosity-noclip-35);}.cls-18{fill:url(#linear-gradient-9);}.cls-19{mask:url(#mask-10);filter:url(#luminosity-noclip-36);}.cls-20{fill:url(#linear-gradient-10);}.cls-21{mask:url(#mask-11);filter:url(#luminosity-noclip-37);}.cls-22{fill:url(#linear-gradient-11);}.cls-23{mask:url(#mask-12);filter:url(#luminosity-noclip-38);}.cls-24{fill:url(#linear-gradient-12);}.cls-25{mask:url(#mask-13);filter:url(#luminosity-noclip-39);}.cls-26{fill:url(#linear-gradient-13);}.cls-27{mask:url(#mask-14);filter:url(#luminosity-noclip-40);}.cls-28{fill:url(#linear-gradient-14);}.cls-29{mask:url(#mask-15);filter:url(#luminosity-noclip-41);}.cls-30{fill:url(#linear-gradient-15);}.cls-31{mask:url(#mask-16);filter:url(#luminosity-noclip-42);}.cls-32{fill:url(#linear-gradient-16);}.cls-33{mask:url(#mask-17);filter:url(#luminosity-noclip-43);}.cls-34{fill:url(#linear-gradient-17);}.cls-35{mask:url(#mask-18);filter:url(#luminosity-noclip-26);}.cls-36{fill:url(#linear-gradient-18);}.cls-37{mask:url(#mask-19);filter:url(#luminosity-noclip-44);}.cls-38{fill:url(#linear-gradient-19);}.cls-39{mask:url(#mask-20);filter:url(#luminosity-noclip-45);}.cls-40{fill:url(#linear-gradient-20);}.cls-41{mask:url(#mask-21);filter:url(#luminosity-noclip-46);}.cls-42{fill:url(#linear-gradient-21);}.cls-43{mask:url(#mask-22);filter:url(#luminosity-noclip-27);}.cls-44{fill:url(#linear-gradient-22);}.cls-45{mask:url(#mask-23);filter:url(#luminosity-noclip-28);}.cls-46{fill:url(#linear-gradient-23);}.cls-47{isolation:isolate;}.cls-48{fill:#bbbdbf;}.cls-49{fill:url(#linear-gradient-24);}.cls-50{fill:url(#linear-gradient-25);}.cls-51{fill:url(#linear-gradient-26);}.cls-52,.cls-53{opacity:0.68;mix-blend-mode:darken;}.cls-52{fill:url(#linear-gradient-27);}.cls-53{fill:url(#linear-gradient-28);}.cls-54{fill:url(#linear-gradient-29);}.cls-55{fill:url(#linear-gradient-30);}.cls-57{fill:#58595b;}.cls-58{fill:#6d6e70;}.cls-59{fill:url(#linear-gradient-31);}.cls-60{fill:url(#linear-gradient-32);}.cls-61{opacity:0.52;fill:url(#linear-gradient-33);}.cls-62{fill:url(#linear-gradient-34);}.cls-63{fill:url(#linear-gradient-35);}.cls-64{fill:url(#linear-gradient-36);}.cls-65{fill:#e6e7e8;opacity:0.78;}.cls-66{fill:#c13434;}.cls-67{fill:#ff5c5c;}.cls-68{fill:url(#linear-gradient-37);}.cls-69{fill:url(#linear-gradient-38);}.cls-70{fill:url(#linear-gradient-39);}.cls-71{fill:url(#linear-gradient-40);}.cls-72{fill:#c19d0a;}.cls-73{fill:#ddba2a;}.cls-74{fill:#67390e;}.cls-75{fill:#fdfdfc;}.cls-76{fill:url(#linear-gradient-41);}.cls-77{fill:url(#linear-gradient-42);}.cls-78{mask:url(#mask-24);}.cls-79{fill:url(#linear-gradient-43);}.cls-80{fill:url(#linear-gradient-44);}.cls-81{fill:url(#linear-gradient-45);}.cls-82{fill:url(#linear-gradient-46);}.cls-83{fill:url(#linear-gradient-47);}.cls-84{fill:#fff;}.cls-85{fill:url(#linear-gradient-48);}.cls-86{fill:url(#linear-gradient-49);}.cls-87{mask:url(#mask-25);}.cls-88{fill:url(#linear-gradient-50);}.cls-89{fill:url(#linear-gradient-51);}.cls-90{fill:url(#linear-gradient-52);}.cls-91{fill:url(#linear-gradient-53);}.cls-92{fill:url(#linear-gradient-54);}.cls-93{fill:url(#linear-gradient-55);}.cls-94{fill:url(#linear-gradient-56);}.cls-95{fill:url(#linear-gradient-57);}.cls-96{fill:url(#linear-gradient-58);}.cls-97{fill:url(#linear-gradient-59);}.cls-98{mask:url(#mask-26);}.cls-99{fill:url(#linear-gradient-60);}.cls-100{fill:url(#linear-gradient-61);}.cls-101{fill:url(#linear-gradient-62);}.cls-102{fill:url(#linear-gradient-63);}.cls-103{fill:url(#linear-gradient-64);}.cls-104{fill:url(#linear-gradient-65);}.cls-105{fill:url(#linear-gradient-66);}.cls-106{fill:url(#linear-gradient-67);}.cls-107{fill:url(#linear-gradient-68);}.cls-108{fill:url(#linear-gradient-69);}.cls-109{mask:url(#mask-27);}.cls-110{fill:url(#linear-gradient-70);}.cls-111{fill:url(#linear-gradient-71);}.cls-112{fill:url(#linear-gradient-72);}.cls-113{fill:url(#linear-gradient-73);}.cls-114{fill:url(#linear-gradient-74);}.cls-115{fill:url(#linear-gradient-75);}.cls-116{fill:url(#linear-gradient-76);}.cls-117{fill:url(#linear-gradient-77);}.cls-118{fill:url(#linear-gradient-78);}.cls-119{mask:url(#mask-28);}.cls-120,.cls-122,.cls-140,.cls-142,.cls-163,.cls-165,.cls-173,.cls-175{opacity:0.63;}.cls-120{fill:url(#linear-gradient-79);}.cls-121{mask:url(#mask-29);}.cls-122{fill:url(#linear-gradient-80);}.cls-123{fill:url(#linear-gradient-81);}.cls-124{fill:url(#linear-gradient-82);}.cls-125{fill:url(#linear-gradient-83);}.cls-126{fill:url(#linear-gradient-84);}.cls-127{mask:url(#mask-30);}.cls-128,.cls-130,.cls-132,.cls-150,.cls-152,.cls-154,.cls-181,.cls-183,.cls-185{opacity:0.33;}.cls-128{fill:url(#linear-gradient-85);}.cls-129{mask:url(#mask-31);}.cls-130{fill:url(#linear-gradient-86);}.cls-131{mask:url(#mask-32);}.cls-132{fill:url(#linear-gradient-87);}.cls-133{fill:url(#linear-gradient-88);}.cls-134{fill:url(#linear-gradient-89);}.cls-135{fill:url(#linear-gradient-90);}.cls-136{mask:url(#mask-33);}.cls-137{fill:url(#linear-gradient-91);}.cls-138{fill:url(#linear-gradient-92);}.cls-139{mask:url(#mask-34);}.cls-140{fill:url(#linear-gradient-93);}.cls-141{mask:url(#mask-35);}.cls-142{fill:url(#linear-gradient-94);}.cls-143{fill:url(#linear-gradient-95);}.cls-144{fill:url(#linear-gradient-96);}.cls-145{fill:url(#linear-gradient-97);}.cls-146{fill:url(#linear-gradient-98);}.cls-147{fill:url(#linear-gradient-99);}.cls-148{fill:url(#linear-gradient-100);}.cls-149{mask:url(#mask-36);}.cls-150{fill:url(#linear-gradient-101);}.cls-151{mask:url(#mask-37);}.cls-152{fill:url(#linear-gradient-102);}.cls-153{mask:url(#mask-38);}.cls-154{fill:url(#linear-gradient-103);}.cls-155{fill:url(#linear-gradient-104);}.cls-156{fill:url(#linear-gradient-105);}.cls-157{mask:url(#mask-39);}.cls-158{fill:url(#linear-gradient-106);}.cls-159{fill:url(#linear-gradient-107);}.cls-160{fill:url(#linear-gradient-108);}.cls-161{fill:url(#linear-gradient-109);}.cls-162{mask:url(#mask-40);}.cls-163{fill:url(#linear-gradient-110);}.cls-164{mask:url(#mask-41);}.cls-165{fill:url(#linear-gradient-111);}.cls-166{fill:url(#linear-gradient-112);}.cls-167{fill:url(#linear-gradient-113);}.cls-168{fill:url(#linear-gradient-114);}.cls-169{fill:url(#linear-gradient-115);}.cls-170{fill:url(#linear-gradient-116);}.cls-171{fill:url(#linear-gradient-117);}.cls-172{mask:url(#mask-42);}.cls-173{fill:url(#linear-gradient-118);}.cls-174{mask:url(#mask-43);}.cls-175{fill:url(#linear-gradient-119);}.cls-176{fill:url(#linear-gradient-120);}.cls-177{fill:url(#linear-gradient-121);}.cls-178{fill:url(#linear-gradient-122);}.cls-179{fill:url(#linear-gradient-123);}.cls-180{mask:url(#mask-44);}.cls-181{fill:url(#linear-gradient-124);}.cls-182{mask:url(#mask-45);}.cls-183{fill:url(#linear-gradient-125);}.cls-184{mask:url(#mask-46);}.cls-185{fill:url(#linear-gradient-126);}.cls-186{filter:url(#luminosity-noclip-23);}.cls-187{filter:url(#luminosity-noclip-22);}.cls-188{filter:url(#luminosity-noclip-21);}.cls-189{filter:url(#luminosity-noclip-20);}.cls-190{filter:url(#luminosity-noclip-19);}.cls-191{filter:url(#luminosity-noclip-18);}.cls-192{filter:url(#luminosity-noclip-17);}.cls-193{filter:url(#luminosity-noclip-16);}.cls-194{filter:url(#luminosity-noclip-15);}.cls-195{filter:url(#luminosity-noclip-14);}.cls-196{filter:url(#luminosity-noclip-13);}.cls-197{filter:url(#luminosity-noclip-12);}.cls-198{filter:url(#luminosity-noclip-11);}.cls-199{filter:url(#luminosity-noclip-10);}.cls-200{filter:url(#luminosity-noclip-9);}.cls-201{filter:url(#luminosity-noclip-8);}.cls-202{filter:url(#luminosity-noclip-7);}.cls-203{filter:url(#luminosity-noclip-6);}.cls-204{filter:url(#luminosity-noclip-5);}.cls-205{filter:url(#luminosity-noclip-4);}.cls-206{filter:url(#luminosity-noclip-3);}.cls-207{filter:url(#luminosity-noclip-2);}.cls-208{filter:url(#luminosity-noclip);}</style><filter id="luminosity-noclip" x="162.41" y="-8305.5" width="10.92" height="32766" filterUnits="userSpaceOnUse" color-interpolation-filters="sRGB"><feFlood flood-color="#fff" result="bg"/><feBlend in="SourceGraphic" in2="bg"/></filter><mask id="mask" x="162.41" y="-8305.5" width="10.92" height="32766" maskUnits="userSpaceOnUse"><g class="cls-208"/></mask><linearGradient id="linear-gradient" x1="82.65" y1="60.55" x2="93.57" y2="60.55" gradientTransform="matrix(-1, 0, 0, 1, 255.97, 0)" gradientUnits="userSpaceOnUse"><stop offset="0" stop-color="#b3b3b3"/><stop offset="1" stop-color="#fff"/></linearGradient><filter id="luminosity-noclip-2" x="62.13" y="-8305.5" width="29.3" height="32766" filterUnits="userSpaceOnUse" color-interpolation-filters="sRGB"><feFlood flood-color="#fff" result="bg"/><feBlend in="SourceGraphic" in2="bg"/></filter><mask id="mask-2" x="62.13" y="-8305.5" width="29.3" height="32766" maskUnits="userSpaceOnUse"><g class="cls-207"/></mask><linearGradient id="linear-gradient-2" x1="98.74" y1="94.2" x2="128.44" y2="94.2" gradientTransform="matrix(-1, 0, 0, 1, 190.17, 0)" gradientUnits="userSpaceOnUse"><stop offset="0" stop-color="#fff"/><stop offset="1" stop-color="gray"/></linearGradient><filter id="luminosity-noclip-3" x="61.79" y="-8305.5" width="24.95" height="32766" filterUnits="userSpaceOnUse" color-interpolation-filters="sRGB"><feFlood flood-color="#fff" result="bg"/><feBlend in="SourceGraphic" in2="bg"/></filter><mask id="mask-3" x="61.79" y="-8305.5" width="24.95" height="32766" maskUnits="userSpaceOnUse"><g class="cls-206"/></mask><linearGradient id="linear-gradient-3" x1="103.43" y1="92.21" x2="128.37" y2="92.21" gradientTransform="matrix(-1, 0, 0, 1, 190.17, 0)" gradientUnits="userSpaceOnUse"><stop offset="0" stop-color="gray"/><stop offset="0.1" stop-color="#8f8f8f"/><stop offset="0.52" stop-color="#cbcbcb"/><stop offset="0.84" stop-color="#f1f1f1"/><stop offset="1" stop-color="#fff"/></linearGradient><filter id="luminosity-noclip-4" x="70.07" y="-8305.5" width="16.67" height="32766" filterUnits="userSpaceOnUse" color-interpolation-filters="sRGB"><feFlood flood-color="#fff" result="bg"/><feBlend in="SourceGraphic" in2="bg"/></filter><mask id="mask-4" x="70.07" y="-8305.5" width="16.67" height="32766" maskUnits="userSpaceOnUse"><g class="cls-205"/></mask><linearGradient id="linear-gradient-4" x1="103.43" y1="98.55" x2="120.1" y2="98.55" xlink:href="#linear-gradient-3"/><filter id="luminosity-noclip-5" x="74.5" y="-8305.5" width="12.24" height="32766" filterUnits="userSpaceOnUse" color-interpolation-filters="sRGB"><feFlood flood-color="#fff" result="bg"/><feBlend in="SourceGraphic" in2="bg"/></filter><mask id="mask-5" x="74.5" y="-8305.5" width="12.24" height="32766" maskUnits="userSpaceOnUse"><g class="cls-204"/></mask><linearGradient id="linear-gradient-5" x1="103.43" y1="103.78" x2="115.67" y2="103.78" xlink:href="#linear-gradient-3"/><filter id="luminosity-noclip-6" x="130.29" y="-8305.5" width="8.44" height="32766" filterUnits="userSpaceOnUse" color-interpolation-filters="sRGB"><feFlood flood-color="#fff" result="bg"/><feBlend in="SourceGraphic" in2="bg"/></filter><mask id="mask-6" x="130.29" y="-8305.5" width="8.44" height="32766" maskUnits="userSpaceOnUse"><g class="cls-203"/></mask><linearGradient id="linear-gradient-6" x1="-6.44" y1="-29.17" x2="-3.55" y2="-30.56" gradientTransform="matrix(-0.87, -0.5, 0, 1.15, 130.34, 125.14)" xlink:href="#linear-gradient"/><filter id="luminosity-noclip-7" x="125.46" y="-8305.5" width="10.92" height="32766" filterUnits="userSpaceOnUse" color-interpolation-filters="sRGB"><feFlood flood-color="#fff" result="bg"/><feBlend in="SourceGraphic" in2="bg"/></filter><mask id="mask-7" x="125.46" y="-8305.5" width="10.92" height="32766" maskUnits="userSpaceOnUse"><g class="cls-202"/></mask><linearGradient id="linear-gradient-7" x1="119.6" y1="10.05" x2="130.52" y2="10.05" xlink:href="#linear-gradient"/><filter id="luminosity-noclip-8" x="128.46" y="-8305.5" width="31.47" height="32766" filterUnits="userSpaceOnUse" color-interpolation-filters="sRGB"><feFlood flood-color="#fff" result="bg"/><feBlend in="SourceGraphic" in2="bg"/></filter><mask id="mask-8" x="128.46" y="-8305.5" width="31.47" height="32766" maskUnits="userSpaceOnUse"><g class="cls-201"/></mask><linearGradient id="linear-gradient-8" x1="-34.17" y1="-18.54" x2="2.18" y2="-18.54" gradientTransform="matrix(-0.87, -0.5, 0, 1.15, 130.34, 125.14)" xlink:href="#linear-gradient-2"/><filter id="luminosity-noclip-9" x="139.89" y="-8305.5" width="33.15" height="32766" filterUnits="userSpaceOnUse" color-interpolation-filters="sRGB"><feFlood flood-color="#fff" result="bg"/><feBlend in="SourceGraphic" in2="bg"/></filter><mask id="mask-9" x="139.89" y="-8305.5" width="33.15" height="32766" maskUnits="userSpaceOnUse"><g class="cls-200"/></mask><linearGradient id="linear-gradient-9" x1="-49.31" y1="-26.07" x2="-11.03" y2="-26.07" gradientTransform="matrix(-0.87, -0.5, 0, 1.15, 130.34, 125.14)" xlink:href="#linear-gradient-2"/><filter id="luminosity-noclip-10" x="153.01" y="-8305.5" width="3.12" height="32766" filterUnits="userSpaceOnUse" color-interpolation-filters="sRGB"><feFlood flood-color="#fff" result="bg"/><feBlend in="SourceGraphic" in2="bg"/></filter><mask id="mask-10" x="153.01" y="-8305.5" width="3.12" height="32766" maskUnits="userSpaceOnUse"><g class="cls-199"/></mask><linearGradient id="linear-gradient-10" x1="11.2" y1="113.88" x2="14.32" y2="113.88" gradientTransform="matrix(-1, 0, 0, 1, 167.33, 0)" xlink:href="#linear-gradient-3"/><filter id="luminosity-noclip-11" x="147.6" y="-8305.5" width="3.12" height="32766" filterUnits="userSpaceOnUse" color-interpolation-filters="sRGB"><feFlood flood-color="#fff" result="bg"/><feBlend in="SourceGraphic" in2="bg"/></filter><mask id="mask-11" x="147.6" y="-8305.5" width="3.12" height="32766" maskUnits="userSpaceOnUse"><g class="cls-198"/></mask><linearGradient id="linear-gradient-11" x1="16.6" y1="110.76" x2="19.72" y2="110.76" gradientTransform="matrix(-1, 0, 0, 1, 167.33, 0)" xlink:href="#linear-gradient-3"/><filter id="luminosity-noclip-12" x="142.2" y="-8305.5" width="3.12" height="32766" filterUnits="userSpaceOnUse" color-interpolation-filters="sRGB"><feFlood flood-color="#fff" result="bg"/><feBlend in="SourceGraphic" in2="bg"/></filter><mask id="mask-12" x="142.2" y="-8305.5" width="3.12" height="32766" maskUnits="userSpaceOnUse"><g class="cls-197"/></mask><linearGradient id="linear-gradient-12" x1="22.01" y1="107.64" x2="25.13" y2="107.64" gradientTransform="matrix(-1, 0, 0, 1, 167.33, 0)" xlink:href="#linear-gradient-3"/><filter id="luminosity-noclip-13" x="99.18" y="-8305.5" width="7.18" height="32766" filterUnits="userSpaceOnUse" color-interpolation-filters="sRGB"><feFlood flood-color="#fff" result="bg"/><feBlend in="SourceGraphic" in2="bg"/></filter><mask id="mask-13" x="99.18" y="-8305.5" width="7.18" height="32766" maskUnits="userSpaceOnUse"><g class="cls-196"/></mask><linearGradient id="linear-gradient-13" x1="171.05" y1="71.86" x2="178.24" y2="71.86" gradientTransform="matrix(-1, 0, 0, 1, 277.42, 0)" xlink:href="#linear-gradient"/><filter id="luminosity-noclip-14" x="98.19" y="-8305.5" width="19.47" height="32766" filterUnits="userSpaceOnUse" color-interpolation-filters="sRGB"><feFlood flood-color="#fff" result="bg"/><feBlend in="SourceGraphic" in2="bg"/></filter><mask id="mask-14" x="98.19" y="-8305.5" width="19.47" height="32766" maskUnits="userSpaceOnUse"><g class="cls-195"/></mask><linearGradient id="linear-gradient-14" x1="159.76" y1="93.52" x2="180.03" y2="93.52" gradientTransform="matrix(-1, 0, 0, 1, 277.42, 0)" xlink:href="#linear-gradient-2"/><filter id="luminosity-noclip-15" x="98.63" y="-8305.5" width="22.26" height="32766" filterUnits="userSpaceOnUse" color-interpolation-filters="sRGB"><feFlood flood-color="#fff" result="bg"/><feBlend in="SourceGraphic" in2="bg"/></filter><mask id="mask-15" x="98.63" y="-8305.5" width="22.26" height="32766" maskUnits="userSpaceOnUse"><g class="cls-194"/></mask><linearGradient id="linear-gradient-15" x1="156.52" y1="83.99" x2="179.7" y2="83.99" gradientTransform="matrix(-1, 0, 0, 1, 277.42, 0)" xlink:href="#linear-gradient-2"/><filter id="luminosity-noclip-16" x="97.65" y="-8305.5" width="19.76" height="32766" filterUnits="userSpaceOnUse" color-interpolation-filters="sRGB"><feFlood flood-color="#fff" result="bg"/><feBlend in="SourceGraphic" in2="bg"/></filter><mask id="mask-16" x="97.65" y="-8305.5" width="19.76" height="32766" maskUnits="userSpaceOnUse"><g class="cls-193"/></mask><linearGradient id="linear-gradient-16" x1="53.42" y1="156.4" x2="68.5" y2="142.37" gradientTransform="matrix(-1, 0, 0, 1, 167.33, 0)" xlink:href="#linear-gradient-2"/><filter id="luminosity-noclip-17" x="99.28" y="-8305.5" width="18.43" height="32766" filterUnits="userSpaceOnUse" color-interpolation-filters="sRGB"><feFlood flood-color="#fff" result="bg"/><feBlend in="SourceGraphic" in2="bg"/></filter><mask id="mask-17" x="99.28" y="-8305.5" width="18.43" height="32766" maskUnits="userSpaceOnUse"><g class="cls-192"/></mask><linearGradient id="linear-gradient-17" x1="49.79" y1="144.23" x2="68.14" y2="130.24" gradientTransform="matrix(-1, 0, 0, 1, 167.33, 0)" xlink:href="#linear-gradient-2"/><filter id="luminosity-noclip-18" x="23.43" y="-8305.5" width="10.92" height="32766" filterUnits="userSpaceOnUse" color-interpolation-filters="sRGB"><feFlood flood-color="#fff" result="bg"/><feBlend in="SourceGraphic" in2="bg"/></filter><mask id="mask-18" x="23.43" y="-8305.5" width="10.92" height="32766" maskUnits="userSpaceOnUse"><g class="cls-191"/></mask><linearGradient id="linear-gradient-18" x1="221.63" y1="106.9" x2="232.55" y2="106.9" xlink:href="#linear-gradient"/><filter id="luminosity-noclip-19" x="110.57" y="-8305.5" width="3.12" height="32766" filterUnits="userSpaceOnUse" color-interpolation-filters="sRGB"><feFlood flood-color="#fff" result="bg"/><feBlend in="SourceGraphic" in2="bg"/></filter><mask id="mask-19" x="110.57" y="-8305.5" width="3.12" height="32766" maskUnits="userSpaceOnUse"><g class="cls-190"/></mask><linearGradient id="linear-gradient-19" x1="53.64" y1="145.94" x2="56.76" y2="145.94" gradientTransform="matrix(-1, 0, 0, 1, 167.33, 0)" xlink:href="#linear-gradient-3"/><filter id="luminosity-noclip-20" x="105.16" y="-8305.5" width="3.12" height="32766" filterUnits="userSpaceOnUse" color-interpolation-filters="sRGB"><feFlood flood-color="#fff" result="bg"/><feBlend in="SourceGraphic" in2="bg"/></filter><mask id="mask-20" x="105.16" y="-8305.5" width="3.12" height="32766" maskUnits="userSpaceOnUse"><g class="cls-189"/></mask><linearGradient id="linear-gradient-20" x1="59.04" y1="142.82" x2="62.16" y2="142.82" gradientTransform="matrix(-1, 0, 0, 1, 167.33, 0)" xlink:href="#linear-gradient-3"/><filter id="luminosity-noclip-21" x="99.76" y="-8305.5" width="3.12" height="32766" filterUnits="userSpaceOnUse" color-interpolation-filters="sRGB"><feFlood flood-color="#fff" result="bg"/><feBlend in="SourceGraphic" in2="bg"/></filter><mask id="mask-21" x="99.76" y="-8305.5" width="3.12" height="32766" maskUnits="userSpaceOnUse"><g class="cls-188"/></mask><linearGradient id="linear-gradient-21" x1="64.45" y1="139.7" x2="67.57" y2="139.7" gradientTransform="matrix(-1, 0, 0, 1, 167.33, 0)" xlink:href="#linear-gradient-3"/><filter id="luminosity-noclip-22" x="56.12" y="-8305.5" width="10.92" height="32766" filterUnits="userSpaceOnUse" color-interpolation-filters="sRGB"><feFlood flood-color="#fff" result="bg"/><feBlend in="SourceGraphic" in2="bg"/></filter><mask id="mask-22" x="56.12" y="-8305.5" width="10.92" height="32766" maskUnits="userSpaceOnUse"><g class="cls-187"/></mask><linearGradient id="linear-gradient-22" x1="188.93" y1="19.97" x2="199.85" y2="19.97" xlink:href="#linear-gradient"/><filter id="luminosity-noclip-23" x="58.91" y="-8305.5" width="27.62" height="32766" filterUnits="userSpaceOnUse" color-interpolation-filters="sRGB"><feFlood flood-color="#fff" result="bg"/><feBlend in="SourceGraphic" in2="bg"/></filter><mask id="mask-23" x="58.91" y="-8305.5" width="27.62" height="32766" maskUnits="userSpaceOnUse"><g class="cls-186"/></mask><linearGradient id="linear-gradient-23" x1="103.64" y1="100.43" x2="131.64" y2="100.43" xlink:href="#linear-gradient-2"/><linearGradient id="linear-gradient-24" x1="-636.84" y1="108.92" x2="-756.45" y2="184.24" gradientTransform="translate(792.67)" gradientUnits="userSpaceOnUse"><stop offset="0.05" stop-color="#641dab"/><stop offset="0.66" stop-color="#6d73ff"/><stop offset="0.75" stop-color="#6d6ffb"/><stop offset="0.84" stop-color="#6b62ef"/><stop offset="0.94" stop-color="#6a4edb"/><stop offset="1" stop-color="#683cc9"/></linearGradient><linearGradient id="linear-gradient-25" x1="-710.15" y1="196.17" x2="-716.69" y2="196.17" gradientTransform="translate(792.67)" gradientUnits="userSpaceOnUse"><stop offset="0.56" stop-color="#00addb"/><stop offset="0.91" stop-color="#00addb"/></linearGradient><linearGradient id="linear-gradient-26" x1="-713.44" y1="192.16" x2="-713.44" y2="200.13" gradientTransform="translate(792.67)" gradientUnits="userSpaceOnUse"><stop offset="0" stop-color="#5596ff"/><stop offset="0.32" stop-color="#5694fe"/><stop offset="0.5" stop-color="#578bf9"/><stop offset="0.64" stop-color="#5a7ef0"/><stop offset="0.77" stop-color="#5e6ae5"/><stop offset="0.88" stop-color="#6451d5"/><stop offset="0.96" stop-color="#683cc9"/></linearGradient><linearGradient id="linear-gradient-27" x1="-641.8" y1="151.57" x2="-638.38" y2="157.57" gradientTransform="translate(792.67)" gradientUnits="userSpaceOnUse"><stop offset="0" stop-color="#632ada"/><stop offset="0.02" stop-color="#6138df"/><stop offset="0.08" stop-color="#5d5aea"/><stop offset="0.15" stop-color="#5974f3"/><stop offset="0.21" stop-color="#5787fa"/><stop offset="0.28" stop-color="#5592fe"/><stop offset="0.35" stop-color="#5596ff"/><stop offset="0.46" stop-color="#5592fd"/><stop offset="0.56" stop-color="#5785f8"/><stop offset="0.67" stop-color="#5971ef"/><stop offset="0.78" stop-color="#5c54e3"/><stop offset="0.9" stop-color="#602fd3"/><stop offset="0.96" stop-color="#6317c9"/></linearGradient><linearGradient id="linear-gradient-28" x1="51.71" y1="172.17" x2="55.2" y2="178.12" gradientTransform="matrix(-1, 0, 0, 1, 95.05, 0)" gradientUnits="userSpaceOnUse"><stop offset="0" stop-color="#632ada"/><stop offset="0.03" stop-color="#6537e0"/><stop offset="0.11" stop-color="#6851ee"/><stop offset="0.18" stop-color="#6b64f7"/><stop offset="0.27" stop-color="#6c6ffd"/><stop offset="0.35" stop-color="#6d73ff"/><stop offset="0.48" stop-color="#6d6ffc"/><stop offset="0.62" stop-color="#6c62f4"/><stop offset="0.75" stop-color="#6b4ee7"/><stop offset="0.89" stop-color="#6931d4"/><stop offset="0.96" stop-color="#6821c9"/></linearGradient><linearGradient id="linear-gradient-29" x1="-696.08" y1="-168.48" x2="-696.08" y2="-170.27" gradientTransform="matrix(0.87, -0.5, 0, 1.15, 799.77, -21.65)" gradientUnits="userSpaceOnUse"><stop offset="0" stop-color="#5937d1"/><stop offset="0.51" stop-color="#5935d0"/><stop offset="0.69" stop-color="#572ece"/><stop offset="0.82" stop-color="#5423cb"/><stop offset="0.92" stop-color="#5012c5"/><stop offset="1" stop-color="#4b00c0"/></linearGradient><linearGradient id="linear-gradient-30" x1="-695.54" y1="-168.15" x2="-695.53" y2="-169.7" gradientTransform="matrix(0.87, -0.5, 0, 1.15, 799.77, -21.65)" gradientUnits="userSpaceOnUse"><stop offset="0.69" stop-color="#5d53e9"/><stop offset="0.76" stop-color="#5c58eb"/><stop offset="0.85" stop-color="#5a66f0"/><stop offset="0.95" stop-color="#577ef9"/><stop offset="1" stop-color="#558fff"/></linearGradient><linearGradient id="linear-gradient-31" x1="-747.06" y1="130.74" x2="-594.83" y2="130.74" gradientTransform="translate(792.67)" gradientUnits="userSpaceOnUse"><stop offset="0" stop-color="#75ffff"/><stop offset="0.08" stop-color="#75eafc"/><stop offset="0.54" stop-color="#7578ea"/><stop offset="0.85" stop-color="#7530df"/><stop offset="1" stop-color="#7514db"/></linearGradient><linearGradient id="linear-gradient-32" x1="-80.9" y1="473.78" x2="-140.71" y2="572.33" gradientTransform="matrix(0.87, 0.5, -1.5, 0.29, 987.11, 35.31)" gradientUnits="userSpaceOnUse"><stop offset="0" stop-color="#8549ff"/><stop offset="0.13" stop-color="#824fff"/><stop offset="0.3" stop-color="#7b62ff"/><stop offset="0.51" stop-color="#6e80ff"/><stop offset="0.74" stop-color="#5ca9ff"/><stop offset="0.99" stop-color="#46deff"/><stop offset="1" stop-color="#45e1ff"/></linearGradient><linearGradient id="linear-gradient-33" x1="94.54" y1="12.36" x2="244.97" y2="12.36" gradientTransform="matrix(-0.48, -0.27, -1.11, 0.63, 270.67, 134.52)" gradientUnits="userSpaceOnUse"><stop offset="0" stop-color="#2e5baf"/><stop offset="1" stop-color="#39449a"/></linearGradient><linearGradient id="linear-gradient-34" x1="227.33" y1="10.09" x2="236.59" y2="10.09" gradientTransform="matrix(-0.48, -0.27, -1.11, 0.63, 270.67, 134.52)" gradientUnits="userSpaceOnUse"><stop offset="0" stop-color="#00baff"/><stop offset="1" stop-color="#00acff"/></linearGradient><linearGradient id="linear-gradient-35" x1="227.33" y1="12.23" x2="236.58" y2="12.23" xlink:href="#linear-gradient-34"/><linearGradient id="linear-gradient-36" x1="227.33" y1="14.37" x2="236.58" y2="14.37" xlink:href="#linear-gradient-34"/><linearGradient id="linear-gradient-37" x1="572.89" y1="539.02" x2="592.06" y2="539.02" gradientTransform="matrix(0.43, -0.42, 0.75, 1.59, -571.73, -468.91)" gradientUnits="userSpaceOnUse"><stop offset="0" stop-color="#671de7"/><stop offset="0.39" stop-color="#8c3ef2"/><stop offset="0.78" stop-color="#ab5afc"/><stop offset="1" stop-color="#b664ff"/></linearGradient><linearGradient id="linear-gradient-38" x1="556.4" y1="546.79" x2="583.93" y2="546.79" xlink:href="#linear-gradient-37"/><linearGradient id="linear-gradient-39" x1="565.68" y1="538.62" x2="582.63" y2="538.62" gradientTransform="matrix(0.43, -0.42, 0.75, 1.59, -571.73, -468.91)" gradientUnits="userSpaceOnUse"><stop offset="0" stop-color="#a1baff"/><stop offset="0.28" stop-color="#a7bbff"/><stop offset="0.66" stop-color="#babdff"/><stop offset="1" stop-color="#cfbfff"/></linearGradient><linearGradient id="linear-gradient-40" x1="546.95" y1="546.37" x2="574.5" y2="546.37" xlink:href="#linear-gradient-39"/><linearGradient id="linear-gradient-41" x1="-82.66" y1="-376.11" x2="-37.47" y2="-376.11" gradientTransform="matrix(-0.87, -0.5, 0, 1.15, 129.81, 486.72)" gradientUnits="userSpaceOnUse"><stop offset="0" stop-color="#671de7"/><stop offset="0.28" stop-color="#8c3ef2"/><stop offset="0.55" stop-color="#ab5afc"/><stop offset="0.7" stop-color="#b664ff"/><stop offset="0.76" stop-color="#b45ffb"/><stop offset="0.82" stop-color="#ae51ef"/><stop offset="0.89" stop-color="#a339da"/><stop offset="0.96" stop-color="#9518be"/><stop offset="1" stop-color="#8b00aa"/></linearGradient><linearGradient id="linear-gradient-42" x1="-82.66" y1="-355.52" x2="-37.47" y2="-355.52" xlink:href="#linear-gradient-41"/><filter id="luminosity-noclip-24" x="162.41" y="58.06" width="10.92" height="4.98" filterUnits="userSpaceOnUse" color-interpolation-filters="sRGB"><feFlood flood-color="#fff" result="bg"/><feBlend in="SourceGraphic" in2="bg"/></filter><mask id="mask-24" x="162.41" y="58.06" width="10.92" height="4.98" maskUnits="userSpaceOnUse"><g class="cls-1"><path class="cls-2" d="M166,62.26c-1.43-.82-2.69-.95-3.59-.47l5.9-3.41c.91-.53,2.2-.42,3.67.43C176,61.14,170.05,64.59,166,62.26Z"/></g></mask><linearGradient id="linear-gradient-43" x1="82.65" y1="60.55" x2="93.57" y2="60.55" gradientTransform="matrix(-1, 0, 0, 1, 255.97, 0)" gradientUnits="userSpaceOnUse"><stop offset="0" stop-color="#bf61ff"/><stop offset="1" stop-color="#fffffb"/></linearGradient><linearGradient id="linear-gradient-44" x1="-82.65" y1="-373.99" x2="-37.45" y2="-373.99" gradientTransform="matrix(-0.87, -0.5, 0, 1.15, 129.81, 486.72)" gradientUnits="userSpaceOnUse"><stop offset="0" stop-color="#671de7"/><stop offset="0.26" stop-color="#7214d4"/><stop offset="0.73" stop-color="#8405b5"/><stop offset="1" stop-color="#8b00aa"/></linearGradient><linearGradient id="linear-gradient-45" x1="-82.65" y1="-355.4" x2="-37.45" y2="-355.4" xlink:href="#linear-gradient-44"/><linearGradient id="linear-gradient-46" x1="60.56" y1="85.54" x2="96.5" y2="85.54" gradientTransform="matrix(-1, 0, 0, 1, 255.97, 0)" gradientUnits="userSpaceOnUse"><stop offset="0" stop-color="#40ffff"/><stop offset="0.16" stop-color="#33f6ff"/><stop offset="0.71" stop-color="#0edbff"/><stop offset="1" stop-color="#00d1ff"/></linearGradient><linearGradient id="linear-gradient-47" x1="60.55" y1="75.57" x2="96.49" y2="75.57" gradientTransform="matrix(-1, 0, 0, 1, 255.97, 0)" gradientUnits="userSpaceOnUse"><stop offset="0" stop-color="#7dffff"/><stop offset="1" stop-color="#6effff"/></linearGradient><linearGradient id="linear-gradient-48" x1="-40" y1="-401.36" x2="5.2" y2="-401.36" xlink:href="#linear-gradient-41"/><linearGradient id="linear-gradient-49" x1="-40" y1="-380.78" x2="5.2" y2="-380.78" xlink:href="#linear-gradient-41"/><filter id="luminosity-noclip-25" x="125.46" y="7.56" width="10.92" height="4.98" filterUnits="userSpaceOnUse" color-interpolation-filters="sRGB"><feFlood flood-color="#fff" result="bg"/><feBlend in="SourceGraphic" in2="bg"/></filter><mask id="mask-25" x="125.46" y="7.56" width="10.92" height="4.98" maskUnits="userSpaceOnUse"><g class="cls-13"><path class="cls-14" d="M129.05,11.77c-1.43-.82-2.69-1-3.59-.48l5.9-3.41c.91-.53,2.2-.41,3.67.43C139.08,10.65,133.1,14.1,129.05,11.77Z"/></g></mask><linearGradient id="linear-gradient-50" x1="119.6" y1="10.05" x2="130.52" y2="10.05" xlink:href="#linear-gradient-43"/><linearGradient id="linear-gradient-51" x1="-39.98" y1="-399.24" x2="5.21" y2="-399.24" xlink:href="#linear-gradient-44"/><linearGradient id="linear-gradient-52" x1="-39.98" y1="-380.65" x2="5.21" y2="-380.65" xlink:href="#linear-gradient-44"/><linearGradient id="linear-gradient-53" x1="97.51" y1="35.04" x2="133.45" y2="35.04" xlink:href="#linear-gradient-46"/><linearGradient id="linear-gradient-54" x1="97.5" y1="25.08" x2="133.44" y2="25.08" xlink:href="#linear-gradient-47"/><linearGradient id="linear-gradient-55" x1="102.9" y1="39.88" x2="108.85" y2="39.88" gradientTransform="matrix(-1, 0, 0, 1, 255.97, 0)" xlink:href="#linear-gradient-41"/><linearGradient id="linear-gradient-56" x1="111.88" y1="34.7" x2="117.83" y2="34.7" gradientTransform="matrix(-1, 0, 0, 1, 255.97, 0)" xlink:href="#linear-gradient-41"/><linearGradient id="linear-gradient-57" x1="120.86" y1="29.52" x2="126.8" y2="29.52" gradientTransform="matrix(-1, 0, 0, 1, 255.97, 0)" xlink:href="#linear-gradient-41"/><linearGradient id="linear-gradient-58" x1="77.82" y1="-266.48" x2="123.02" y2="-266.48" xlink:href="#linear-gradient-41"/><linearGradient id="linear-gradient-59" x1="77.82" y1="-245.89" x2="123.02" y2="-245.89" xlink:href="#linear-gradient-41"/><filter id="luminosity-noclip-26" x="23.43" y="104.41" width="10.92" height="4.98" filterUnits="userSpaceOnUse" color-interpolation-filters="sRGB"><feFlood flood-color="#fff" result="bg"/><feBlend in="SourceGraphic" in2="bg"/></filter><mask id="mask-26" x="23.43" y="104.41" width="10.92" height="4.98" maskUnits="userSpaceOnUse"><g class="cls-35"><path class="cls-36" d="M27,108.61c-1.43-.82-2.69-1-3.59-.47l5.9-3.41c.91-.53,2.2-.42,3.67.43C37.05,107.49,31.07,110.94,27,108.61Z"/></g></mask><linearGradient id="linear-gradient-60" x1="221.63" y1="106.9" x2="232.55" y2="106.9" xlink:href="#linear-gradient-43"/><linearGradient id="linear-gradient-61" x1="77.84" y1="-264.35" x2="123.03" y2="-264.35" xlink:href="#linear-gradient-44"/><linearGradient id="linear-gradient-62" x1="77.84" y1="-245.77" x2="123.03" y2="-245.77" xlink:href="#linear-gradient-44"/><linearGradient id="linear-gradient-63" x1="199.54" y1="131.89" x2="235.48" y2="131.89" xlink:href="#linear-gradient-46"/><linearGradient id="linear-gradient-64" x1="199.53" y1="121.92" x2="235.47" y2="121.92" xlink:href="#linear-gradient-47"/><linearGradient id="linear-gradient-65" x1="204.93" y1="136.72" x2="210.88" y2="136.72" gradientTransform="matrix(-1, 0, 0, 1, 255.97, 0)" xlink:href="#linear-gradient-41"/><linearGradient id="linear-gradient-66" x1="213.91" y1="131.54" x2="219.86" y2="131.54" gradientTransform="matrix(-1, 0, 0, 1, 255.97, 0)" xlink:href="#linear-gradient-41"/><linearGradient id="linear-gradient-67" x1="222.89" y1="126.36" x2="228.84" y2="126.36" gradientTransform="matrix(-1, 0, 0, 1, 255.97, 0)" xlink:href="#linear-gradient-41"/><linearGradient id="linear-gradient-68" x1="40.07" y1="-358.1" x2="85.27" y2="-358.1" xlink:href="#linear-gradient-41"/><linearGradient id="linear-gradient-69" x1="40.07" y1="-337.52" x2="85.27" y2="-337.52" xlink:href="#linear-gradient-41"/><filter id="luminosity-noclip-27" x="56.12" y="17.48" width="10.92" height="4.98" filterUnits="userSpaceOnUse" color-interpolation-filters="sRGB"><feFlood flood-color="#fff" result="bg"/><feBlend in="SourceGraphic" in2="bg"/></filter><mask id="mask-27" x="56.12" y="17.48" width="10.92" height="4.98" maskUnits="userSpaceOnUse"><g class="cls-43"><path class="cls-44" d="M59.71,21.68a3.74,3.74,0,0,0-3.59-.47L62,17.8c.91-.53,2.2-.41,3.67.43C69.74,20.56,63.76,24,59.71,21.68Z"/></g></mask><linearGradient id="linear-gradient-70" x1="188.93" y1="19.97" x2="199.85" y2="19.97" xlink:href="#linear-gradient-43"/><linearGradient id="linear-gradient-71" x1="40.08" y1="-355.98" x2="85.28" y2="-355.98" xlink:href="#linear-gradient-44"/><linearGradient id="linear-gradient-72" x1="40.08" y1="-337.4" x2="85.28" y2="-337.4" xlink:href="#linear-gradient-44"/><linearGradient id="linear-gradient-73" x1="166.84" y1="44.96" x2="202.78" y2="44.96" xlink:href="#linear-gradient-46"/><linearGradient id="linear-gradient-74" x1="166.84" y1="34.99" x2="202.78" y2="34.99" xlink:href="#linear-gradient-47"/><linearGradient id="linear-gradient-75" x1="78.26" y1="21.97" x2="97.54" y2="-0.84" gradientTransform="matrix(-0.87, -0.5, 0, 1.15, 154.79, 121.8)" gradientUnits="userSpaceOnUse"><stop offset="0" stop-color="#7429eb"/><stop offset="0.06" stop-color="#772cec"/><stop offset="0.11" stop-color="#8134ef"/><stop offset="0.16" stop-color="#9143f4"/><stop offset="0.2" stop-color="#a757fb"/><stop offset="0.22" stop-color="#b664ff"/><stop offset="0.45" stop-color="#b45ffb"/><stop offset="0.72" stop-color="#ae51ee"/><stop offset="1" stop-color="#a43adb"/></linearGradient><linearGradient id="linear-gradient-76" x1="81.66" y1="17.95" x2="97.51" y2="-0.81" gradientTransform="matrix(-0.87, -0.5, 0, 1.15, 154.79, 121.8)" gradientUnits="userSpaceOnUse"><stop offset="0" stop-color="#671de7"/><stop offset="0.02" stop-color="#883aef"/><stop offset="0.06" stop-color="#d079ff"/><stop offset="0.32" stop-color="#c467f5"/><stop offset="0.74" stop-color="#b350e7"/><stop offset="1" stop-color="#ad47e2"/></linearGradient><linearGradient id="linear-gradient-77" x1="106.68" y1="8.32" x2="107.25" y2="7.65" gradientTransform="matrix(-0.87, -0.5, 0, 1.15, 154.79, 121.8)" gradientUnits="userSpaceOnUse"><stop offset="0" stop-color="#ac4deb"/><stop offset="0.6" stop-color="#c064f4"/><stop offset="1" stop-color="#d076fb"/></linearGradient><linearGradient id="linear-gradient-78" x1="95.97" y1="99.58" x2="131.74" y2="99.58" gradientTransform="matrix(-1, 0, 0, 1, 190.17, 0)" gradientUnits="userSpaceOnUse"><stop offset="0" stop-color="#00dfff"/><stop offset="0.65" stop-color="#00baff"/><stop offset="1" stop-color="#00acff"/></linearGradient><filter id="luminosity-noclip-28" x="58.91" y="87.11" width="27.62" height="26.64" filterUnits="userSpaceOnUse" color-interpolation-filters="sRGB"><feFlood flood-color="#fff" result="bg"/><feBlend in="SourceGraphic" in2="bg"/></filter><mask id="mask-28" x="58.91" y="87.11" width="27.62" height="26.64" maskUnits="userSpaceOnUse"><g class="cls-45"><path class="cls-46" d="M86.53,113.75l-2.31-1.33L60.55,98.75a3.6,3.6,0,0,1-1.64-2.83V87.11Z"/></g></mask><linearGradient id="linear-gradient-79" x1="103.64" y1="100.43" x2="131.64" y2="100.43" gradientTransform="matrix(-1, 0, 0, 1, 190.17, 0)" gradientUnits="userSpaceOnUse"><stop offset="0" stop-color="#00f0ff"/><stop offset="1" stop-color="#00dfff"/></linearGradient><filter id="luminosity-noclip-29" x="62.13" y="79.55" width="29.3" height="29.31" filterUnits="userSpaceOnUse" color-interpolation-filters="sRGB"><feFlood flood-color="#fff" result="bg"/><feBlend in="SourceGraphic" in2="bg"/></filter><mask id="mask-29" x="62.13" y="79.55" width="29.3" height="29.31" maskUnits="userSpaceOnUse"><g class="cls-3"><path class="cls-4" d="M62.13,79.55l27.66,16a3.63,3.63,0,0,1,1.64,2.84v10.5Z"/></g></mask><linearGradient id="linear-gradient-80" x1="98.74" y1="94.2" x2="128.44" y2="94.2" xlink:href="#linear-gradient-79"/><linearGradient id="linear-gradient-81" x1="95.97" y1="88.28" x2="131.74" y2="88.28" xlink:href="#linear-gradient-79"/><linearGradient id="linear-gradient-82" x1="102.73" y1="91.94" x2="128.14" y2="91.94" gradientTransform="matrix(-1, 0, 0, 1, 190.17, 0)" xlink:href="#linear-gradient-41"/><linearGradient id="linear-gradient-83" x1="102.73" y1="98.28" x2="119.87" y2="98.28" gradientTransform="matrix(-1, 0, 0, 1, 190.17, 0)" xlink:href="#linear-gradient-41"/><linearGradient id="linear-gradient-84" x1="102.73" y1="103.51" x2="115.43" y2="103.51" gradientTransform="matrix(-1, 0, 0, 1, 190.17, 0)" xlink:href="#linear-gradient-41"/><filter id="luminosity-noclip-30" x="61.79" y="84.51" width="24.95" height="15.4" filterUnits="userSpaceOnUse" color-interpolation-filters="sRGB"><feFlood flood-color="#fff" result="bg"/><feBlend in="SourceGraphic" in2="bg"/></filter><mask id="mask-30" x="61.79" y="84.51" width="24.95" height="15.4" maskUnits="userSpaceOnUse"><g class="cls-5"><path class="cls-6" d="M86.74,99.16a.47.47,0,0,0-.17-.35L61.79,84.51v.74a.5.5,0,0,0,.18.36l24.77,14.3Z"/></g></mask><linearGradient id="linear-gradient-85" x1="103.43" y1="92.21" x2="128.37" y2="92.21" gradientTransform="matrix(-1, 0, 0, 1, 190.17, 0)" gradientUnits="userSpaceOnUse"><stop offset="0" stop-color="#00dfff"/><stop offset="0.14" stop-color="#00e2ff"/><stop offset="1" stop-color="#00f0ff"/></linearGradient><filter id="luminosity-noclip-31" x="70.07" y="93.24" width="16.67" height="10.62" filterUnits="userSpaceOnUse" color-interpolation-filters="sRGB"><feFlood flood-color="#fff" result="bg"/><feBlend in="SourceGraphic" in2="bg"/></filter><mask id="mask-31" x="70.07" y="93.24" width="16.67" height="10.62" maskUnits="userSpaceOnUse"><g class="cls-7"><path class="cls-8" d="M86.74,103.16a.55.55,0,0,0-.21-.42l-16.46-9.5v.69a.54.54,0,0,0,.21.42l16.46,9.51Z"/></g></mask><linearGradient id="linear-gradient-86" x1="103.43" y1="98.55" x2="120.1" y2="98.55" xlink:href="#linear-gradient-85"/><filter id="luminosity-noclip-32" x="74.5" y="99.75" width="12.24" height="8.06" filterUnits="userSpaceOnUse" color-interpolation-filters="sRGB"><feFlood flood-color="#fff" result="bg"/><feBlend in="SourceGraphic" in2="bg"/></filter><mask id="mask-32" x="74.5" y="99.75" width="12.24" height="8.06" maskUnits="userSpaceOnUse"><g class="cls-9"><path class="cls-10" d="M86.74,107.81v-.67a.59.59,0,0,0-.23-.46l-12-6.93v.66a.63.63,0,0,0,.23.47Z"/></g></mask><linearGradient id="linear-gradient-87" x1="103.43" y1="103.78" x2="115.67" y2="103.78" xlink:href="#linear-gradient-85"/><linearGradient id="linear-gradient-88" x1="79.88" y1="23.35" x2="99.16" y2="0.53" gradientTransform="matrix(-0.87, -0.5, 0, 1.15, 154.79, 121.8)" xlink:href="#linear-gradient-44"/><linearGradient id="linear-gradient-89" x1="-53.64" y1="-23.19" x2="0.06" y2="-23.19" gradientTransform="matrix(-0.87, -0.5, 0, 1.15, 130.34, 125.14)" xlink:href="#linear-gradient-41"/><linearGradient id="linear-gradient-90" x1="-45.7" y1="-13.7" x2="-40.43" y2="-13.7" gradientTransform="matrix(-0.87, -0.5, 0, 1.15, 130.34, 125.14)" gradientUnits="userSpaceOnUse"><stop offset="0" stop-color="#7a40ff"/><stop offset="1" stop-color="#7937f5"/></linearGradient><filter id="luminosity-noclip-33" x="130.29" y="91.41" width="8.44" height="3.08" filterUnits="userSpaceOnUse" color-interpolation-filters="sRGB"><feFlood flood-color="#fff" result="bg"/><feBlend in="SourceGraphic" in2="bg"/></filter><mask id="mask-33" x="130.29" y="91.41" width="8.44" height="3.08" maskUnits="userSpaceOnUse"><g class="cls-11"><path class="cls-12" d="M135,93.6l-4.69.89,3.89-2.25a8.31,8.31,0,0,1,4.55-.81s0,.44-1.28,1.18A6.68,6.68,0,0,1,135,93.6Z"/></g></mask><linearGradient id="linear-gradient-91" x1="-6.44" y1="-29.17" x2="-3.55" y2="-30.56" gradientTransform="matrix(-0.87, -0.5, 0, 1.15, 130.34, 125.14)" gradientUnits="userSpaceOnUse"><stop offset="0" stop-color="#bf61ff"/><stop offset="1" stop-color="#f9f"/></linearGradient><linearGradient id="linear-gradient-92" x1="-49.31" y1="-21.21" x2="2.18" y2="-21.21" gradientTransform="matrix(-0.87, -0.5, 0, 1.15, 130.34, 125.14)" xlink:href="#linear-gradient-78"/><filter id="luminosity-noclip-34" x="128.46" y="95.87" width="31.47" height="30.97" filterUnits="userSpaceOnUse" color-interpolation-filters="sRGB"><feFlood flood-color="#fff" result="bg"/><feBlend in="SourceGraphic" in2="bg"/></filter><mask id="mask-34" x="128.46" y="95.87" width="31.47" height="30.97" maskUnits="userSpaceOnUse"><g class="cls-15"><path class="cls-16" d="M159.93,126.84a52.17,52.17,0,0,1-9.18-4.27c-12.31-7.11-22.29-18.08-22.29-24.51a4.54,4.54,0,0,1,.5-2.19S160.05,126.88,159.93,126.84Z"/></g></mask><linearGradient id="linear-gradient-93" x1="-34.17" y1="-18.54" x2="2.18" y2="-18.54" gradientTransform="matrix(-0.87, -0.5, 0, 1.15, 130.34, 125.14)" xlink:href="#linear-gradient-79"/><filter id="luminosity-noclip-35" x="139.89" y="94.49" width="33.15" height="32.16" filterUnits="userSpaceOnUse" color-interpolation-filters="sRGB"><feFlood flood-color="#fff" result="bg"/><feBlend in="SourceGraphic" in2="bg"/></filter><mask id="mask-35" x="139.89" y="94.49" width="33.15" height="32.16" maskUnits="userSpaceOnUse"><g class="cls-17"><path class="cls-18" d="M150.75,99.29C163.06,106.4,173,117.37,173,123.8a4.19,4.19,0,0,1-1,2.86L139.89,94.49A49.42,49.42,0,0,1,150.75,99.29Z"/></g></mask><linearGradient id="linear-gradient-94" x1="-49.31" y1="-26.07" x2="-11.03" y2="-26.07" gradientTransform="matrix(-0.87, -0.5, 0, 1.15, 130.34, 125.14)" xlink:href="#linear-gradient-79"/><linearGradient id="linear-gradient-95" x1="-53.64" y1="-26.01" x2="0.06" y2="-26.01" gradientTransform="matrix(-0.87, -0.5, 0, 1.15, 130.34, 125.14)" xlink:href="#linear-gradient-44"/><linearGradient id="linear-gradient-96" x1="-53.64" y1="-12.92" x2="0.06" y2="-12.92" gradientTransform="matrix(-0.87, -0.5, 0, 1.15, 130.34, 125.14)" xlink:href="#linear-gradient-44"/><linearGradient id="linear-gradient-97" x1="-49.31" y1="-22.98" x2="2.18" y2="-22.98" gradientTransform="matrix(-0.87, -0.5, 0, 1.15, 130.34, 125.14)" xlink:href="#linear-gradient-79"/><linearGradient id="linear-gradient-98" x1="10.25" y1="113.46" x2="13.83" y2="113.46" gradientTransform="matrix(-1, 0, 0, 1, 167.33, 0)" xlink:href="#linear-gradient-41"/><linearGradient id="linear-gradient-99" x1="15.66" y1="110.34" x2="19.24" y2="110.34" gradientTransform="matrix(-1, 0, 0, 1, 167.33, 0)" xlink:href="#linear-gradient-41"/><linearGradient id="linear-gradient-100" x1="21.06" y1="107.22" x2="24.65" y2="107.22" gradientTransform="matrix(-1, 0, 0, 1, 167.33, 0)" xlink:href="#linear-gradient-41"/><filter id="luminosity-noclip-36" x="153.01" y="111.8" width="3.12" height="4.16" filterUnits="userSpaceOnUse" color-interpolation-filters="sRGB"><feFlood flood-color="#fff" result="bg"/><feBlend in="SourceGraphic" in2="bg"/></filter><mask id="mask-36" x="153.01" y="111.8" width="3.12" height="4.16" maskUnits="userSpaceOnUse"><g class="cls-19"><path class="cls-20" d="M155.37,116c.48,0,.76-.39.76-1a3.7,3.7,0,0,0-1.68-2.9,1.37,1.37,0,0,0-.68-.21c-.47,0-.76.39-.76,1a3.72,3.72,0,0,0,1.68,2.91A1.4,1.4,0,0,0,155.37,116Z"/></g></mask><linearGradient id="linear-gradient-101" x1="11.2" y1="113.88" x2="14.32" y2="113.88" gradientTransform="matrix(-1, 0, 0, 1, 167.33, 0)" xlink:href="#linear-gradient-85"/><filter id="luminosity-noclip-37" x="147.6" y="108.67" width="3.12" height="4.16" filterUnits="userSpaceOnUse" color-interpolation-filters="sRGB"><feFlood flood-color="#fff" result="bg"/><feBlend in="SourceGraphic" in2="bg"/></filter><mask id="mask-37" x="147.6" y="108.67" width="3.12" height="4.16" maskUnits="userSpaceOnUse"><g class="cls-21"><path class="cls-22" d="M150,112.84c.48,0,.76-.39.76-1a3.7,3.7,0,0,0-1.67-2.9,1.42,1.42,0,0,0-.69-.22c-.47,0-.76.4-.76,1a3.74,3.74,0,0,0,1.68,2.91A1.51,1.51,0,0,0,150,112.84Z"/></g></mask><linearGradient id="linear-gradient-102" x1="16.6" y1="110.76" x2="19.72" y2="110.76" gradientTransform="matrix(-1, 0, 0, 1, 167.33, 0)" xlink:href="#linear-gradient-85"/><filter id="luminosity-noclip-38" x="142.2" y="105.55" width="3.12" height="4.16" filterUnits="userSpaceOnUse" color-interpolation-filters="sRGB"><feFlood flood-color="#fff" result="bg"/><feBlend in="SourceGraphic" in2="bg"/></filter><mask id="mask-38" x="142.2" y="105.55" width="3.12" height="4.16" maskUnits="userSpaceOnUse"><g class="cls-23"><path class="cls-24" d="M144.56,109.72c.47,0,.76-.39.76-1a3.71,3.71,0,0,0-1.68-2.9,1.42,1.42,0,0,0-.68-.22c-.48,0-.76.39-.76,1a3.7,3.7,0,0,0,1.67,2.9A1.42,1.42,0,0,0,144.56,109.72Z"/></g></mask><linearGradient id="linear-gradient-103" x1="22.01" y1="107.64" x2="25.13" y2="107.64" gradientTransform="matrix(-1, 0, 0, 1, 167.33, 0)" xlink:href="#linear-gradient-85"/><linearGradient id="linear-gradient-104" x1="30.51" y1="-327.14" x2="60.25" y2="-327.14" gradientTransform="matrix(-0.87, -0.5, 0, 1.15, 151.25, 486.72)" xlink:href="#linear-gradient-41"/><linearGradient id="linear-gradient-105" x1="30.51" y1="-313.6" x2="60.25" y2="-313.6" gradientTransform="matrix(-0.87, -0.5, 0, 1.15, 151.25, 486.72)" xlink:href="#linear-gradient-41"/><filter id="luminosity-noclip-39" x="99.18" y="70.22" width="7.18" height="3.28" filterUnits="userSpaceOnUse" color-interpolation-filters="sRGB"><feFlood flood-color="#fff" result="bg"/><feBlend in="SourceGraphic" in2="bg"/></filter><mask id="mask-39" x="99.18" y="70.22" width="7.18" height="3.28" maskUnits="userSpaceOnUse"><g class="cls-25"><path class="cls-26" d="M101.54,73a2.45,2.45,0,0,0-2.36-.31l3.88-2.25a2.43,2.43,0,0,1,2.41.29C108.14,72.25,104.21,74.52,101.54,73Z"/></g></mask><linearGradient id="linear-gradient-106" x1="171.05" y1="71.86" x2="178.24" y2="71.86" gradientTransform="matrix(-1, 0, 0, 1, 277.42, 0)" gradientUnits="userSpaceOnUse"><stop offset="0" stop-color="#bf61ff"/><stop offset="1" stop-color="#d0bcfb"/></linearGradient><linearGradient id="linear-gradient-107" x1="30.52" y1="-325.75" x2="60.25" y2="-325.75" gradientTransform="matrix(-0.87, -0.5, 0, 1.15, 151.25, 486.72)" xlink:href="#linear-gradient-44"/><linearGradient id="linear-gradient-108" x1="30.52" y1="-313.52" x2="60.25" y2="-313.52" gradientTransform="matrix(-0.87, -0.5, 0, 1.15, 151.25, 486.72)" xlink:href="#linear-gradient-44"/><linearGradient id="linear-gradient-109" x1="156.52" y1="88.3" x2="180.16" y2="88.3" gradientTransform="matrix(-1, 0, 0, 1, 277.42, 0)" xlink:href="#linear-gradient-78"/><filter id="luminosity-noclip-40" x="98.19" y="82.93" width="19.47" height="21.18" filterUnits="userSpaceOnUse" color-interpolation-filters="sRGB"><feFlood flood-color="#fff" result="bg"/><feBlend in="SourceGraphic" in2="bg"/></filter><mask id="mask-40" x="98.19" y="82.93" width="19.47" height="21.18" maskUnits="userSpaceOnUse"><g class="cls-27"><path class="cls-28" d="M117.66,102.42l-2-1.15a3.13,3.13,0,0,0-.36-.19,1.38,1.38,0,0,0-1.64,0c-.62.57-1.18,1.22-1.79,1.79a7.28,7.28,0,0,1-1.27,1l-.16.09c-.7.35-1.46-.16-2.11-1.35-.38-.69-.69-1.42-1-2.14-.52-1.16-1-2.34-1.51-3.5a5.25,5.25,0,0,0-2.42-2.79l-1.81-1a7.15,7.15,0,0,1-3.39-5.7c0-1.52,0-3,0-4.54Z"/></g></mask><linearGradient id="linear-gradient-110" x1="159.76" y1="93.52" x2="180.03" y2="93.52" gradientTransform="matrix(-1, 0, 0, 1, 277.42, 0)" xlink:href="#linear-gradient-79"/><filter id="luminosity-noclip-41" x="98.63" y="72.49" width="22.26" height="22.99" filterUnits="userSpaceOnUse" color-interpolation-filters="sRGB"><feFlood flood-color="#fff" result="bg"/><feBlend in="SourceGraphic" in2="bg"/></filter><mask id="mask-41" x="98.63" y="72.49" width="22.26" height="22.99" maskUnits="userSpaceOnUse"><g class="cls-29"><path class="cls-30" d="M98.63,73.18a1.57,1.57,0,0,1,.45-.44l.09,0h0a2.45,2.45,0,0,1,2.36.31q4,2.3,8,4.61h0c2.69,1.55,5.37,3.09,8,4.65a7,7,0,0,1,3.28,5.55c0,2.57,0,5.13,0,7.68Z"/></g></mask><linearGradient id="linear-gradient-111" x1="156.52" y1="83.99" x2="179.7" y2="83.99" gradientTransform="matrix(-1, 0, 0, 1, 277.42, 0)" xlink:href="#linear-gradient-79"/><linearGradient id="linear-gradient-112" x1="156.52" y1="81.74" x2="180.16" y2="81.74" gradientTransform="matrix(-1, 0, 0, 1, 277.42, 0)" xlink:href="#linear-gradient-79"/><linearGradient id="linear-gradient-113" x1="15.03" y1="76.25" x2="30.88" y2="58.14" gradientTransform="matrix(-0.87, -0.5, 0, 1.15, 131.74, 72.2)" gradientUnits="userSpaceOnUse"><stop offset="0" stop-color="#7227ea"/><stop offset="0.7" stop-color="#b664ff"/><stop offset="0.76" stop-color="#b45ffb"/><stop offset="0.82" stop-color="#ae51ef"/><stop offset="0.89" stop-color="#a339da"/><stop offset="0.96" stop-color="#9518be"/><stop offset="1" stop-color="#8b00aa"/></linearGradient><linearGradient id="linear-gradient-114" x1="17.85" y1="73.02" x2="30.53" y2="58.54" gradientTransform="matrix(-0.87, -0.5, 0, 1.15, 131.74, 72.2)" xlink:href="#linear-gradient-41"/><linearGradient id="linear-gradient-115" x1="32" y1="63.56" x2="32.54" y2="62.95" gradientTransform="matrix(-0.87, -0.5, 0, 1.15, 131.74, 72.2)" gradientUnits="userSpaceOnUse"><stop offset="0" stop-color="#ae52e7"/><stop offset="1" stop-color="#c789ff"/></linearGradient><linearGradient id="linear-gradient-116" x1="16.55" y1="77.57" x2="32.39" y2="59.46" gradientTransform="matrix(-0.87, -0.5, 0, 1.15, 131.74, 72.2)" xlink:href="#linear-gradient-44"/><linearGradient id="linear-gradient-117" x1="50.38" y1="151.31" x2="69.08" y2="134.09" gradientTransform="matrix(-1, 0, 0, 1, 167.33, 0)" xlink:href="#linear-gradient-78"/><filter id="luminosity-noclip-42" x="97.65" y="136.99" width="19.76" height="24.06" filterUnits="userSpaceOnUse" color-interpolation-filters="sRGB"><feFlood flood-color="#fff" result="bg"/><feBlend in="SourceGraphic" in2="bg"/></filter><mask id="mask-42" x="97.65" y="136.99" width="19.76" height="24.06" maskUnits="userSpaceOnUse"><g class="cls-31"><path class="cls-32" d="M116.72,156l.7,5.09-5.81-5.35h-.09a9.8,9.8,0,0,1-3.84-1.33,15.64,15.64,0,0,1-1.5-1h0l-.75-.6h0a22.27,22.27,0,0,1-4.53-5.38,23.66,23.66,0,0,1-2.32-5,18.7,18.7,0,0,1-.81-3.57h0a13.87,13.87,0,0,1-.12-1.81Z"/></g></mask><linearGradient id="linear-gradient-118" x1="53.42" y1="156.4" x2="68.5" y2="142.37" gradientTransform="matrix(-1, 0, 0, 1, 167.33, 0)" xlink:href="#linear-gradient-79"/><filter id="luminosity-noclip-43" x="99.28" y="129.84" width="18.43" height="20.13" filterUnits="userSpaceOnUse" color-interpolation-filters="sRGB"><feFlood flood-color="#fff" result="bg"/><feBlend in="SourceGraphic" in2="bg"/></filter><mask id="mask-43" x="99.28" y="129.84" width="18.43" height="20.13" maskUnits="userSpaceOnUse"><g class="cls-33"><path class="cls-34" d="M100.54,130.54a4.82,4.82,0,0,1,1.3-.54,5.5,5.5,0,0,1,1.16-.16h0a9,9,0,0,1,4.66,1.36,20.46,20.46,0,0,1,7,7.37,21.77,21.77,0,0,1,2.92,8.45c.05.52.08,1,.08,1.56a12.25,12.25,0,0,1-.07,1.38L99.28,131.61A4.91,4.91,0,0,1,100.54,130.54Z"/></g></mask><linearGradient id="linear-gradient-119" x1="49.79" y1="144.23" x2="68.14" y2="130.24" gradientTransform="matrix(-1, 0, 0, 1, 167.33, 0)" xlink:href="#linear-gradient-79"/><linearGradient id="linear-gradient-120" x1="46.27" y1="139.88" x2="286.99" y2="139.88" gradientTransform="matrix(-1, 0, 0, 1, 167.33, 0)" xlink:href="#linear-gradient-79"/><linearGradient id="linear-gradient-121" x1="52.69" y1="145.53" x2="56.27" y2="145.53" gradientTransform="matrix(-1, 0, 0, 1, 167.33, 0)" xlink:href="#linear-gradient-41"/><linearGradient id="linear-gradient-122" x1="58.1" y1="142.4" x2="61.68" y2="142.4" gradientTransform="matrix(-1, 0, 0, 1, 167.33, 0)" xlink:href="#linear-gradient-41"/><linearGradient id="linear-gradient-123" x1="63.5" y1="139.28" x2="67.09" y2="139.28" gradientTransform="matrix(-0.87, -0.5, -0.5, 0.87, 228.22, 51.31)" xlink:href="#linear-gradient-41"/><filter id="luminosity-noclip-44" x="110.57" y="143.86" width="3.12" height="4.16" filterUnits="userSpaceOnUse" color-interpolation-filters="sRGB"><feFlood flood-color="#fff" result="bg"/><feBlend in="SourceGraphic" in2="bg"/></filter><mask id="mask-44" x="110.57" y="143.86" width="3.12" height="4.16" maskUnits="userSpaceOnUse"><g class="cls-37"><path class="cls-38" d="M112.93,148c.48,0,.76-.39.76-1a3.73,3.73,0,0,0-1.67-2.91,1.43,1.43,0,0,0-.69-.21c-.47,0-.76.39-.76,1a3.7,3.7,0,0,0,1.68,2.9A1.4,1.4,0,0,0,112.93,148Z"/></g></mask><linearGradient id="linear-gradient-124" x1="53.64" y1="145.94" x2="56.76" y2="145.94" gradientTransform="matrix(-1, 0, 0, 1, 167.33, 0)" xlink:href="#linear-gradient-85"/><filter id="luminosity-noclip-45" x="105.16" y="140.74" width="3.12" height="4.16" filterUnits="userSpaceOnUse" color-interpolation-filters="sRGB"><feFlood flood-color="#fff" result="bg"/><feBlend in="SourceGraphic" in2="bg"/></filter><mask id="mask-45" x="105.16" y="140.74" width="3.12" height="4.16" maskUnits="userSpaceOnUse"><g class="cls-39"><path class="cls-40" d="M107.52,144.9c.48,0,.76-.39.76-1.05a3.73,3.73,0,0,0-1.67-2.9,1.4,1.4,0,0,0-.69-.21c-.47,0-.76.39-.76,1a3.74,3.74,0,0,0,1.68,2.9A1.4,1.4,0,0,0,107.52,144.9Z"/></g></mask><linearGradient id="linear-gradient-125" x1="59.04" y1="142.82" x2="62.16" y2="142.82" gradientTransform="matrix(-1, 0, 0, 1, 167.33, 0)" xlink:href="#linear-gradient-85"/><filter id="luminosity-noclip-46" x="99.76" y="137.62" width="3.12" height="4.16" filterUnits="userSpaceOnUse" color-interpolation-filters="sRGB"><feFlood flood-color="#fff" result="bg"/><feBlend in="SourceGraphic" in2="bg"/></filter><mask id="mask-46" x="99.76" y="137.62" width="3.12" height="4.16" maskUnits="userSpaceOnUse"><g class="cls-41"><path class="cls-42" d="M102.12,141.78c.47,0,.76-.39.76-1.05a3.73,3.73,0,0,0-1.68-2.9,1.4,1.4,0,0,0-.68-.21c-.48,0-.76.39-.76,1a3.73,3.73,0,0,0,1.67,2.91A1.43,1.43,0,0,0,102.12,141.78Z"/></g></mask><linearGradient id="linear-gradient-126" x1="64.45" y1="139.7" x2="67.57" y2="139.7" gradientTransform="matrix(-1, 0, 0, 1, 167.33, 0)" xlink:href="#linear-gradient-85"/></defs><title>IPA-Grou-Service-Social-Media-Strategies</title><g class="cls-47"><g id="speech_bubble" data-name="speech bubble"><g id="smartphone"><path class="cls-48" d="M79.54,200.24,11.08,161.05c-2.31-1.33-2-3.66.65-5.2L154.94,73.42c2.67-1.54,6.71-1.71,9-.38l70.38,40.7c2.31,1.33,2,3.66-.65,5.21L92.55,200.24Z"/><g id="smartphone-2" data-name="smartphone"><path class="cls-49" d="M222.68,110,6.86,151.4v3.45c0,2.59,0,4.63,3.8,7.06L75.9,199.57a7.4,7.4,0,0,0,6.67-.27L217.1,121.63c1-.59,5.58-3,5.58-6.78Z"/><path class="cls-50" d="M82.57,192.1l-6.67.28v7.19a7.4,7.4,0,0,0,6.67-.27Z"/><path class="cls-51" d="M82.57,192.1l-6.67.28v7.19a7.4,7.4,0,0,0,6.67-.27Z"/><path class="cls-52" d="M222.68,110,82.57,192.1v7.2L217.1,121.63c1-.59,5.58-3,5.58-6.78Z"/><path class="cls-53" d="M6.93,151.33l69,41v7.19L12.51,163c-1-.59-5.58-3-5.58-6.78Z"/><path class="cls-54" d="M210.78,123.44l-27.25,16-.59-.34a.72.72,0,0,1-.36-.63h0a.71.71,0,0,1,.36-.62l27.12-15.66a.71.71,0,0,1,.72,0l.58.33A1.59,1.59,0,0,1,210.78,123.44Z"/><path class="cls-55" d="M211.36,123.77l-27.12,15.66a.72.72,0,0,1-1.08-.62h0a.73.73,0,0,1,.36-.63l27.12-15.66a.72.72,0,0,1,1.08.63h0A.7.7,0,0,1,211.36,123.77Z"/><g class="cls-56"><path class="cls-57" d="M51.77,182.25a1.27,1.27,0,0,0,.58,1c.33.19.59,0,.59-.33a1.28,1.28,0,0,0-.59-1C52,181.73,51.77,181.88,51.77,182.25Z"/><path class="cls-57" d="M27.23,168a3.35,3.35,0,0,0,1.52,2.63c.85.49,1.53.1,1.53-.88a3.33,3.33,0,0,0-1.53-2.63C27.91,166.62,27.23,167,27.23,168Z"/><path class="cls-58" d="M27.59,169.33a3.25,3.25,0,0,0,1.16,1.29c.85.49,1.53.1,1.53-.88a3.2,3.2,0,0,0-.54-1.65Z"/><path class="cls-57" d="M37.67,175.86l7.47,4.31c.46.26.78,0,.65-.63l-.52-2.34a1.52,1.52,0,0,0-.65-.93l-6.43-3.71c-.3-.18-.57-.1-.65.18L37,174.47A1.42,1.42,0,0,0,37.67,175.86Z"/><path class="cls-58" d="M37.59,175.8l7.55,4.37c.46.26.78,0,.65-.63l-.52-2.34a1.52,1.52,0,0,0-.65-.93L40.7,174Z"/></g><path class="cls-59" d="M75.9,192.38,8,153.18c-1.71-1-1.49-2.71.48-3.85L147,69.38a7.4,7.4,0,0,1,6.67-.27l67.89,39.19c1.71,1,1.5,2.71-.48,3.85L82.57,192.1A7.44,7.44,0,0,1,75.9,192.38Z"/><path class="cls-60" d="M78.8,192.15a6.63,6.63,0,0,0,3.21-.79l138.47-80c.65-.37,1.07-.84,1.07-1.2s-.41-.59-.59-.7L153.07,70.32a4.85,4.85,0,0,0-2.34-.52,6.69,6.69,0,0,0-3.21.79L9.05,150.54c-.64.37-1.06.85-1.06,1.2s.41.6.59.7l67.89,39.2A4.79,4.79,0,0,0,78.8,192.15Z"/></g><polygon class="cls-61" points="145.79 71.67 134.23 78.39 205.94 119.76 217.51 113.11 145.79 71.67"/><polygon class="cls-62" points="147.01 75.58 145.84 76.25 150.26 78.79 151.43 78.12 147.01 75.58"/><polygon class="cls-63" points="144.65 76.94 143.48 77.61 147.9 80.15 149.06 79.48 144.65 76.94"/><polygon class="cls-64" points="142.29 78.29 141.12 78.97 145.54 81.51 146.7 80.83 142.29 78.29"/><polygon class="cls-65" points="144.85 105.27 126.89 94.9 99.22 110.87 117.18 121.24 144.85 105.27"/><polygon class="cls-65" points="113.34 123.46 95.38 113.09 90.24 116.01 108.2 126.38 113.34 123.46"/><polygon class="cls-65" points="106.23 127.48 88.27 117.11 83.13 120.03 101.09 130.4 106.23 127.48"/><polygon class="cls-65" points="99.12 131.49 81.15 121.12 76.02 124.04 93.98 134.41 99.12 131.49"/><polygon class="cls-65" points="92.01 135.51 74.04 125.14 68.91 128.06 86.87 138.43 92.01 135.51"/><polygon class="cls-65" points="84.89 139.53 66.93 129.16 61.79 132.08 79.76 142.45 84.89 139.53"/><polygon class="cls-65" points="77.78 143.54 59.82 133.17 54.68 136.09 72.65 146.46 77.78 143.54"/><polygon class="cls-65" points="70.67 147.56 52.71 137.19 47.57 140.11 65.53 150.48 70.67 147.56"/><polygon class="cls-65" points="63.56 151.58 45.6 141.21 40.46 144.13 58.42 154.5 63.56 151.58"/><polygon class="cls-65" points="56.32 155.59 38.35 145.22 33.22 148.14 51.18 158.51 56.32 155.59"/><polygon class="cls-65" points="49.2 159.61 31.24 149.24 26.1 152.16 44.07 162.53 49.2 159.61"/><polygon class="cls-65" points="178.98 124.92 150.31 108.58 122.64 124.55 151.31 140.9 178.98 124.92"/><polygon class="cls-65" points="145.16 144.55 116.48 128.2 88.82 144.17 117.49 160.52 145.16 144.55"/><polygon class="cls-65" points="111.33 164.17 82.66 147.82 54.99 163.79 83.66 180.14 111.33 164.17"/><polygon class="cls-65" points="156.72 98.43 138.75 88.06 132.99 91.37 150.95 101.74 156.72 98.43"/><polygon class="cls-65" points="189.97 117.86 162.1 101.74 156.34 105.04 184.21 121.17 189.97 117.86"/></g><g id="heart"><path class="cls-66" d="M120.82,48.24c3.57-1,6.82,1,8.91,5.45,1.94,4.11,2,8.61-.23,10l-5.29,3.07s-3.9.09-4.26-.48c-2.54-4-12.1-20.43-12.1-20.43s2.24-1.32,4.7-2.71a3.25,3.25,0,0,1,1.92-.39C116.94,43,118.94,45.17,120.82,48.24Z"/><path class="cls-67" d="M116.15,50.94c3.58-1,6.83,1,8.92,5.45,1.94,4.12,2,8.61-.24,10a51.28,51.28,0,0,1-7.78,3.68c-.35.14-1.4-.52-1.76-1.09-2.54-4-5.16-7.92-7.42-12-3.3-6-2.19-11.79,1.93-11.48C112.28,45.66,114.27,47.88,116.15,50.94Z"/></g><g id="friend"><path class="cls-68" d="M91.38,147.69c0,1.87-.65,3.19-1.71,3.8L85,154.18l-8.36-14.36s3.63-2.08,4.68-2.7,2.54-.54,4.17.41A12.94,12.94,0,0,1,91.38,147.69Z"/><path class="cls-69" d="M95.67,170.81,91,173.51,73.06,154.18s2.76-1.62,4.64-2.68c1.52-.87,4-.51,7.81,1.72C94.14,158.2,95.67,164.33,95.67,170.81Z"/><path class="cls-70" d="M86.72,150.4c0,3.74-2.63,5.26-5.87,3.38A13,13,0,0,1,75,143.62c0-3.75,2.63-5.27,5.87-3.39A13,13,0,0,1,86.72,150.4Z"/><path class="cls-71" d="M91,173.51,70.69,161.78c0-6.47,1.53-10.84,10.16-5.86S91,167,91,173.51Z"/></g><g id="smile"><path class="cls-72" d="M52.45,92.24c0,2.25-.79,3.84-2.06,4.58L46,99.4,36,82l4.37-2.53c1.29-.74,3.06-.64,5,.49A15.66,15.66,0,0,1,52.45,92.24Z"/><path class="cls-73" d="M48.06,94.78c0,4.52-3.17,6.35-7.08,4.09A15.66,15.66,0,0,1,33.9,86.6c0-4.52,3.17-6.35,7.08-4.09A15.66,15.66,0,0,1,48.06,94.78Z"/><path class="cls-74" d="M41,94.26a8.48,8.48,0,0,1-3-2.92c-.18-.28-.41-.63-.19-.81s.43.1.64.4c1.67,2.45,3.37,3.32,5.07,3a.54.54,0,0,1,.65.37c.19.41,0,.49-.23.56A3.38,3.38,0,0,1,41,94.26Z"/><path class="cls-74" d="M37.68,87.4c-.41-.24-.77.14-.82-.61,0-.58.42-.57.86-.32a1.47,1.47,0,0,1,.85,1.28C38.49,88.44,38.1,87.64,37.68,87.4Z"/><path class="cls-74" d="M44.2,91.16c-.41-.24-.76.15-.82-.61,0-.57.42-.57.86-.32a1.51,1.51,0,0,1,.86,1.29C45,92.21,44.62,91.4,44.2,91.16Z"/><path class="cls-72" d="M194.72,46.28c0,2.25-.79,3.83-2.06,4.58l-4.44,2.57-10-17.38,4.37-2.53c1.28-.75,3.06-.64,5,.49A15.66,15.66,0,0,1,194.72,46.28Z"/><ellipse class="cls-73" cx="183.3" cy="44.69" rx="5.78" ry="10.02" transform="translate(2.21 97.64) rotate(-30)"/><path class="cls-74" d="M183.28,46.2a3.29,3.29,0,0,0-3-.49c-.18.07-.41.16-.19.58s.43.41.64.35c1.68-.52,3.37.56,5.08,2.85.21.29.46.56.64.38s0-.54-.23-.82A8.11,8.11,0,0,0,183.28,46.2Z"/><path class="cls-74" d="M180,41.4c-.41-.24-.76.14-.82-.61,0-.58.42-.57.86-.32a1.48,1.48,0,0,1,.85,1.29C180.82,42.45,180.42,41.64,180,41.4Z"/><path class="cls-74" d="M186.53,45.17c-.42-.24-.77.14-.82-.61,0-.58.41-.57.85-.32a1.48,1.48,0,0,1,.86,1.28C187.34,46.21,186.94,45.4,186.53,45.17Z"/><path class="cls-72" d="M131.93,122.31c0,2.26-.79,3.84-2.06,4.58l-4.44,2.58-10-17.38s3.1-1.79,4.37-2.54,3.06-.64,5,.5A15.64,15.64,0,0,1,131.93,122.31Z"/><ellipse class="cls-73" cx="120.57" cy="120.72" rx="5.78" ry="10.02" transform="translate(-44.21 76.46) rotate(-30)"/><path class="cls-74" d="M121.74,123.15c.8,1.34.87,2.47.18,2.89s-2-.36-2.71-1.56-.61-2.29.2-2.66Z"/><path class="cls-75" d="M121.74,123.15l-2.33-1.33C120.24,121.35,120.76,121.65,121.74,123.15Z"/><path class="cls-75" d="M116,116.49c0-.78.77-1.33,1.37-1a3.86,3.86,0,0,1,1.55,2.75c0,.92-.7,1.41-1.43,1A3.61,3.61,0,0,1,116,116.49Zm2.09,1.32a1.28,1.28,0,0,0-.63-1.14c-.42-.26-.62-.08-.62.38a1.19,1.19,0,0,0,.56,1C117.81,118.36,118,118.23,118.09,117.81Z"/><path class="cls-74" d="M116.13,114.47c.38-.64.93-.75,2,.15Z"/><path class="cls-74" d="M118.09,117.81c0,.42-.28.55-.69.27a1.19,1.19,0,0,1-.56-1c0-.46.2-.64.62-.38A1.28,1.28,0,0,1,118.09,117.81Z"/><path class="cls-75" d="M123.64,122.8a3.62,3.62,0,0,1-1.42-2.65,1,1,0,0,1,1.54-1,4.07,4.07,0,0,1,1.37,2.58C125.15,122.76,124.43,123.26,123.64,122.8Zm.09-1.06c.35.16.57.05.56-.38a1.22,1.22,0,0,0-.62-1.11c-.42-.24-.61-.06-.62.43A1.26,1.26,0,0,0,123.73,121.74Z"/><path class="cls-74" d="M125,119.59a3,3,0,0,0-2-2.16Z"/><path class="cls-74" d="M123.05,120.68a1.26,1.26,0,0,0,.68,1.06c.35.16.57.05.56-.38a1.22,1.22,0,0,0-.62-1.11C123.25,120,123.06,120.19,123.05,120.68Z"/><path class="cls-72" d="M227.81,86.3c0,2.25-.79,3.84-2.07,4.58l-4.43,2.57-10-17.38,4.37-2.53c1.28-.75,3.06-.64,5,.49A15.64,15.64,0,0,1,227.81,86.3Z"/><ellipse class="cls-73" cx="216.37" cy="84.73" rx="5.78" ry="10.02" transform="translate(-13.38 119.54) rotate(-30)"/><path class="cls-74" d="M219.16,82.35a3,3,0,0,1,2.15,2.74A15.86,15.86,0,0,0,219.16,82.35Z"/><path class="cls-74" d="M219,85.19l1.83,1C220.13,86.86,219.62,86.57,219,85.19Z"/><path class="cls-74" d="M213.59,79.13c-1.42-1-2-.92-2.15.26A3.86,3.86,0,0,1,213.59,79.13Z"/><path class="cls-74" d="M213.76,82.18l-1.82-1.06C212.62,82.52,213.13,82.82,213.76,82.18Z"/><path class="cls-74" d="M216.76,87.88c.2,0,.37-.2.37-.57a1.06,1.06,0,0,0-.19-.59,2.32,2.32,0,0,0-1.16-.8c-.12,0-.19,0-.16.19a.43.43,0,0,0,.25.33,1.9,1.9,0,0,1,.81.51.19.19,0,0,1,0,.12c0,.44-.51.26-.53.25h-.11l0,0s0,0,0,0a.05.05,0,0,0,0,0h0v.08h0s0,0,0,0,0,0,0,.06l0,0,0,.06,0,0,0,0h0s.53.42.53.86c0,.06,0,.07,0,.08s-.57-.23-.81-.43-.23-.07-.25,0a.41.41,0,0,0,.16.38,5.12,5.12,0,0,0,.52.37.89.89,0,0,0,.64.17c.13-.05.19-.17.19-.37A1.83,1.83,0,0,0,216.76,87.88Z"/><path class="cls-72" d="M48.41,34.93c0,2.26-.79,3.84-2.07,4.58L41.9,42.09l-10-17.38,4.37-2.54c1.28-.74,3-.64,5,.49A15.66,15.66,0,0,1,48.41,34.93Z"/><path class="cls-73" d="M43.93,37.52c0,4.52-3.17,6.35-7.08,4.09a15.67,15.67,0,0,1-7.09-12.27c0-4.51,3.18-6.34,7.09-4.09A15.67,15.67,0,0,1,43.93,37.52Z"/><path class="cls-74" d="M36.82,38.06a8.58,8.58,0,0,1-3-2.93c-.18-.28-.41-.63-.2-.81s.44.1.65.4c1.67,2.45,3.37,3.33,5.07,3a.54.54,0,0,1,.65.36c.19.41,0,.5-.23.56A3.4,3.4,0,0,1,36.82,38.06Z"/><path class="cls-67" d="M33.57,28.22c.73-.21,1.39.21,1.82,1.11s.41,1.76,0,2.05a10.54,10.54,0,0,1-1.59.75c-.07,0-.28-.11-.36-.23-.51-.8-1-1.61-1.51-2.45-.67-1.23-.44-2.41.4-2.35C32.78,27.14,33.19,27.6,33.57,28.22Z"/><path class="cls-67" d="M40.09,32c.73-.21,1.4.2,1.82,1.11s.41,1.75,0,2a9.94,9.94,0,0,1-1.58.75c-.07,0-.29-.1-.36-.22-.52-.81-1.05-1.62-1.52-2.46-.67-1.22-.44-2.4.4-2.34C39.3,30.91,39.71,31.36,40.09,32Z"/></g><g id="speech_bubbles" data-name="speech bubbles"><path class="cls-76" d="M195.36,104.35c.09-6.47.06-13,0-19.56a10.73,10.73,0,0,0-5-8.44l-12.23-7.07h0l-12.15-7c-1.43-.82-2.69-.95-3.59-.47l5.9-3.41c.91-.53,2.2-.42,3.67.43l12.15,7h0l12.23,7.07a10.73,10.73,0,0,1,5,8.44c.05,6.55.07,13.09,0,19.56,0,1.59-.54,2.58-1.34,3L194,107.43h0C194.79,107,195.34,106,195.36,104.35Z"/><path class="cls-77" d="M184.43,105a2.09,2.09,0,0,1,2.49,0,6.87,6.87,0,0,1-1.4,1l-5.73,3.31h0a11.75,11.75,0,0,0,1.92-1.55C182.64,106.84,183.5,105.87,184.43,105Z"/><g class="cls-78"><path class="cls-79" d="M166,62.26c-1.43-.82-2.69-.95-3.59-.47l5.9-3.41c.91-.53,2.2-.42,3.67.43C176,61.14,170.05,64.59,166,62.26Z"/></g><path class="cls-80" d="M165,60.26a5.13,5.13,0,0,1,2.27.75l12.34,7.12h0l12.42,7.18a10.89,10.89,0,0,1,5.06,8.57c.06,6.65.08,13.29,0,19.86a4.66,4.66,0,0,1-.46,2.12l-2.72,1.56h0c.83-.45,1.39-1.45,1.41-3.08.08-6.47.06-13,0-19.56a10.69,10.69,0,0,0-5-8.44l-12.24-7.07h0l-12.14-7c-1.43-.82-2.69-.95-3.59-.47Z"/><path class="cls-81" d="M179.78,109.26a11.75,11.75,0,0,0,1.92-1.55c.93-.87,1.79-1.84,2.72-2.71a1.6,1.6,0,0,1,1.41-.4c-.87.83-1.68,1.74-2.56,2.56l-.27.25-3.22,1.86Z"/><path class="cls-82" d="M160.93,65a3.55,3.55,0,0,1,1.33-3.14,1.48,1.48,0,0,1,.13-.08h0c.9-.48,2.16-.35,3.59.47l12.15,7h0l12.23,7.07a10.73,10.73,0,0,1,5,8.44c0,6.55.08,13.09,0,19.56,0,1.63-.57,2.63-1.41,3.08a3.64,3.64,0,0,1-3.45-.43l-3-1.74a5.09,5.09,0,0,0-.56-.3,2.09,2.09,0,0,0-2.49,0c-.93.87-1.79,1.84-2.72,2.71a11.75,11.75,0,0,1-1.92,1.55l-.25.15c-1.06.52-2.22-.26-3.2-2-.58-1.06-1.06-2.16-1.54-3.26-.79-1.77-1.51-3.56-2.3-5.33a8,8,0,0,0-3.68-4.24L166.07,93a10.91,10.91,0,0,1-5.15-8.68C160.89,77.83,160.88,71.41,160.93,65Z"/><path class="cls-83" d="M160.93,65a3.55,3.55,0,0,1,1.33-3.14l.13-.08h0a3.74,3.74,0,0,1,3.59.47l12.15,7h0l12.24,7.07a10.8,10.8,0,0,1,4.32,5.27,9.92,9.92,0,0,0-3.23-3.16l-12.23-7.07h0l-12.15-7c-1.43-.82-2.68-1-3.59-.47h0a1.48,1.48,0,0,0-.13.08A3.55,3.55,0,0,0,162,67.13c-.05,6.39,0,12.81,0,19.25a9.12,9.12,0,0,0,.67,3.25,10.09,10.09,0,0,1-1.76-5.36Q160.87,74.61,160.93,65Z"/><path class="cls-84" d="M182.14,86.32a3.24,3.24,0,0,1-.67-.14,2,2,0,0,1-.4-.24,1.18,1.18,0,0,1-.35-.36c-.13-.22,0-.9.32-.92a6.94,6.94,0,0,1,2.06.3,1,1,0,0,1,.51.81c0,2,0,4,0,6,0,.22-.41.31-.67.24a1,1,0,0,1-.79-1.08c0-1.11,0-2.24,0-3.37Z"/><path class="cls-84" d="M189.59,93.45a2.27,2.27,0,0,1-.49,1.21c-.39.41-.94.41-1.66,0q-2.16-1.25-2.16-4.76a3.69,3.69,0,0,1,.58-2.44c.39-.41,1-.4,1.7,0q2.12,1.22,2.11,4.79a6.91,6.91,0,0,1-.08,1.18Zm-2.09-4.83c-.58-.33-.87.34-.87,2s.29,2.53.85,2.86.83-.34.83-2S188,88.93,187.5,88.62Z"/><path class="cls-84" d="M174.84,78.59c0,1.92-1.35,2.7-3,1.74a6.64,6.64,0,0,1-3-5.21c0-1.91,1.34-2.69,3-1.73A6.65,6.65,0,0,1,174.84,78.59Z"/><path class="cls-84" d="M177,90.42l-10.39-6c0-3.31.78-5.55,5.19-3S177,87.11,177,90.42Z"/><path class="cls-85" d="M158.41,53.85c.08-6.46.06-13,0-19.55a10.73,10.73,0,0,0-5-8.45L141.2,18.79h0l-12.15-7c-1.43-.82-2.69-1-3.59-.48l5.9-3.41c.91-.53,2.2-.41,3.67.43l12.14,7h0l12.24,7.06a10.7,10.7,0,0,1,5,8.45c.06,6.55.08,13.08,0,19.55,0,1.59-.54,2.59-1.34,3.05L157,56.94h0C157.84,56.49,158.39,55.49,158.41,53.85Z"/><path class="cls-86" d="M147.48,54.5a2.13,2.13,0,0,1,2.49,0,6.41,6.41,0,0,1-1.4,1l-5.73,3.32h0a11.75,11.75,0,0,0,1.92-1.55C145.69,56.35,146.55,55.37,147.48,54.5Z"/><g class="cls-87"><path class="cls-88" d="M129.05,11.77c-1.43-.82-2.69-1-3.59-.48l5.9-3.41c.91-.53,2.2-.41,3.67.43C139.08,10.65,133.1,14.1,129.05,11.77Z"/></g><path class="cls-89" d="M128.09,9.77a5,5,0,0,1,2.27.75l12.34,7.12h0l12.42,7.17a10.89,10.89,0,0,1,5.06,8.58c.06,6.65.08,13.28,0,19.85a4.63,4.63,0,0,1-.46,2.12L157,56.94h0c.83-.44,1.38-1.44,1.41-3.08.08-6.46.06-13,0-19.55a10.7,10.7,0,0,0-5-8.45l-12.24-7.06h0l-12.14-7c-1.43-.82-2.69-1-3.6-.48Z"/><path class="cls-90" d="M142.83,58.77a11.75,11.75,0,0,0,1.92-1.55c.93-.87,1.79-1.85,2.72-2.72a1.62,1.62,0,0,1,1.41-.39c-.87.83-1.69,1.74-2.56,2.56l-.28.25-3.21,1.86Z"/><path class="cls-91" d="M124,14.53a3.52,3.52,0,0,1,1.33-3.14l.13-.09h0c.9-.48,2.16-.34,3.59.48l12.15,7h0l12.23,7.06a10.73,10.73,0,0,1,5,8.45c.05,6.55.07,13.09,0,19.55,0,1.64-.57,2.64-1.41,3.08a3.59,3.59,0,0,1-3.45-.43l-3-1.74c-.19-.11-.37-.21-.56-.3a2.13,2.13,0,0,0-2.49,0c-.93.87-1.79,1.85-2.72,2.72a11.75,11.75,0,0,1-1.92,1.55c-.08,0-.16.1-.25.14-1.06.53-2.22-.25-3.2-2-.58-1-1.06-2.16-1.54-3.25-.79-1.77-1.51-3.56-2.3-5.33A8,8,0,0,0,131.87,44l-2.75-1.59A10.9,10.9,0,0,1,124,33.78C123.94,27.34,123.93,20.92,124,14.53Z"/><path class="cls-92" d="M124,14.53a3.52,3.52,0,0,1,1.33-3.14l.13-.09h0a3.75,3.75,0,0,1,3.59.48l12.15,7h0l12.24,7.06a10.87,10.87,0,0,1,4.32,5.28A9.92,9.92,0,0,0,154.53,28L142.3,20.9h0l-12.15-7c-1.43-.82-2.69-1-3.59-.47h0a.57.57,0,0,0-.13.08,3.54,3.54,0,0,0-1.33,3.14c0,6.39,0,12.81,0,19.25a9.12,9.12,0,0,0,.67,3.25A10.09,10.09,0,0,1,124,33.78Q123.92,24.12,124,14.53Z"/><path class="cls-93" d="M147.12,38.16a6.59,6.59,0,0,0,3,5.16c1.65,1,3,.18,3-1.72a6.56,6.56,0,0,0-3-5.15C148.45,35.5,147.12,36.27,147.12,38.16Z"/><path class="cls-94" d="M138.14,33a6.54,6.54,0,0,0,3,5.15c1.64.95,3,.18,3-1.71a6.56,6.56,0,0,0-3-5.15C139.47,30.32,138.14,31.09,138.14,33Z"/><path class="cls-95" d="M129.17,27.8a6.57,6.57,0,0,0,3,5.15c1.64.95,3,.18,3-1.72a6.6,6.6,0,0,0-3-5.15C130.5,25.13,129.17,25.9,129.17,27.8Z"/><path class="cls-84" d="M145.93,38.85a6.57,6.57,0,0,0,3,5.16c1.64.94,3,.18,3-1.72a6.57,6.57,0,0,0-3-5.15C147.26,36.19,145.93,37,145.93,38.85Z"/><path class="cls-84" d="M137,33.67a6.56,6.56,0,0,0,3,5.15c1.64,1,3,.18,3-1.71a6.6,6.6,0,0,0-3-5.16C138.29,31,137,31.78,137,33.67Z"/><path class="cls-84" d="M128,28.49a6.57,6.57,0,0,0,3,5.15c1.65,1,3,.18,3-1.72a6.57,6.57,0,0,0-3-5.15C129.31,25.82,128,26.59,128,28.49Z"/><path class="cls-96" d="M56.38,150.7c.08-6.47.06-13,0-19.56a10.73,10.73,0,0,0-5-8.44l-12.23-7.07h0l-12.15-7c-1.43-.82-2.69-1-3.59-.47l5.9-3.41c.91-.53,2.2-.42,3.67.43l12.14,7h0l12.24,7.07a10.68,10.68,0,0,1,5,8.44c.06,6.55.08,13.09,0,19.56,0,1.59-.54,2.58-1.34,3L55,153.78h0C55.81,153.33,56.36,152.33,56.38,150.7Z"/><path class="cls-97" d="M45.45,151.35a2.09,2.09,0,0,1,2.49,0,6.71,6.71,0,0,1-1.4,1l-5.73,3.32h0a11.75,11.75,0,0,0,1.92-1.55C43.66,153.19,44.52,152.21,45.45,151.35Z"/><g class="cls-98"><path class="cls-99" d="M27,108.61c-1.43-.82-2.69-1-3.59-.47l5.9-3.41c.91-.53,2.2-.42,3.67.43C37.05,107.49,31.07,110.94,27,108.61Z"/></g><path class="cls-100" d="M26.06,106.61a5,5,0,0,1,2.27.75l12.34,7.12h0l12.42,7.17a10.9,10.9,0,0,1,5.06,8.58c.06,6.65.08,13.29,0,19.85a4.63,4.63,0,0,1-.46,2.12L55,153.78h0c.83-.45,1.38-1.45,1.41-3.08.08-6.47.06-13,0-19.56a10.69,10.69,0,0,0-5-8.44l-12.24-7.07h0l-12.14-7a3.76,3.76,0,0,0-3.6-.47Z"/><path class="cls-101" d="M40.8,155.61a11.75,11.75,0,0,0,1.92-1.55c.93-.87,1.79-1.85,2.72-2.71a1.6,1.6,0,0,1,1.41-.4c-.87.83-1.69,1.74-2.56,2.56l-.28.25-3.21,1.86Z"/><path class="cls-102" d="M22,111.37a3.54,3.54,0,0,1,1.33-3.14.57.57,0,0,1,.13-.08h0c.9-.48,2.16-.35,3.59.47l12.15,7h0L51.4,122.7a10.73,10.73,0,0,1,5,8.44c0,6.55.07,13.09,0,19.56,0,1.63-.57,2.63-1.41,3.08a3.66,3.66,0,0,1-3.46-.43l-3-1.75a5,5,0,0,0-.56-.29,2.09,2.09,0,0,0-2.49,0c-.93.86-1.79,1.84-2.72,2.71a11.75,11.75,0,0,1-1.92,1.55l-.25.15c-1.06.52-2.22-.26-3.2-2-.58-1.06-1.06-2.16-1.54-3.26-.79-1.77-1.51-3.56-2.3-5.33a8,8,0,0,0-3.68-4.24l-2.75-1.58a10.92,10.92,0,0,1-5.15-8.68C21.91,124.18,21.9,117.76,22,111.37Z"/><path class="cls-103" d="M22,111.37a3.54,3.54,0,0,1,1.33-3.14.57.57,0,0,1,.13-.08h0a3.74,3.74,0,0,1,3.59.47l12.15,7h0l12.24,7.07A10.8,10.8,0,0,1,55.73,128a9.92,9.92,0,0,0-3.23-3.16l-12.23-7.07h0l-12.15-7c-1.43-.82-2.69-1-3.59-.47h0a1.48,1.48,0,0,0-.13.08,3.55,3.55,0,0,0-1.33,3.14c-.05,6.39,0,12.81,0,19.25a9.12,9.12,0,0,0,.67,3.25A10.09,10.09,0,0,1,22,130.62Q21.89,121,22,111.37Z"/><path class="cls-104" d="M45.09,135a6.59,6.59,0,0,0,3,5.15c1.65,1,3,.18,3-1.72a6.57,6.57,0,0,0-3-5.15C46.42,132.34,45.09,133.11,45.09,135Z"/><path class="cls-105" d="M36.11,129.83a6.57,6.57,0,0,0,3,5.15c1.64,1,3,.18,3-1.72a6.57,6.57,0,0,0-3-5.15C37.44,127.16,36.11,127.93,36.11,129.83Z"/><path class="cls-106" d="M27.14,124.64a6.59,6.59,0,0,0,3,5.16c1.64.94,3,.17,3-1.72a6.57,6.57,0,0,0-3-5.15C28.47,122,27.14,122.75,27.14,124.64Z"/><path class="cls-84" d="M43.9,135.7a6.57,6.57,0,0,0,3,5.15c1.64,1,3,.18,3-1.72a6.59,6.59,0,0,0-3-5.15C45.23,133,43.9,133.8,43.9,135.7Z"/><path class="cls-84" d="M34.93,130.52a6.59,6.59,0,0,0,3,5.15c1.64,1,3,.18,3-1.72a6.58,6.58,0,0,0-3-5.15C36.26,127.85,34.93,128.62,34.93,130.52Z"/><path class="cls-84" d="M26,125.33a6.56,6.56,0,0,0,3,5.15c1.65,1,3,.18,3-1.71a6.54,6.54,0,0,0-3-5.15C27.28,122.67,26,123.44,26,125.33Z"/><path class="cls-107" d="M89.07,63.77c.09-6.47.06-13,0-19.55a10.75,10.75,0,0,0-5-8.45L71.86,28.7h0l-12.15-7a3.74,3.74,0,0,0-3.59-.47L62,17.8c.91-.53,2.2-.41,3.67.43l12.15,7h0l12.23,7.07a10.73,10.73,0,0,1,5,8.44c0,6.56.08,13.09,0,19.56a3.32,3.32,0,0,1-1.34,3l-6,3.49h0C88.5,66.4,89.05,65.41,89.07,63.77Z"/><path class="cls-108" d="M78.15,64.42c.63-.6,1.5-.51,2.49,0a6.47,6.47,0,0,1-1.41,1L73.5,68.7v0a10.12,10.12,0,0,0,1.92-1.55C76.36,66.27,77.21,65.29,78.15,64.42Z"/><g class="cls-109"><path class="cls-110" d="M59.71,21.68a3.74,3.74,0,0,0-3.59-.47L62,17.8c.91-.53,2.2-.41,3.67.43C69.74,20.56,63.76,24,59.71,21.68Z"/></g><path class="cls-111" d="M58.75,19.68a5.34,5.34,0,0,1,2.28.75l12.33,7.12h0l12.42,7.18a10.86,10.86,0,0,1,5.06,8.57c.06,6.65.08,13.29,0,19.86a4.62,4.62,0,0,1-.47,2.12l-2.72,1.57h0c.84-.45,1.39-1.44,1.41-3.08.09-6.47.06-13,0-19.55a10.73,10.73,0,0,0-5-8.45L71.85,28.7h0l-12.15-7c-1.43-.82-2.69-.95-3.59-.47Z"/><path class="cls-112" d="M73.49,68.68a10.78,10.78,0,0,0,1.92-1.55c.93-.86,1.79-1.84,2.72-2.71a1.63,1.63,0,0,1,1.41-.4c-.87.84-1.68,1.75-2.56,2.56l-.27.25L73.49,68.7Z"/><path class="cls-113" d="M54.64,24.44A3.52,3.52,0,0,1,56,21.31l.13-.09h0a3.74,3.74,0,0,1,3.59.47l12.15,7h0L84.1,35.77a10.75,10.75,0,0,1,5,8.45c0,6.55.08,13.08,0,19.55,0,1.64-.57,2.63-1.41,3.08a3.59,3.59,0,0,1-3.45-.43l-3-1.74a6.07,6.07,0,0,0-.55-.3c-1-.47-1.86-.56-2.49,0-.94.87-1.79,1.85-2.73,2.71a10.12,10.12,0,0,1-1.92,1.55,2.07,2.07,0,0,1-.25.15c-1.06.53-2.22-.25-3.2-2-.58-1-1.06-2.16-1.54-3.25-.78-1.78-1.51-3.56-2.3-5.34A8,8,0,0,0,62.53,54l-2.75-1.58a10.9,10.9,0,0,1-5.14-8.68C54.6,37.26,54.59,30.83,54.64,24.44Z"/><path class="cls-114" d="M54.64,24.44A3.52,3.52,0,0,1,56,21.31l.13-.09h0a3.74,3.74,0,0,1,3.59.47l12.15,7h0L84.1,35.77a10.78,10.78,0,0,1,4.32,5.28,10.13,10.13,0,0,0-3.22-3.17L73,30.82h0l-12.15-7a3.74,3.74,0,0,0-3.59-.47h0l-.13.09a3.52,3.52,0,0,0-1.33,3.13q-.08,9.6,0,19.26a8.85,8.85,0,0,0,.66,3.24,10.15,10.15,0,0,1-1.76-5.36C54.6,37.26,54.6,30.83,54.64,24.44Z"/><path class="cls-84" d="M84.71,53.57a2.2,2.2,0,0,1-.48,1.16c-.37.39-.9.39-1.59,0q-2.07-1.2-2.07-4.56a3.56,3.56,0,0,1,.56-2.34c.38-.39.92-.38,1.63,0q2,1.17,2,4.59a7.51,7.51,0,0,1-.07,1.13Zm-2-4.63c-.55-.32-.83.33-.83,1.93s.27,2.43.82,2.74.79-.32.79-1.88S83.22,49.24,82.7,48.94Z"/><path class="cls-84" d="M63.25,35.59c1.76-.5,3.35.5,4.38,2.67s1,4.22-.12,4.91A24.74,24.74,0,0,1,63.69,45c-.16.06-.68-.26-.86-.54-1.25-1.94-2.53-3.88-3.64-5.9-1.61-2.94-1.07-5.79,1-5.63C61.35,33,62.33,34.08,63.25,35.59Z"/><path class="cls-84" d="M72.46,43.79a3.81,3.81,0,0,1-.64-.13,2.44,2.44,0,0,1-.39-.23,1.36,1.36,0,0,1-.34-.34c-.11-.22,0-.87.32-.89a6.36,6.36,0,0,1,2,.29.94.94,0,0,1,.48.77c0,2,0,3.88,0,5.78,0,.21-.4.29-.65.22a1,1,0,0,1-.75-1c0-1.07,0-2.15,0-3.23Z"/><path class="cls-84" d="M79.6,50.62a2.2,2.2,0,0,1-.47,1.16c-.37.4-.9.39-1.59,0-1.38-.8-2.08-2.32-2.08-4.57A3.44,3.44,0,0,1,76,44.88c.37-.4.91-.39,1.62,0q2,1.17,2,4.59a7.4,7.4,0,0,1-.08,1.13ZM77.6,46c-.56-.32-.83.32-.83,1.93s.27,2.42.81,2.74.79-.32.79-1.88S78.11,46.3,77.6,46Z"/><g id="speech_bubble_4" data-name="speech bubble_4"><path class="cls-115" d="M91.43,98.36a3.63,3.63,0,0,0-1.64-2.84L60.55,78.64a1.16,1.16,0,0,0-1.16-.12l3.74-2.16a1.16,1.16,0,0,1,1.16.11L93.53,93.36a3.6,3.6,0,0,1,1.64,2.83v13l2.76,9.41-3.74,2.17-2.76-9.42Z"/><path class="cls-116" d="M91.43,98.36a3.48,3.48,0,0,0-.58-1.78,3.25,3.25,0,0,0-1.06-1.06l-1.65-1L61.38,79.11l-.83-.47a1.16,1.16,0,0,0-1.16-.12l3.74-2.16a1.16,1.16,0,0,1,1.16.11l.83.48L91.88,92.41l1.65,1a3.31,3.31,0,0,1,1.06,1,3.51,3.51,0,0,1,.58,1.78v13l-3.74,2.16Z"/><path class="cls-117" d="M61.38,79.11l-.83-.47a1.16,1.16,0,0,0-1.16-.12l3.74-2.16a1.16,1.16,0,0,1,1.16.11l.83.48Z"/><path class="cls-118" d="M59.38,78.52h0a1.16,1.16,0,0,1,1.16.12l1.58.91,27.66,16a3.63,3.63,0,0,1,1.64,2.84v13l2.76,9.42-7.66-7-2.31-1.33L60.55,98.75a3.6,3.6,0,0,1-1.64-2.83V79.58A1.17,1.17,0,0,1,59.38,78.52Z"/><g class="cls-119"><path class="cls-120" d="M86.53,113.75l-2.31-1.33L60.55,98.75a3.6,3.6,0,0,1-1.64-2.83V87.11Z"/></g><g class="cls-121"><path class="cls-122" d="M62.13,79.55l27.66,16a3.63,3.63,0,0,1,1.64,2.84v10.5Z"/></g><path class="cls-123" d="M58.91,79.58a1.17,1.17,0,0,1,.47-1.06h0a1.16,1.16,0,0,1,1.16.12L89.79,95.52a3.62,3.62,0,0,1,1.45,1.85,3.11,3.11,0,0,0-.72-.6L61.28,79.89a1.14,1.14,0,0,0-1.16-.12h0a1.18,1.18,0,0,0-.48,1.06V97.17a3,3,0,0,0,.2,1,3.59,3.59,0,0,1-.93-2.23Z"/><path class="cls-124" d="M62.32,85.54,87.15,99.88c.16.09.29,0,.29-.22V98.9a.71.71,0,0,0-.29-.56L62.32,84c-.16-.1-.29,0-.29.22V85A.69.69,0,0,0,62.32,85.54Z"/><path class="cls-125" d="M70.63,94.29l16.48,9.52c.18.1.33,0,.33-.25v-.67a.8.8,0,0,0-.33-.62L70.63,92.75c-.18-.1-.33,0-.33.25v.67A.79.79,0,0,0,70.63,94.29Z"/><path class="cls-126" d="M75.08,100.81l12,6.93c.19.11.35,0,.35-.26v-.6a.84.84,0,0,0-.35-.67l-12-6.93c-.19-.11-.35,0-.35.26v.6A.84.84,0,0,0,75.08,100.81Z"/><path class="cls-84" d="M61.85,85.81l24.83,14.33c.16.09.29,0,.29-.22v-.76a.69.69,0,0,0-.29-.55L61.85,84.27c-.16-.09-.29,0-.29.22v.76A.72.72,0,0,0,61.85,85.81Z"/><g class="cls-127"><path class="cls-128" d="M86.74,99.16a.47.47,0,0,0-.17-.35L61.79,84.51v.74a.5.5,0,0,0,.18.36l24.77,14.3Z"/></g><path class="cls-84" d="M70.16,94.55l16.49,9.52c.18.11.32,0,.32-.24v-.67a.76.76,0,0,0-.32-.62L70.16,93c-.18-.1-.32,0-.32.25v.66A.76.76,0,0,0,70.16,94.55Z"/><g class="cls-129"><path class="cls-130" d="M86.74,103.16a.55.55,0,0,0-.21-.42l-16.46-9.5v.69a.54.54,0,0,0,.21.42l16.46,9.51Z"/></g><path class="cls-84" d="M74.62,101.08l12,6.93c.2.11.35,0,.35-.27v-.6a.81.81,0,0,0-.35-.66l-12-6.94c-.2-.11-.35,0-.35.27v.6A.82.82,0,0,0,74.62,101.08Z"/><g class="cls-131"><path class="cls-132" d="M86.74,107.81v-.67a.59.59,0,0,0-.23-.46l-12-6.93v.66a.63.63,0,0,0,.23.47Z"/></g><path class="cls-133" d="M60.73,77.75a1.62,1.62,0,0,1,.47.18L90.76,95a3.68,3.68,0,0,1,1.66,2.87V111l2.71,9.22-.94.54-2.76-9.41v-13a3.63,3.63,0,0,0-1.64-2.84L60.55,78.64a1.16,1.16,0,0,0-1.16-.12Z"/></g><g id="speech_bubble_3" data-name="speech bubble_3"><path class="cls-134" d="M154.5,97.12c12.31,7.11,22.29,18.09,22.29,24.52a3.94,3.94,0,0,1-2,3.65l-3.72,2.14-1.19.51-.62,3.36a.42.42,0,0,1-.19.3l-3.76,2.17-1.32-9a51.59,51.59,0,0,1-9.53-4.38c-12.31-7.11-24.21-25.92-24.21-25.92l3.89-2.25C137.68,90.22,145.46,91.9,154.5,97.12Z"/><path class="cls-135" d="M169.92,127.94l-.62,3.36a.42.42,0,0,1-.19.3l-3.76,2.17,1.16-5.51Z"/><g class="cls-136"><path class="cls-137" d="M135,93.6l-4.69.89,3.89-2.25a8.31,8.31,0,0,1,4.55-.81s0,.44-1.28,1.18A6.68,6.68,0,0,1,135,93.6Z"/></g><path class="cls-138" d="M150.75,99.29C163.06,106.4,173,117.37,173,123.8c0,3.22-2.49,4.69-6.53,4.46l-1,5.21c-.09.53-.7.43-1.1-.18L160.28,127a51.69,51.69,0,0,1-9.53-4.39c-12.31-7.11-22.29-18.08-22.29-24.51S138.44,92.18,150.75,99.29Z"/><g class="cls-139"><path class="cls-140" d="M159.93,126.84a52.17,52.17,0,0,1-9.18-4.27c-12.31-7.11-22.29-18.08-22.29-24.51a4.54,4.54,0,0,1,.5-2.19S160.05,126.88,159.93,126.84Z"/></g><g class="cls-141"><path class="cls-142" d="M150.75,99.29C163.06,106.4,173,117.37,173,123.8a4.19,4.19,0,0,1-1,2.86L139.89,94.49A49.42,49.42,0,0,1,150.75,99.29Z"/></g><path class="cls-143" d="M132.77,93.06c4-1,10.94.92,18.87,5.49,12.38,7.15,22.42,18.19,22.42,24.66a3.94,3.94,0,0,1-2,3.67h0l-1,.56-.05,0a3.94,3.94,0,0,0,2-3.66c0-6.43-10-17.4-22.29-24.51-9.16-5.29-17-6.94-20.46-4.8h0Z"/><path class="cls-144" d="M165.55,133.47l1-5.21c.29,0,.58,0,.86,0l-.86,4.65a.48.48,0,0,1-.16.26l-1,.58h0A.38.38,0,0,0,165.55,133.47Z"/><path class="cls-145" d="M128.46,98.06c0-6.43,10-5.88,22.29,1.23a70.26,70.26,0,0,1,10.59,7.51,71,71,0,0,0-9.43-6.54C139.6,93.15,129.62,92.6,129.62,99c0,4.43,4.73,11,11.7,17C133.72,109.79,128.46,102.73,128.46,98.06Z"/><path class="cls-146" d="M153.49,112.43a4,4,0,0,0,1.8,3.1c1,.57,1.79.11,1.79-1a4,4,0,0,0-1.79-3.11C154.3,110.82,153.49,111.29,153.49,112.43Z"/><path class="cls-147" d="M148.09,109.31a4,4,0,0,0,1.79,3.1c1,.57,1.79.11,1.79-1a4,4,0,0,0-1.79-3.11C148.89,107.7,148.09,108.16,148.09,109.31Z"/><path class="cls-148" d="M142.68,106.19a4,4,0,0,0,1.79,3.1c1,.57,1.79.11,1.79-1a4,4,0,0,0-1.79-3.1C143.48,104.58,142.68,105,142.68,106.19Z"/><path class="cls-84" d="M152.78,112.84a4,4,0,0,0,1.79,3.11c1,.57,1.79.11,1.79-1a4,4,0,0,0-1.79-3.1C153.58,111.24,152.78,111.7,152.78,112.84Z"/><g class="cls-149"><path class="cls-150" d="M155.37,116c.48,0,.76-.39.76-1a3.7,3.7,0,0,0-1.68-2.9,1.37,1.37,0,0,0-.68-.21c-.47,0-.76.39-.76,1a3.72,3.72,0,0,0,1.68,2.91A1.4,1.4,0,0,0,155.37,116Z"/></g><ellipse class="cls-84" cx="149.16" cy="110.76" rx="1.46" ry="2.53" transform="translate(-35.39 89.42) rotate(-30)"/><g class="cls-151"><path class="cls-152" d="M150,112.84c.48,0,.76-.39.76-1a3.7,3.7,0,0,0-1.67-2.9,1.42,1.42,0,0,0-.69-.22c-.47,0-.76.4-.76,1a3.74,3.74,0,0,0,1.68,2.91A1.51,1.51,0,0,0,150,112.84Z"/></g><path class="cls-84" d="M142,106.6a4,4,0,0,0,1.8,3.1c1,.58,1.79.11,1.79-1a4,4,0,0,0-1.79-3.1C142.77,105,142,105.46,142,106.6Z"/><g class="cls-153"><path class="cls-154" d="M144.56,109.72c.47,0,.76-.39.76-1a3.71,3.71,0,0,0-1.68-2.9,1.42,1.42,0,0,0-.68-.22c-.48,0-.76.39-.76,1a3.7,3.7,0,0,0,1.67,2.9A1.42,1.42,0,0,0,144.56,109.72Z"/></g></g><path class="cls-155" d="M120.86,100.68c0-4.26,0-8.56,0-12.87a7,7,0,0,0-3.28-5.55c-2.68-1.56-5.36-3.1-8-4.65h0q-4-2.31-8-4.61a2.45,2.45,0,0,0-2.36-.31l3.88-2.25a2.43,2.43,0,0,1,2.41.29l8,4.61h0l8,4.65a7,7,0,0,1,3.28,5.55c0,4.31,0,8.61,0,12.86a2.22,2.22,0,0,1-.88,2l-4,2.29h0A2.15,2.15,0,0,0,120.86,100.68Z"/><path class="cls-156" d="M113.67,101.1a1.38,1.38,0,0,1,1.64,0,4.21,4.21,0,0,1-.93.65l-3.77,2.19h0a7.28,7.28,0,0,0,1.27-1C112.49,102.32,113.05,101.67,113.67,101.1Z"/><g class="cls-157"><path class="cls-158" d="M101.54,73a2.45,2.45,0,0,0-2.36-.31l3.88-2.25a2.43,2.43,0,0,1,2.41.29C108.14,72.25,104.21,74.52,101.54,73Z"/></g><path class="cls-159" d="M100.91,71.67a3.44,3.44,0,0,1,1.5.5l8.11,4.68h0l8.17,4.72A7.15,7.15,0,0,1,122,87.22c0,4.37,0,8.74,0,13.06a3,3,0,0,1-.31,1.39l-1.79,1h0a2.15,2.15,0,0,0,.93-2c.05-4.26,0-8.56,0-12.87a7,7,0,0,0-3.28-5.55c-2.68-1.56-5.36-3.1-8-4.65h0q-4-2.31-8-4.61a2.45,2.45,0,0,0-2.36-.31Z"/><path class="cls-160" d="M110.61,103.91a7.61,7.61,0,0,0,1.26-1c.61-.57,1.18-1.22,1.79-1.79a1.06,1.06,0,0,1,.92-.26c-.57.55-1.1,1.15-1.68,1.68l-.18.17-2.12,1.23Z"/><path class="cls-161" d="M98.21,74.8a2.29,2.29,0,0,1,.87-2.06l.09,0h0a2.45,2.45,0,0,1,2.36.31q4,2.3,8,4.61h0c2.69,1.55,5.37,3.09,8,4.65a7,7,0,0,1,3.28,5.55c0,4.31,0,8.61,0,12.87a2.15,2.15,0,0,1-.93,2,2.37,2.37,0,0,1-2.27-.28l-2-1.15a3.13,3.13,0,0,0-.36-.19,1.38,1.38,0,0,0-1.64,0c-.62.57-1.18,1.22-1.79,1.79a7.28,7.28,0,0,1-1.27,1l-.16.09c-.7.35-1.46-.16-2.11-1.35-.38-.69-.69-1.42-1-2.14-.52-1.16-1-2.34-1.51-3.5a5.25,5.25,0,0,0-2.42-2.79l-1.81-1a7.15,7.15,0,0,1-3.39-5.7Q98.17,81.11,98.21,74.8Z"/><g class="cls-162"><path class="cls-163" d="M117.66,102.42l-2-1.15a3.13,3.13,0,0,0-.36-.19,1.38,1.38,0,0,0-1.64,0c-.62.57-1.18,1.22-1.79,1.79a7.28,7.28,0,0,1-1.27,1l-.16.09c-.7.35-1.46-.16-2.11-1.35-.38-.69-.69-1.42-1-2.14-.52-1.16-1-2.34-1.51-3.5a5.25,5.25,0,0,0-2.42-2.79l-1.81-1a7.15,7.15,0,0,1-3.39-5.7c0-1.52,0-3,0-4.54Z"/></g><g class="cls-164"><path class="cls-165" d="M98.63,73.18a1.57,1.57,0,0,1,.45-.44l.09,0h0a2.45,2.45,0,0,1,2.36.31q4,2.3,8,4.61h0c2.69,1.55,5.37,3.09,8,4.65a7,7,0,0,1,3.28,5.55c0,2.57,0,5.13,0,7.68Z"/></g><path class="cls-84" d="M106.77,83.42c1.2-.35,2.3.34,3,1.83s.68,2.9-.08,3.37a16.12,16.12,0,0,1-2.62,1.24c-.11,0-.47-.17-.59-.36-.85-1.34-1.73-2.67-2.5-4.06-1.11-2-.73-4,.66-3.86C105.47,81.64,106.14,82.39,106.77,83.42Z"/><path class="cls-84" d="M114.3,89.84a2.47,2.47,0,0,1-.44-.09,1.12,1.12,0,0,1-.27-.16.74.74,0,0,1-.23-.24c-.08-.14,0-.59.21-.61a4.77,4.77,0,0,1,1.36.2.69.69,0,0,1,.33.53c0,1.34,0,2.67,0,4,0,.14-.26.2-.44.15a.67.67,0,0,1-.51-.7v-3Z"/><path class="cls-166" d="M98.21,74.8a2.29,2.29,0,0,1,.87-2.06l.09,0h0a2.45,2.45,0,0,1,2.36.31q4,2.3,8,4.61h0c2.69,1.55,5.37,3.09,8,4.65a7,7,0,0,1,2.85,3.47,6.46,6.46,0,0,0-2.12-2.08l-8-4.65h0l-8-4.61a2.47,2.47,0,0,0-2.37-.31h0l-.09.06a2.34,2.34,0,0,0-.87,2.06q0,6.32,0,12.67A5.91,5.91,0,0,0,99.36,91a6.68,6.68,0,0,1-1.16-3.52Q98.17,81.11,98.21,74.8Z"/><g id="speech_bubble_5" data-name="speech bubble_5"><path class="cls-167" d="M117.71,148.58c0-.52,0-1-.08-1.56a21.77,21.77,0,0,0-2.92-8.45,20.46,20.46,0,0,0-7-7.37,9,9,0,0,0-4.66-1.36h0a5.5,5.5,0,0,0-1.16.16,4.82,4.82,0,0,0-1.3.54h0s2-1.17,3.82-2.21a4.81,4.81,0,0,1,1.24-.5,5.5,5.5,0,0,1,1.16-.17h0a9,9,0,0,1,4.66,1.37,20.38,20.38,0,0,1,7,7.37,21.78,21.78,0,0,1,2.92,8.44c0,.53.08,1,.08,1.56a8.67,8.67,0,0,1-1.32,5l1,7.49-3.76,2.18-1-7.49A8.69,8.69,0,0,0,117.71,148.58Z"/><path class="cls-168" d="M117.71,148.58c0-.52,0-1-.08-1.56a21.77,21.77,0,0,0-2.92-8.45,20.46,20.46,0,0,0-7-7.37,9,9,0,0,0-4.66-1.36h0a5.5,5.5,0,0,0-1.16.16,4.82,4.82,0,0,0-1.3.54h0s2-1.17,3.82-2.21a4.81,4.81,0,0,1,1.24-.5,5.5,5.5,0,0,1,1.16-.17h0a9,9,0,0,1,4.66,1.37,20.38,20.38,0,0,1,7,7.37,21.78,21.78,0,0,1,2.92,8.44c0,.53.08,1,.08,1.56a8.67,8.67,0,0,1-1.32,5l-3.76,2.18A8.69,8.69,0,0,0,117.71,148.58Z"/><path class="cls-169" d="M103,129.84h0a5.5,5.5,0,0,0-1.16.16,4.82,4.82,0,0,0-1.3.54h0s2-1.17,3.82-2.21a4.81,4.81,0,0,1,1.24-.5,5.5,5.5,0,0,1,1.16-.17h0C108.17,127.62,104.41,129.8,103,129.84Z"/><path class="cls-170" d="M103,129.11a5.16,5.16,0,0,1,.89-.11h0a9.16,9.16,0,0,1,4.76,1.39,21,21,0,0,1,7.17,7.52,22.37,22.37,0,0,1,3,8.62c0,.54.09,1.07.09,1.59a8.87,8.87,0,0,1-1.36,5.1l1,7.19-1.11.64-1-7.49a8.67,8.67,0,0,0,1.32-5c0-.51,0-1-.08-1.56a21.78,21.78,0,0,0-2.92-8.44,20.38,20.38,0,0,0-7-7.37,8.87,8.87,0,0,0-4.66-1.37h0a5.5,5.5,0,0,0-1.16.17,4.5,4.5,0,0,0-1.3.53h0Z"/><path class="cls-171" d="M100.54,130.54a4.82,4.82,0,0,1,1.3-.54,5.5,5.5,0,0,1,1.16-.16h0a9,9,0,0,1,4.66,1.36,20.46,20.46,0,0,1,7,7.37,21.77,21.77,0,0,1,2.92,8.45c.05.52.08,1,.08,1.56a12.25,12.25,0,0,1-.07,1.38,7.92,7.92,0,0,1-1.25,3.61l.33,2.4.7,5.09-5.81-5.35h-.09a9.8,9.8,0,0,1-3.84-1.33,15.64,15.64,0,0,1-1.5-1h0l-.75-.6h0a22.27,22.27,0,0,1-4.53-5.38,23.66,23.66,0,0,1-2.32-5,18.7,18.7,0,0,1-.81-3.57h0a13.87,13.87,0,0,1-.12-1.81,8.22,8.22,0,0,1,1.63-5.38A4.91,4.91,0,0,1,100.54,130.54Z"/><g class="cls-172"><path class="cls-173" d="M116.72,156l.7,5.09-5.81-5.35h-.09a9.8,9.8,0,0,1-3.84-1.33,15.64,15.64,0,0,1-1.5-1h0l-.75-.6h0a22.27,22.27,0,0,1-4.53-5.38,23.66,23.66,0,0,1-2.32-5,18.7,18.7,0,0,1-.81-3.57h0a13.87,13.87,0,0,1-.12-1.81Z"/></g><g class="cls-174"><path class="cls-175" d="M100.54,130.54a4.82,4.82,0,0,1,1.3-.54,5.5,5.5,0,0,1,1.16-.16h0a9,9,0,0,1,4.66,1.36,20.46,20.46,0,0,1,7,7.37,21.77,21.77,0,0,1,2.92,8.45c.05.52.08,1,.08,1.56a12.25,12.25,0,0,1-.07,1.38L99.28,131.61A4.91,4.91,0,0,1,100.54,130.54Z"/></g><path class="cls-176" d="M100.49,130.54a4.82,4.82,0,0,1,1.3-.54,5.5,5.5,0,0,1,1.16-.16h0a9,9,0,0,1,4.66,1.36,19,19,0,0,1,5.65,5.28,18.56,18.56,0,0,0-5.07-4.53,9,9,0,0,0-4.66-1.36h0a5.5,5.5,0,0,0-1.16.16,4.82,4.82,0,0,0-1.3.54c-1.79,1.06-2.89,3.29-2.89,6.46a13.83,13.83,0,0,0,.12,1.8h0a18.7,18.7,0,0,0,.81,3.57,24,24,0,0,0,2.32,5c.37.61.78,1.2,1.2,1.78a24,24,0,0,1-1.78-2.54,23.66,23.66,0,0,1-2.32-5,18.7,18.7,0,0,1-.81-3.57h0A13.87,13.87,0,0,1,97.6,137C97.6,133.83,98.7,131.6,100.49,130.54Z"/><path class="cls-177" d="M111.05,144.49a4,4,0,0,0,1.8,3.11c1,.57,1.79.1,1.79-1a4,4,0,0,0-1.79-3.1C111.86,142.89,111.05,143.35,111.05,144.49Z"/><path class="cls-178" d="M105.65,141.37a4,4,0,0,0,1.79,3.1c1,.57,1.79.11,1.79-1a4,4,0,0,0-1.79-3.1C106.45,139.76,105.65,140.23,105.65,141.37Z"/><ellipse class="cls-179" cx="102.03" cy="139.28" rx="1.46" ry="2.53" transform="translate(-55.97 69.68) rotate(-30)"/><path class="cls-84" d="M110.34,144.91a4,4,0,0,0,1.79,3.1c1,.57,1.79.11,1.79-1a4,4,0,0,0-1.79-3.11C111.14,143.3,110.34,143.76,110.34,144.91Z"/><g class="cls-180"><path class="cls-181" d="M112.93,148c.48,0,.76-.39.76-1a3.73,3.73,0,0,0-1.67-2.91,1.43,1.43,0,0,0-.69-.21c-.47,0-.76.39-.76,1a3.7,3.7,0,0,0,1.68,2.9A1.4,1.4,0,0,0,112.93,148Z"/></g><path class="cls-84" d="M104.93,141.79a4,4,0,0,0,1.79,3.1c1,.57,1.8.11,1.8-1a4,4,0,0,0-1.8-3.1C105.73,140.18,104.93,140.64,104.93,141.79Z"/><g class="cls-182"><path class="cls-183" d="M107.52,144.9c.48,0,.76-.39.76-1.05a3.73,3.73,0,0,0-1.67-2.9,1.4,1.4,0,0,0-.69-.21c-.47,0-.76.39-.76,1a3.74,3.74,0,0,0,1.68,2.9A1.4,1.4,0,0,0,107.52,144.9Z"/></g><path class="cls-84" d="M99.53,138.66a4,4,0,0,0,1.79,3.11c1,.57,1.79.11,1.79-1a4,4,0,0,0-1.79-3.1C100.33,137.06,99.53,137.52,99.53,138.66Z"/><g class="cls-184"><path class="cls-185" d="M102.12,141.78c.47,0,.76-.39.76-1.05a3.73,3.73,0,0,0-1.68-2.9,1.4,1.4,0,0,0-.68-.21c-.48,0-.76.39-.76,1a3.73,3.73,0,0,0,1.67,2.91A1.43,1.43,0,0,0,102.12,141.78Z"/></g></g></g></g></g></svg>